<svg width="110" height="110" viewBox="0 0 110 110" fill="none" xmlns="http://www.w3.org/2000/svg">
<circle cx="55" cy="55" r="55" fill="#191F1F"/>
<path d="M51.1781 32.7725C52.7632 37.0758 57.2014 37.0758 58.7864 32.7725C59.3412 32.5608 59.8167 31.7848 59.9752 31.2205C60.0545 30.5855 59.9752 29.739 59.262 29.739C59.1035 27.6931 57.8354 26 55.0615 26C52.2877 26 50.8611 27.4815 50.7026 29.739C49.9893 29.739 49.9101 30.5855 50.0686 31.2205C50.1478 31.8554 50.7026 32.5608 51.2574 32.7725H51.1781Z" fill="white"/>
<path d="M64 52.7753V40.0154C64 37.8027 62.3902 35.8113 60.122 35.3688L58.439 35L55 41.9331L51.561 35L49.878 35.3688C47.6098 35.8113 46 37.8027 46 40.0154V52.7753C46 54.4717 47.3902 55.8731 49.0732 55.8731V74.9022C49.0732 76.5986 50.4634 78 52.1463 78H57.7805C59.4634 78 60.8537 76.5986 60.8537 74.9022V55.8731C62.5366 55.8731 63.9268 54.4717 63.9268 52.7753H64Z" fill="white"/>
</svg>
