<svg width="67" height="68" viewBox="0 0 67 68" fill="none" xmlns="http://www.w3.org/2000/svg">
<g clip-path="url(#clip0_651_321)">
<path d="M24.7 45C30.4 39.6 30.4 33.5 30.1 30.6C44.6 19.8 45.5 5.7 45.4 1.3C45.4 0.6 44.8 0 44.1 0C39.7 0 25.8 0.9 15 15.4C12.2 15 6.00001 15 0.600013 20.8C0.200013 21.3 1.24797e-05 22 0.200012 22.6C0.400012 23.2 0.900013 23.7 1.60001 23.8C3.80001 24.2 6.70001 25 8.80001 26.4C8.20001 27.7 7.70001 29 7.20001 30.5C7.00001 31.2 7.20001 31.9 7.60001 32.4C8.80001 33.6 10.7 35.5 10.7 35.5L13.3 38.1C13.8 38.6 14.5 38.8 15.2 38.5C16.6 38 18 37.4 19.2 36.9C20.6 39 21.4 41.9 21.8 44.1C21.9 44.7 22.4 45.3 23 45.5C23.6 45.7 24.3 45.5 24.8 45.1L24.7 45ZM19.2 26.3C16.9 24 16.9 20.3 19.2 17.9C21.5 15.6 25.3 15.6 27.6 17.9C29.9 20.2 29.9 23.9 27.6 26.3C25.3 28.6 21.6 28.6 19.2 26.3Z" fill="#E18802"/>
<path d="M66.1 39.4999C63.2 27.6999 51.5 20.9999 40.5 23.0999C39.6 24.3999 38.5 25.6999 37.4 26.9999C40.8 26.9999 47.9 31.6999 45.2 33.5999C43.2 34.9999 40.6 37.4999 40.6 38.4999C40.6 39.4999 40.9 40.0999 40 40.2999C38.2 40.5999 33.7 40.6999 34.7 42.1999C35.8 43.6999 42.4 41.5999 43.7 45.8999C44.6 48.8999 43 51.9999 42.4 54.2999C41.8 56.5999 40.5 61.1999 39.2 61.2999C38.4 61.2999 38 60.8999 37.5 59.6999C36 55.0999 32.9 52.6999 32.2 51.2999C31.5 49.8999 29.9 46.1999 31.8 44.0999C33.2 42.4999 31.4 42.1999 30.1 41.3999C29.2 43.0999 27.9 44.7999 26.2 46.4999C25.5 47.1999 24.5 47.5999 23.5 47.5999C22.5 47.5999 22.9 47.5999 22.5 47.4999C24.6 62.3999 41.5 75.2999 58.1 62.5999C65.1 57.1999 68.3 48.2999 66.1 39.5999V39.4999ZM55 37.6999C55 37.6999 56.1 36.3999 56.3 34.1999C56.5 32.3999 56.5 31.0999 56.9 29.9999C59.4 32.0999 61.4 34.7999 62.6 37.8999C60.8 37.8999 59.2 37.1999 57.9 37.7999C56 38.5999 53.2 40.0999 55 37.7999V37.6999ZM43.9 27.0999C42.7 27.0999 41.6 26.5999 40.8 25.9999C42 25.7999 43.3 25.5999 44.6 25.5999C46.4 25.5999 48.1 25.8999 49.8 26.2999C47.9 26.6999 45.4 27.0999 43.8 27.0999H43.9ZM57.9 59.0999C57.7 58.1999 57.5 57.2999 57.2 56.5999C56.5 54.3999 54.9 52.6999 55.3 51.5999C55.6 50.4999 55.6 49.4999 54 47.8999C52.4 46.2999 51.7 44.5999 53.3 42.1999C54.9 39.8999 60.6 39.5999 63.2 39.8999C63.7 41.5999 63.9 43.2999 63.9 45.1999C63.9 50.6999 61.5 55.5999 57.8 59.1999L57.9 59.0999Z" fill="#606367"/>
<path d="M13 41.5999C12.2 41.3999 11.5 41 10.9 40.4L5.19999 34.7C5.09999 34.6 4.99999 34.4 4.89999 34.2C2.99999 37.6 -3.00001 50.9999 11.2 59.5999C11.8 59.8999 12.5 59.7999 12.9 59.2999C13.3 58.7999 13.4 58.1 12.9 57.5C9.99999 53.7999 8.39999 48.5 12.9 41.5L13 41.5999Z" fill="#F27405"/>
</g>
<defs>
<clipPath id="clip0_651_321">
<rect width="66.8" height="67.8" fill="white"/>
</clipPath>
</defs>
</svg>
