<svg width="44" height="43" viewBox="0 0 44 43" fill="none" xmlns="http://www.w3.org/2000/svg">
<g clip-path="url(#clip0_653_326)">
<path d="M41.1445 25.9683L44 24.1551V20.3991L41.0796 18.5211C40.82 17.4201 40.4956 16.384 40.0413 15.4126L41.3392 12.1099C40.6903 11.009 39.9115 10.0376 39.0678 9.06623L35.4336 9.26051C34.7197 8.61292 33.8761 8.09485 33.0324 7.57677L32.1239 4.01503C30.9557 3.49696 29.7227 3.1084 28.4248 2.84937L25.4395 5.31021C25.115 5.31021 24.7905 5.31021 24.4661 5.31021V11.5918C30.3717 11.7214 35.1091 16.5135 35.1091 22.4066C35.1091 28.2997 30.3717 33.0918 24.4661 33.2213V39.3087C24.8554 39.3087 25.2448 39.3087 25.6342 39.3087L28.6844 41.8343C29.7876 41.5753 30.8908 41.2515 31.9941 40.7982L32.9675 37.1069C33.8761 36.5888 34.7846 35.9412 35.6283 35.2289L39.3274 35.4232C40.1062 34.5165 40.7551 33.6099 41.3392 32.5738L40.0413 29.2063C40.4956 28.1701 40.8849 27.0692 41.0796 25.9683H41.1445Z" fill="#191F1F"/>
<path d="M0 41.8379H22.1298V-1.16211H0V41.8379ZM12.9794 2.72343H18.1711V6.67373H12.9794V2.72343ZM12.9794 10.5593H18.1711V14.5096H12.9794V10.5593ZM12.9794 18.3951H18.1711V22.3454H12.9794V18.3951ZM12.9794 26.231H18.1711V30.1813H12.9794V26.231ZM12.9794 34.0668H18.1711V38.0171H12.9794V34.0668ZM3.89381 2.72343H9.08554V6.67373H3.89381V2.72343ZM3.89381 10.5593H9.08554V14.5096H3.89381V10.5593ZM3.89381 18.3951H9.08554V22.3454H3.89381V18.3951ZM3.89381 26.231H9.08554V30.1813H3.89381V26.231ZM3.89381 34.0668H9.08554V38.0171H3.89381V34.0668Z" fill="#191F1F"/>
</g>
<defs>
<clipPath id="clip0_653_326">
<rect width="44" height="43" fill="white"/>
</clipPath>
</defs>
</svg>
