<svg width="25" height="25" viewBox="0 0 21 21" fill="none" xmlns="http://www.w3.org/2000/svg">
<path fill-rule="evenodd" clip-rule="evenodd" d="M9.91596 12.4947C10.3973 12.4956 10.874 12.4014 11.3188 12.2176C11.7637 12.0338 12.1678 11.764 12.5082 11.4237C12.8485 11.0834 13.1183 10.6792 13.3021 10.2344C13.4859 9.78955 13.58 9.31281 13.5792 8.83152C13.5861 7.84563 13.2064 6.89626 12.5217 6.18696C11.8369 5.47765 10.9015 5.06486 9.91596 5.03708C9.43455 5.03604 8.95768 5.13007 8.5127 5.31378C8.06772 5.49749 7.66339 5.76726 7.32292 6.10761C6.98245 6.44796 6.71254 6.85218 6.52867 7.2971C6.3448 7.74201 6.2506 8.21886 6.25146 8.70027C6.26718 9.67954 6.65442 10.6163 7.33479 11.3208C8.01517 12.0253 8.93783 12.4449 9.91596 12.4947ZM3.76559 2.5512C5.3966 0.920196 7.60872 0.00390623 9.91531 0.00390625C12.2219 0.00390627 14.434 0.920196 16.065 2.5512C17.696 4.18221 18.6123 6.39433 18.6123 8.70092C18.6123 11.0075 17.696 13.2196 16.065 14.8506L9.91596 20.9997L3.76559 14.8506C2.19036 13.1906 1.31219 10.9894 1.31219 8.70092C1.31219 6.41246 2.19036 4.21124 3.76559 2.5512Z" fill="#E18802"/>
</svg>
