<svg width="109" height="160" viewBox="0 0 109 160" fill="none" xmlns="http://www.w3.org/2000/svg">
<path d="M54.513 137.001L0 104.668V39.9672L54.513 7.60547L109 39.9672V104.665L54.513 136.997V137.001Z" fill="#F0F2F2"/>
<path d="M53.1291 77.5847L48.3136 73.1611C48.1937 73.0509 48.0512 72.944 47.8891 72.9375C45.7115 72.8533 31.6474 32.5582 26.0023 16.5232C25.7981 15.9463 25.0852 15.7487 24.6121 16.1343L20.9697 19.0931C20.9048 19.1482 20.8271 19.1903 20.7493 19.226C2.20997 26.9907 23.0242 7.49133 25.1111 6.74597C27.198 6.0006 33.1153 8.99178 34.337 16.0371C34.3435 16.0695 34.35 16.0987 34.3597 16.1311L52.6754 75.5398C52.8148 75.9935 53.3041 76.3111 53.7448 76.1329C53.9879 76.0356 54.2601 76.1815 54.4578 76.4407C55.0962 77.2703 53.8972 78.2944 53.1259 77.5847H53.1291Z" fill="#F39929"/>
<g filter="url(#filter0_dddd_0_1)">
<path d="M84.1771 95.91C71.3573 113.361 48.5372 114.482 33.7926 103.649C19.048 92.8151 18.9248 72.0324 31.7445 54.5812C44.5643 37.1299 56.5706 28.3703 71.3152 39.2007C86.0598 50.0344 96.9968 78.4555 84.1771 95.9067V95.91Z" fill="#F39929"/>
</g>
<path d="M38.1641 47.14C38.1641 47.14 31.388 52.5293 28.3322 63.0195C25.2795 73.5097 46.2072 69.5042 59.0172 63.8945C71.9017 58.2848 88.2634 65.7482 88.2634 65.7482C88.2634 65.7482 87.6995 63.7843 84.9677 56.7098C84.0733 55.326 43.8221 42.2595 38.0895 47.14H38.1641Z" fill="#F27405"/>
<path d="M60.7605 63.2199C60.7605 63.2199 59.542 77.6832 69.6656 79.2128C79.7891 80.7424 81.7205 62.0824 75.894 56.6186C70.0674 51.1547 61.9238 56.2264 60.7605 63.2199Z" fill="#191F1F"/>
<path d="M21.3096 61.2115C21.3096 61.2115 17.907 74.304 28.0338 75.8336C38.1574 77.3632 40.0305 60.0481 34.2039 54.5842C28.3773 49.1204 22.4763 54.2213 21.3096 61.2115Z" fill="#191F1F"/>
<path d="M27.7198 56.3791C27.7198 56.3791 25.8338 59.0851 27.0911 60.4008C28.3485 61.7165 32.2825 60.2452 32.4381 57.5392C32.5969 54.8332 28.8994 54.292 27.7198 56.3791Z" fill="#58606F"/>
<path d="M23.9834 61.2066C23.9834 61.2066 23.0663 62.5612 23.6788 63.2191C24.288 63.877 26.1967 63.1413 26.2745 61.7867C26.3523 60.4321 24.557 60.1631 23.9834 61.2066Z" fill="#58606F"/>
<path d="M66.9761 64.0963C66.9761 64.0963 66.059 65.4509 66.6715 66.1087C67.2807 66.7666 69.1894 66.031 69.2672 64.6764C69.345 63.3217 67.5497 63.0528 66.9761 64.0963Z" fill="#58606F"/>
<path d="M70.7289 59.2707C70.7289 59.2707 68.8428 61.9767 70.1002 63.2924C71.3575 64.6081 75.2916 63.1368 75.4471 60.4308C75.6059 57.7248 71.9084 57.1836 70.7289 59.2707Z" fill="#58606F"/>
<path d="M72.4785 50.6832C72.4072 53.0489 70.9748 27.1556 69.0823 10.3557C68.9948 9.57148 68.1555 9.11454 67.4459 9.4613L63.5961 11.3539C63.4988 11.4025 63.3886 11.4381 63.2817 11.4543C43.5434 14.8636 68.1555 0.513691 70.3559 0.254434C72.5562 -0.00482303 77.6472 4.22431 77.2778 11.3539V11.4803L80.0647 50.1971C80.1003 50.6702 72.9386 35.5166 72.4785 50.6767V50.6832Z" fill="#F39929"/>
<path d="M53.6991 99.6782L62.7273 94.7588C64.5453 96.2722 64.7948 98.9976 63.2814 100.816L51.4566 115.016C49.9432 116.835 46.4337 117.47 44.6157 115.956L47.8012 109.835C47.5906 109.66 50.0729 110.337 51.0094 108.636C52.3672 106.173 50.1377 106.114 50.3418 105.868L54.0069 104.29L54.5513 104.05C56.0647 102.232 52.014 101.454 53.6991 99.6782Z" fill="#F27405"/>
<path d="M35.5594 97.9853L31.1749 90.5576C29.2144 90.8655 27.8631 92.7224 28.1709 94.683L30.5787 109.999C30.8865 111.959 33.142 113.926 35.1025 113.619L35.4428 107.837C35.6696 107.801 33.5924 107.221 33.6475 105.595C33.7285 103.239 35.3585 104.152 35.3196 103.89L33.3591 101.177L33.0707 100.772C32.7628 98.8117 36.0131 99.9946 35.5659 97.9918L35.5594 97.9853Z" fill="#F27405"/>
<defs>
<filter id="filter0_dddd_0_1" x="8.41589" y="31.4482" width="95.4287" height="128.2" filterUnits="userSpaceOnUse" color-interpolation-filters="sRGB">
<feFlood flood-opacity="0" result="BackgroundImageFix"/>
<feColorMatrix in="SourceAlpha" type="matrix" values="0 0 0 0 0 0 0 0 0 0 0 0 0 0 0 0 0 0 127 0" result="hardAlpha"/>
<feOffset dy="2"/>
<feGaussianBlur stdDeviation="2.5"/>
<feColorMatrix type="matrix" values="0 0 0 0 0.639216 0 0 0 0 0.639216 0 0 0 0 0.639216 0 0 0 0.1 0"/>
<feBlend mode="normal" in2="BackgroundImageFix" result="effect1_dropShadow_0_1"/>
<feColorMatrix in="SourceAlpha" type="matrix" values="0 0 0 0 0 0 0 0 0 0 0 0 0 0 0 0 0 0 127 0" result="hardAlpha"/>
<feOffset dy="9"/>
<feGaussianBlur stdDeviation="4.5"/>
<feColorMatrix type="matrix" values="0 0 0 0 0.639216 0 0 0 0 0.639216 0 0 0 0 0.639216 0 0 0 0.09 0"/>
<feBlend mode="normal" in2="effect1_dropShadow_0_1" result="effect2_dropShadow_0_1"/>
<feColorMatrix in="SourceAlpha" type="matrix" values="0 0 0 0 0 0 0 0 0 0 0 0 0 0 0 0 0 0 127 0" result="hardAlpha"/>
<feOffset dy="19"/>
<feGaussianBlur stdDeviation="6"/>
<feColorMatrix type="matrix" values="0 0 0 0 0.639216 0 0 0 0 0.639216 0 0 0 0 0.639216 0 0 0 0.05 0"/>
<feBlend mode="normal" in2="effect2_dropShadow_0_1" result="effect3_dropShadow_0_1"/>
<feColorMatrix in="SourceAlpha" type="matrix" values="0 0 0 0 0 0 0 0 0 0 0 0 0 0 0 0 0 0 127 0" result="hardAlpha"/>
<feOffset dy="35"/>
<feGaussianBlur stdDeviation="7"/>
<feColorMatrix type="matrix" values="0 0 0 0 0.639216 0 0 0 0 0.639216 0 0 0 0 0.639216 0 0 0 0.01 0"/>
<feBlend mode="normal" in2="effect3_dropShadow_0_1" result="effect4_dropShadow_0_1"/>
<feBlend mode="normal" in="SourceGraphic" in2="effect4_dropShadow_0_1" result="shape"/>
</filter>
</defs>
</svg>
