<svg width="34" height="44" viewBox="0 0 34 44" fill="none" xmlns="http://www.w3.org/2000/svg">
<g clip-path="url(#clip0_653_338)">
<path d="M4.58633 5.84232C5.80935 9.55463 9.23381 9.55463 10.4568 5.84232C10.8849 5.65975 11.2518 4.99032 11.3741 4.50346C11.4352 3.95574 11.3741 3.22545 10.8237 3.22545C10.7014 1.46058 9.72302 0 7.58273 0C5.44244 0 4.34172 1.27801 4.21942 3.22545C3.66906 3.22545 3.60791 3.95574 3.73021 4.50346C3.79136 5.05118 4.21942 5.65975 4.64748 5.84232H4.58633Z" fill="#191F1F"/>
<path d="M15.0432 23.1867V12.6583C15.0432 10.8326 13.6978 9.18945 11.8022 8.82431L10.3957 8.52002L7.52158 14.2406L4.64748 8.52002L3.24101 8.82431C1.34532 9.18945 0 10.8326 0 12.6583V23.1867C0 24.5864 1.16187 25.7427 2.56835 25.7427V41.4439C2.56835 42.8437 3.73022 44 5.13669 44H9.84532C11.2518 44 12.4137 42.8437 12.4137 41.4439V25.7427C13.8201 25.7427 14.982 24.5864 14.982 23.1867H15.0432Z" fill="#191F1F"/>
<path d="M33.9389 25.7428C33.9389 25.1951 34 24.6474 34 24.0388C34 23.4302 34 22.6999 33.8777 22.0305L30.759 20.0222C30.5144 18.9268 30.1475 17.8313 29.6583 16.8576L31.0036 13.5104C30.3309 12.415 29.536 11.3804 28.6799 10.4067L24.9496 10.6501C24.1547 9.9807 23.3597 9.43298 22.5036 8.94612L21.5252 5.29467C20.3022 4.80781 19.0791 4.3818 17.7338 4.07751L14.6763 6.57267C14.3705 6.57267 14.0036 6.57267 13.6978 6.57267C13.1475 6.57267 12.6583 6.57267 12.1079 6.63353L11.741 6.32924L11.313 7.12039L12.0468 7.30296C14.554 7.85068 16.3885 10.0416 16.3885 12.4759V13.3887C21.0971 14.7276 24.5827 18.9876 24.5827 24.0996C24.5827 29.2117 19.813 34.9931 13.8202 35.2366V41.2615C13.8202 41.3223 13.8202 41.444 13.8202 41.5049C14.1871 41.5049 14.4928 41.5049 14.8597 41.5049L18.0396 44.0609C19.2014 43.8175 20.3633 43.4523 21.4029 42.9655L22.3813 39.1923C23.3597 38.6446 24.277 37.9752 25.072 37.2449L28.9245 37.4883C29.7194 36.5754 30.3921 35.6017 31.0036 34.5671L29.6583 31.0983C30.1475 30.0637 30.5144 28.9074 30.759 27.7511L33.8166 25.8037L33.9389 25.7428Z" fill="#191F1F"/>
</g>
<defs>
<clipPath id="clip0_653_338">
<rect width="34" height="44" fill="white"/>
</clipPath>
</defs>
</svg>
