<svg width="72" height="59" viewBox="0 0 72 59" fill="none" xmlns="http://www.w3.org/2000/svg">
<g clip-path="url(#clip0_651_309)">
<path d="M68.9 6.90005H2.3C1.1 6.90005 0 7.90005 0 9.20005V56.5C0 57.7001 1 58.8 2.3 58.8H69C70.2 58.8 71.3 57.8 71.3 56.5V9.10005C71.3 7.90005 70.3 6.80005 69 6.80005L68.9 6.90005ZM66.6 52.9001C66.6 53.6001 66 54.2001 65.3 54.2001H5.8C5.1 54.2001 4.5 53.6001 4.5 52.9001V12.6C4.5 11.9 5.1 11.3 5.8 11.3H65.5C66.2 11.3 66.8 11.9 66.8 12.6V52.9001H66.6Z" fill="#6D7276"/>
<path d="M31.6 37.2999C30.6 36.2999 29.4 35.5999 28.1 35.1999C27.8 35.0999 27.5 34.8999 27.4 34.4999C27.3 34.1999 27.3 33.7999 27.4 33.4999C28.6 31.1999 29.3 28.5999 29.3 26.4999C29.3 21.8999 25.8 18.0999 21.5 18.1999C17.2 18.1999 13.8 21.9999 13.8 26.6999C13.8 28.7999 14.6 31.3999 15.7 33.5999C15.9 33.8999 15.9 34.2999 15.7 34.5999C15.6 34.8999 15.3 35.1999 15 35.2999C11.5 36.2999 8.90002 39.5999 8.90002 43.4999V44.1999C8.90002 45.8999 10.3 47.2999 12.1 47.2999H31C31.8 47.2999 32.7 46.9999 33.2 46.3999C33.8 45.7999 34.1 44.9999 34.1 44.0999V43.1999C34.1 40.9999 33.2 38.7999 31.6 37.2999Z" fill="#E18802"/>
<path d="M60 18.5H39.1C37.3 18.5 35.9 19.9 35.9 21.7C35.9 23.5 37.3 24.9 39.1 24.9H60C61.8 24.9 63.2 23.5 63.2 21.7C63.2 19.9 61.8 18.5 60 18.5Z" fill="#606367"/>
<path d="M60 29.6001H39.1C37.3 29.6001 35.9 31.0001 35.9 32.8001C35.9 34.6001 37.3 36.0001 39.1 36.0001H60C61.8 36.0001 63.2 34.6001 63.2 32.8001C63.2 31.0001 61.8 29.6001 60 29.6001Z" fill="#606367"/>
<path d="M60 40.6001H39.1C37.3 40.6001 35.9 42.0001 35.9 43.8001C35.9 45.6001 37.3 47.0001 39.1 47.0001H60C61.8 47.0001 63.2 45.6001 63.2 43.8001C63.2 42.0001 61.8 40.6001 60 40.6001Z" fill="#606367"/>
<path d="M69 0H2.3C1.1 0 0 1 0 2.3V3.7H71.2V2.3C71.2 1.1 70.2 0 68.9 0H69Z" fill="#6D7276"/>
</g>
<defs>
<clipPath id="clip0_651_309">
<rect width="71.3" height="58.7" fill="white"/>
</clipPath>
</defs>
</svg>
