<svg width="110" height="110" viewBox="0 0 110 110" fill="none" xmlns="http://www.w3.org/2000/svg">
<circle cx="55" cy="55" r="55" fill="#191F1F"/>
<g clip-path="url(#clip0_0_1)">
<path d="M48.3369 64.1681C53.03 59.708 53.03 54.6696 52.783 52.2743C64.7216 43.354 65.4626 31.708 65.3803 28.0737C65.3803 27.4956 64.8863 27 64.3099 27C60.6872 27 49.2425 27.7434 40.3503 39.7198C38.0449 39.3894 32.9401 39.3894 28.494 44.1799C28.1647 44.5929 28 45.1711 28.1647 45.6667C28.3294 46.1622 28.741 46.5752 29.3174 46.6578C31.1288 46.9882 33.5165 47.649 35.2455 48.8053C34.7515 49.8791 34.3398 50.9528 33.9282 52.1917C33.7635 52.7699 33.9282 53.3481 34.2575 53.7611C35.2455 54.7522 36.8099 56.3215 36.8099 56.3215L38.9506 58.469C39.3623 58.882 39.9387 59.0472 40.515 58.7994C41.6677 58.3864 42.8204 57.8909 43.8084 57.4779C44.9611 59.2124 45.6198 61.6077 45.9491 63.4248C46.0315 63.9204 46.4431 64.4159 46.9372 64.5811C47.4312 64.7463 48.0075 64.5811 48.4192 64.2507L48.3369 64.1681ZM43.8084 48.7227C41.9147 46.823 41.9147 43.767 43.8084 41.7847C45.7021 39.885 48.8309 39.885 50.7246 41.7847C52.6183 43.6844 52.6183 46.7404 50.7246 48.7227C48.8309 50.6224 45.7845 50.6224 43.8084 48.7227Z" fill="white"/>
<path d="M82.4236 59.6252C80.0359 49.8789 70.4026 44.345 61.3457 46.0795C60.6047 47.1533 59.699 48.227 58.7934 49.3007C61.5928 49.3007 67.4386 53.1828 65.2155 54.7521C63.5688 55.9084 61.4281 57.9733 61.4281 58.7993C61.4281 59.6252 61.6751 60.1208 60.9341 60.286C59.452 60.5338 55.7469 60.6164 56.5703 61.8553C57.476 63.0943 62.9101 61.3597 63.9805 64.9114C64.7215 67.3892 63.4041 69.9497 62.9101 71.8494C62.4161 73.7491 61.3457 77.5485 60.2754 77.6311C59.6167 77.6311 59.2874 77.3007 58.8757 76.3096C57.6407 72.5102 55.0883 70.5279 54.5119 69.3715C53.9356 68.2152 52.6182 65.1592 54.1826 63.4246C55.3353 62.1031 53.8532 61.8553 52.7829 61.1946C52.0419 62.5987 50.9715 64.0028 49.5718 65.4069C48.9955 65.9851 48.1721 66.3155 47.3487 66.3155C46.5254 66.3155 46.8547 66.3155 46.5254 66.2329C48.2544 78.5397 62.1691 89.1946 75.8368 78.7049C81.6002 74.2447 84.235 66.8937 82.4236 59.7078V59.6252ZM73.2844 58.1385C73.2844 58.1385 74.1901 57.0648 74.3547 55.2476C74.5194 53.7609 74.5194 52.6872 74.8487 51.7786C76.9071 53.5131 78.5538 55.7432 79.5419 58.3037C78.0598 58.3037 76.7425 57.7255 75.6721 58.2211C74.1077 58.8819 71.8023 60.1208 73.2844 58.2211V58.1385ZM64.1452 49.3833C63.1571 49.3833 62.2514 48.9704 61.5928 48.4748C62.5808 48.3096 63.6511 48.1444 64.7215 48.1444C66.2035 48.1444 67.6032 48.3922 69.0029 48.7226C67.4386 49.053 65.3802 49.3833 64.0628 49.3833H64.1452ZM75.6721 75.814C75.5074 75.0707 75.3428 74.3273 75.0957 73.7491C74.5194 71.932 73.202 70.5279 73.5314 69.6193C73.7784 68.7108 73.7784 67.8848 72.461 66.5633C71.1437 65.2418 70.5673 63.8376 71.8847 61.8553C73.202 59.9556 77.8951 59.7078 80.0359 59.9556C80.4475 61.3597 80.6122 62.7639 80.6122 64.3332C80.6122 68.876 78.6362 72.9232 75.5898 75.8966L75.6721 75.814Z" fill="white"/>
<path d="M38.7038 61.3601C38.0451 61.1949 37.4687 60.8646 36.9747 60.369L32.2816 55.661C32.1993 55.5784 32.1169 55.4132 32.0346 55.248C30.4702 58.0563 25.5301 69.1241 37.2217 76.2274C37.7157 76.4752 38.2921 76.3926 38.6214 75.9796C38.9508 75.5666 39.0331 74.9885 38.6214 74.4929C36.2337 71.4368 34.9163 67.0593 38.6214 61.2775L38.7038 61.3601Z" fill="white"/>
</g>
<defs>
<clipPath id="clip0_0_1">
<rect width="55" height="56" fill="white" transform="translate(28 27)"/>
</clipPath>
</defs>
</svg>

