<svg width="76" height="58" viewBox="0 0 76 58" fill="none" xmlns="http://www.w3.org/2000/svg">
<g clip-path="url(#clip0_651_316)">
<path d="M63.6 50.2999C64.9 50.2999 66.1 49.8 67.1 48.9C68 48 68.5 46.7 68.5 45.4V11.9C68.5 9.69995 67 7.79995 65 7.19995V41.9C65 44.6 62.8 46.7999 60.1 46.7999H7.3C7.5 47.5999 7.9 48.3 8.5 48.9C9.4 49.8 10.7 50.2999 12 50.2999H63.6Z" fill="#606367"/>
<path d="M32.7 9.3001C32.1 9.3001 31.5 9.1001 30.9 9.1001C24 9.1001 18.4 14.7001 18.4 21.6001C18.4 28.5001 24 34.1001 30.9 34.1001C37.8 34.1001 37.6 32.6001 39.9 30.3001C42.1 28.1001 43.4 25.0001 43.4 21.6001C43.4 15.3001 38.8 10.2001 32.7 9.3001ZM31.7 27.3001V29.2001H29.9V27.4001C28.7 27.4001 27.4 27.0001 26.7 26.6001L27.3 24.4001C28.1 24.8001 29.2 25.2001 30.4 25.2001C31.6 25.2001 32.2 24.8001 32.2 24.0001C32.2 23.2001 31.6 22.8001 30.2 22.4001C28.2 21.7001 26.9 20.8001 26.9 19.0001C26.9 17.2001 28.1 16.1001 30 15.7001V13.9001H31.8V15.5001C33 15.5001 33.9 15.8001 34.5 16.1001L34 18.2001C33.5 18.0001 32.7 17.6001 31.3 17.6001C29.9 17.6001 29.7 18.1001 29.7 18.6001C29.7 19.1001 30.3 19.6001 31.9 20.2001C34.1 21.0001 35 22.0001 35 23.7001C35 25.4001 33.8 26.8001 31.7 27.1001V27.3001Z" fill="#E18802"/>
<path d="M56.6 43.3C57.9 43.3 59.1 42.8 60.1 41.9C61 41 61.5 39.7 61.5 38.4V4.9C61.5 2.2 59.3 0 56.6 0H4.9C2.2 0 0 2.2 0 4.9V38.4C0 39.7 0.5 41 1.4 41.9C2.3 42.8 3.6 43.3 4.9 43.3H56.5H56.6ZM55.4 29.6C51.9 31 49 33.7 47.4 37.1H14.1C12.5 33.7 9.7 31 6.1 29.6V13.7C9.6 12.3 12.5 9.6 14.1 6.1H47.4C49 9.5 51.8 12.3 55.4 13.7V29.6Z" fill="#606367"/>
<path d="M72 14.5V49.2C72 51.9 69.8 54.1 67.1 54.1H14.3C14.5 54.9 14.9 55.6 15.5 56.2C16.4 57.1 17.7 57.6 19 57.6H70.6C71.9 57.6 73.2 57.1 74.1 56.2C75 55.3 75.5 54 75.5 52.7V19.2C75.5 17 74 15.1 72 14.5Z" fill="#606367"/>
</g>
<defs>
<clipPath id="clip0_651_316">
<rect width="75.5" height="57.6" fill="white"/>
</clipPath>
</defs>
</svg>
