<svg width="67" height="33" viewBox="0 0 67 33" fill="none" xmlns="http://www.w3.org/2000/svg">
<path d="M65.8369 7.7551L60.3727 0.489796C60.128 0.163265 59.8018 0 59.394 0C58.9862 0 58.66 0.163265 58.4153 0.489796L52.788 7.7551C52.6249 7.91837 52.6249 8.2449 52.788 8.4898C52.8695 8.73469 53.1142 8.89796 53.3589 8.89796H55.5609V31.102C55.5609 31.5918 55.9687 32.0816 56.5396 32.0816H62.2485C62.7378 32.0816 63.2271 31.6735 63.2271 31.102V8.81633H65.4291C65.6738 8.81633 65.9185 8.65306 66 8.40816C66.0816 8.16327 66.0816 7.91837 66 7.67347L65.8369 7.7551Z" fill="#191F1F"/>
<path d="M46.5081 13.7959H52.217C52.7064 13.7959 53.1957 14.2041 53.1957 14.7755V31.102C53.1957 31.5918 52.7879 32.0816 52.217 32.0816H46.5081C46.0188 32.0816 45.611 31.6735 45.611 31.1837V14.8571C45.611 14.3673 46.0188 13.8775 46.5897 13.8775L46.5081 13.7959Z" fill="#191F1F"/>
<path d="M37.0477 22.0408H42.7566C43.2459 22.0408 43.7353 22.4489 43.7353 23.0204V31.102C43.7353 31.5918 43.3275 32.0816 42.7566 32.0816H37.0477C36.5584 32.0816 36.069 31.6734 36.069 31.102V23.0204C36.069 22.5306 36.4768 22.1224 36.9661 22.1224L37.0477 22.0408Z" fill="#191F1F"/>
<path d="M15.9247 23.0612C14.212 23.0612 12.8256 21.9183 12.3363 20.2856H1V28.5305C1 30.7346 2.79423 32.6122 5.07779 32.6122H26.9348C29.1368 32.6122 31.0125 30.8163 31.0125 28.5305V20.2856H19.5947C19.187 21.8367 17.7189 23.0612 16.0063 23.0612H15.9247Z" fill="#191F1F"/>
<path d="M26.8532 8.73469H23.9172V7.10204C23.9172 5.38776 22.5308 4 20.8181 4H11.0314C9.31871 4 7.93226 5.38776 7.93226 7.10204V8.73469H4.99625C2.79424 8.73469 0.918457 10.5306 0.918457 12.8163V17.7143H12.3363C12.7441 16.1633 14.2121 14.9388 15.9247 14.9388C17.6374 14.9388 19.0239 16.0816 19.5132 17.7143H30.931V12.8163C30.931 10.6122 29.1368 8.73469 26.8532 8.73469ZM10.7867 7.10204C10.7867 6.93878 10.8683 6.85714 11.0314 6.85714H20.8181C20.9812 6.85714 21.0627 6.93878 21.0627 7.10204V8.73469H10.7052V7.10204H10.7867Z" fill="#191F1F"/>
<path d="M18.2083 19.0001C18.2083 17.7756 17.2296 16.7144 15.9247 16.7144C14.6198 16.7144 13.6412 17.6939 13.6412 19.0001C13.6412 20.3062 14.6198 21.2858 15.9247 21.2858C17.2296 21.2858 18.2083 20.3062 18.2083 19.0001Z" fill="#191F1F"/>
</svg>
