<svg width="20" height="20" viewBox="0 0 20 20" fill="none" xmlns="http://www.w3.org/2000/svg">
<path fill-rule="evenodd" clip-rule="evenodd" d="M17.3808 1.23754L19.8808 5.40421C19.9588 5.5338 20 5.68216 20 5.83337C20.0018 6.47754 19.8165 7.10837 19.4666 7.64925C19.1167 8.19014 18.6174 8.61781 18.0291 8.88034C17.4409 9.14287 16.7891 9.22897 16.1528 9.12817C15.5166 9.02738 14.9233 8.74403 14.445 8.31254C13.8357 8.86416 13.0432 9.16963 12.2213 9.16963C11.3994 9.16963 10.6068 8.86416 9.9975 8.31254C9.38847 8.86299 8.59677 9.16775 7.77584 9.16775C6.95491 9.16775 6.16321 8.86299 5.55417 8.31254C4.94336 8.8643 4.14896 9.16881 3.32584 9.16671H3.31917C2.4371 9.1645 1.59199 8.81215 0.969597 8.1871C0.347204 7.56205 -0.00154397 6.71545 5.13874e-06 5.83337C5.29978e-05 5.68216 0.0412467 5.5338 0.119172 5.40421L2.61917 1.23754C2.69323 1.11428 2.79791 1.01228 2.92306 0.941459C3.0482 0.870637 3.18954 0.833401 3.33334 0.833374H16.6667C16.8105 0.833401 16.9518 0.870637 17.077 0.941459C17.2021 1.01228 17.3068 1.11428 17.3808 1.23754ZM14.4475 10.31C15.1412 10.6548 15.9054 10.834 16.68 10.8334C16.955 10.8297 17.2293 10.8035 17.5 10.755V19.1667C17.5 19.3877 17.4122 19.5997 17.2559 19.756C17.0996 19.9122 16.8877 20 16.6667 20H11.6667V15H8.33333V20H3.33333C3.11232 20 2.90036 19.9122 2.74408 19.756C2.5878 19.5997 2.5 19.3877 2.5 19.1667V10.7584C2.7728 10.8056 3.04898 10.8307 3.32583 10.8334C4.09892 10.8347 4.86174 10.6564 5.55417 10.3125C5.75887 10.4139 5.97018 10.5013 6.18667 10.5742C6.80604 10.7848 7.46101 10.8704 8.1137 10.8262C8.76639 10.782 9.40384 10.6088 9.98917 10.3167L9.99833 10.3125C10.2033 10.4139 10.4149 10.5013 10.6317 10.5742C11.2513 10.7843 11.9064 10.8696 12.5592 10.8253C13.2119 10.781 13.8495 10.6078 14.435 10.3159L14.4475 10.31Z" fill="#F27405"/>
</svg>
