<svg width="110" height="110" viewBox="0 0 110 110" fill="none" xmlns="http://www.w3.org/2000/svg">
<circle cx="55" cy="55" r="55" fill="#191F1F"/>
<path d="M90.7621 46.2246L84.9671 38.5194C84.7076 38.1731 84.3616 38 83.9291 38C83.4967 38 83.1507 38.1731 82.8912 38.5194L76.9232 46.2246C76.7502 46.3977 76.7502 46.744 76.9232 47.0038C77.0097 47.2635 77.2692 47.4366 77.5286 47.4366H79.864V70.985C79.864 71.5044 80.2964 72.0239 80.9019 72.0239H86.9564C87.4754 72.0239 87.9943 71.591 87.9943 70.985V47.3501H90.3296C90.5891 47.3501 90.8486 47.1769 90.9351 46.9172C91.0216 46.6575 91.0216 46.3977 90.9351 46.138L90.7621 46.2246Z" fill="white"/>
<path d="M70.2634 52.6309H76.318C76.8369 52.6309 77.3559 53.0637 77.3559 53.6698V70.9847C77.3559 71.5041 76.9234 72.0236 76.318 72.0236H70.2634C69.7445 72.0236 69.312 71.5907 69.312 71.0713V53.7563C69.312 53.2369 69.7445 52.7174 70.3499 52.7174L70.2634 52.6309Z" fill="white"/>
<path d="M60.2298 61.375H66.2843C66.8033 61.375 67.3223 61.8079 67.3223 62.4139V70.9848C67.3223 71.5042 66.8898 72.0237 66.2843 72.0237H60.2298C59.7109 72.0237 59.1919 71.5908 59.1919 70.9848V62.4139C59.1919 61.8944 59.6244 61.4616 60.1433 61.4616L60.2298 61.375Z" fill="white"/>
<path d="M49.5185 46.203H46.4048V44.4715C46.4048 42.6534 44.9344 41.1816 43.118 41.1816H32.7388C30.9225 41.1816 29.4521 42.6534 29.4521 44.4715V46.203H26.3383C24.003 46.203 22.0137 48.1076 22.0137 50.5317V55.7262H34.1227C34.5552 54.0813 36.1121 52.7826 37.9284 52.7826C39.7448 52.7826 41.2152 53.9947 41.7341 55.7262H53.8432V50.5317C53.8432 48.1942 51.9403 46.203 49.5185 46.203ZM32.4794 44.4715C32.4794 44.2983 32.5658 44.2118 32.7388 44.2118H43.118C43.291 44.2118 43.3775 44.2983 43.3775 44.4715V46.203H32.3929V44.4715H32.4794Z" fill="white"/>
<path d="M40.2504 58.1507C40.2504 56.852 39.2124 55.7266 37.8285 55.7266C36.4447 55.7266 35.4067 56.7655 35.4067 58.1507C35.4067 59.5358 36.4447 60.5747 37.8285 60.5747C39.2124 60.5747 40.2504 59.5358 40.2504 58.1507Z" fill="white"/>
<path d="M37.8283 62.4572C36.0119 62.4572 34.5415 61.2452 34.0226 59.5137H22V68.2577C22 70.5952 23.9029 72.5864 26.3247 72.5864H49.5048C51.8402 72.5864 53.8295 70.6818 53.8295 68.2577V59.5137H41.7205C41.288 61.1586 39.7311 62.4572 37.9148 62.4572H37.8283Z" fill="white"/>
</svg>

