<svg width="51" height="52" viewBox="0 0 51 52" fill="none" xmlns="http://www.w3.org/2000/svg">
<g clip-path="url(#clip0_495_530)">
<path d="M50.637 29.6103C52.8623 15.6976 43.4039 2.61266 29.5112 0.384217C15.6185 -1.84423 2.55228 7.6277 0.32703 21.5404C-1.89822 35.453 7.56013 48.538 21.4529 50.7664C35.3456 52.9949 48.4118 43.5229 50.637 29.6103Z" fill="#F29829"/>
<mask id="mask0_495_530" style="mask-type:luminance" maskUnits="userSpaceOnUse" x="0" y="0" width="51" height="52">
<path d="M50.637 29.6103C52.8623 15.6976 43.4039 2.61266 29.5112 0.384217C15.6185 -1.84423 2.55228 7.62769 0.32703 21.5404C-1.89822 35.453 7.56013 48.538 21.4529 50.7664C35.3456 52.9949 48.4118 43.5229 50.637 29.6103Z" fill="white"/>
</mask>
<g mask="url(#mask0_495_530)">
<path d="M13.8336 23.9512C13.6875 24.1463 13.2491 41.9024 16.3666 45.5609H33.9998C33.9998 45.5609 38.8222 31.9512 35.5586 23.9512H13.7362" fill="#460209"/>
<path d="M30.6386 33.707H20.8965V40.2924H30.6386V33.707Z" fill="#FBBCA0"/>
<g style="mix-blend-mode:multiply">
<path d="M23.2834 38.4876C24.7447 39.0729 26.3522 39.4144 27.9596 39.4632C28.8851 39.4632 29.8106 39.3656 30.6874 39.2193V33.7559H20.9453V37.1705C21.6273 37.7559 22.5041 38.1949 23.3321 38.5363L23.2834 38.4876Z" fill="#E6E7E8"/>
</g>
<path d="M36.3375 21.3164C36.3375 21.0725 36.7759 20.6822 36.9707 20.5359C37.3604 20.2432 37.7988 20.5359 37.8962 20.9261C37.9936 21.2676 37.9936 21.6578 38.0423 21.9993C38.091 22.8774 37.9936 23.7554 37.5552 24.5359C37.3117 25.0725 36.8733 25.5115 36.3862 25.8042C36.3862 25.8042 35.8504 26.0481 35.7529 25.4627L36.3375 21.2676V21.3164Z" fill="#FBBCA0"/>
<path d="M36.2403 21.8534C36.2403 21.6583 36.5812 21.4144 36.6787 21.3168C36.9709 21.1217 37.2632 21.3168 37.3606 21.6095C37.458 21.8534 37.458 22.1461 37.458 22.39C37.458 23.0241 37.4093 23.6095 37.1171 24.1949C36.9222 24.5851 36.63 24.8778 36.289 25.1217C36.289 25.1217 35.8993 25.3168 35.8506 24.8778L36.2403 21.9022V21.8534Z" fill="#DDA78F"/>
<path d="M14.9536 21.3164C14.9536 21.0725 14.5152 20.6822 14.3203 20.5359C13.9307 20.2432 13.4923 20.5359 13.3948 20.9261C13.2974 21.2676 13.2974 21.6578 13.2487 21.9993C13.2 22.8774 13.2974 23.7554 13.7358 24.5359C13.9794 25.0725 14.4178 25.5115 14.9049 25.8042C14.9049 25.8042 15.4407 26.0481 15.5381 25.4627L14.9536 21.2676V21.3164Z" fill="#FBBCA0"/>
<path d="M15.0508 21.8534C15.0508 21.6583 14.7098 21.4144 14.6124 21.3168C14.3201 21.1217 14.0279 21.3168 13.9304 21.6095C13.833 21.8534 13.833 22.1461 13.833 22.39C13.833 23.0241 13.8817 23.6095 14.174 24.1949C14.3688 24.5851 14.6611 24.8778 15.0021 25.1217C15.0021 25.1217 15.3917 25.3168 15.4405 24.8778L15.0508 21.9022V21.8534Z" fill="#DDA78F"/>
<path d="M36.6789 22.0971C36.6789 24.8776 36.1918 27.6581 34.9253 30.0484C33.805 32.1459 32.1001 33.8045 30.2491 35.1215C28.7878 36.1947 27.1803 37.463 25.2806 37.3166C23.3322 37.1703 21.7735 35.463 20.3609 34.1947C18.3637 32.341 16.7563 30.0971 15.7821 27.4142C15.1975 25.7557 14.9053 23.902 14.9053 22.0971C14.9053 13.1703 19.7763 7.56055 25.8164 7.56055C31.8566 7.56055 36.7276 13.1703 36.7276 22.0971H36.6789Z" fill="#FBBCA0"/>
<path d="M40.624 43.2674L30.0051 40.0967H21.4807L10.8618 43.2674C10.8618 43.2674 5.94207 45.365 5.40625 51.9991H46.0309C45.4951 45.365 40.5753 43.2674 40.5753 43.2674H40.624Z" fill="#FBBCA0"/>
<path d="M40.6241 43.2678L34.7789 41.5117L25.7674 50.4873L16.7559 41.5117L10.9107 43.2678C10.9107 43.2678 5.99089 45.3654 5.45508 51.9995H46.0797C45.5439 45.3654 40.6241 43.2678 40.6241 43.2678Z" fill="#056F8C"/>
<path d="M18.3633 11.1217C18.3633 11.1217 23.624 19.4632 36.6298 20.8778C36.6298 20.8778 39.114 11.4144 29.9564 6.78024C29.9564 6.78024 22.9421 3.90219 18.412 11.1217H18.3633Z" fill="#6B1D24"/>
<path d="M19.727 12.7806C19.727 12.7806 16.3173 14.9757 14.856 21.0733C14.856 21.0733 13.2972 9.56107 21.4319 8.09766L19.727 12.7806Z" fill="#3C2415"/>
<path d="M33.0253 19.9024C33.0253 19.9024 36.5325 42.1463 30.9795 48.439C30.9795 48.439 38.0425 47.4146 38.3835 37.6585C38.3835 37.6585 39.65 17.8049 34.8763 10.9756L33.0253 19.9024Z" fill="#6B1D24"/>
<path d="M18.1204 48.4383C18.1204 48.4383 9.98569 47.4627 12.2264 22.4871C12.2264 22.4871 12.7622 8.58468 20.8969 8.29199L20.4098 13.5603C20.4098 13.5603 15.7335 14.9749 16.3668 25.9505C16.3668 25.9505 15.8797 43.6578 18.1204 48.4871V48.4383Z" fill="#6B1D24"/>
</g>
</g>
<defs>
<clipPath id="clip0_495_530">
<rect width="51" height="52" fill="white"/>
</clipPath>
</defs>
</svg>
