<svg width="144" height="146" viewBox="0 0 144 146" fill="none" xmlns="http://www.w3.org/2000/svg">
<path d="M142.976 83.138C149.259 44.0755 122.553 7.33703 83.3263 1.08023C44.0997 -5.17656 7.20694 21.4177 0.923869 60.4801C-5.3592 99.5426 21.3467 136.281 60.5733 142.538C99.7998 148.795 136.693 122.2 142.976 83.138Z" fill="#F29829"/>
<mask id="mask0_445_553" style="mask-type:luminance" maskUnits="userSpaceOnUse" x="0" y="0" width="144" height="144">
<path d="M142.976 83.138C149.259 44.0755 122.553 7.33703 83.3263 1.08023C44.0997 -5.17656 7.20694 21.4177 0.923869 60.4801C-5.3592 99.5426 21.3467 136.281 60.5733 142.538C99.7998 148.795 136.693 122.2 142.976 83.138Z" fill="white"/>
</mask>
<g mask="url(#mask0_445_553)">
<path d="M39.0604 67.248C38.6478 67.7959 37.41 117.65 46.2123 127.922H96.0002C96.0002 127.922 109.616 89.7096 100.401 67.248H38.7853" fill="#460209"/>
<path d="M86.5101 94.6396H59.0029V113.129H86.5101V94.6396Z" fill="#FBBCA0"/>
<g style="mix-blend-mode:multiply">
<path d="M65.7423 108.062C69.8684 109.705 74.4071 110.664 78.9458 110.801C81.559 110.801 84.1721 110.527 86.6478 110.116V94.7764H59.1406V104.364C61.0661 106.007 63.5418 107.24 65.8799 108.199L65.7423 108.062Z" fill="#E6E7E8"/>
</g>
<path d="M102.602 59.8514C102.602 59.1666 103.84 58.0709 104.39 57.66C105.49 56.8382 106.728 57.66 107.003 58.7557C107.278 59.7144 107.278 60.8101 107.416 61.7688C107.553 64.2341 107.278 66.6994 106.04 68.8908C105.353 70.3973 104.115 71.63 102.739 72.4518C102.739 72.4518 101.226 73.1366 100.951 71.493L102.602 59.7144V59.8514Z" fill="#FBBCA0"/>
<path d="M102.327 61.3579C102.327 60.8101 103.29 60.1253 103.565 59.8514C104.39 59.3035 105.215 59.8514 105.49 60.6731C105.765 61.3579 105.765 62.1797 105.765 62.8645C105.765 64.645 105.628 66.2885 104.802 67.9321C104.252 69.0277 103.427 69.8495 102.464 70.5343C102.464 70.5343 101.364 71.0822 101.227 69.8495L102.327 61.4949V61.3579Z" fill="#DDA78F"/>
<path d="M42.2236 59.8514C42.2236 59.1666 40.9858 58.0709 40.4357 57.66C39.3354 56.8382 38.0975 57.66 37.8225 58.7557C37.5474 59.7144 37.5474 60.8101 37.4099 61.7688C37.2723 64.2341 37.5474 66.6994 38.7852 68.8908C39.4729 70.3973 40.7107 71.63 42.0861 72.4518C42.0861 72.4518 43.599 73.1366 43.8741 71.493L42.2236 59.7144V59.8514Z" fill="#FBBCA0"/>
<path d="M42.4987 61.3579C42.4987 60.8101 41.5359 60.1253 41.2609 59.8514C40.4357 59.3035 39.6104 59.8514 39.3354 60.6731C39.0603 61.3579 39.0603 62.1797 39.0603 62.8645C39.0603 64.645 39.1978 66.2885 40.0231 67.9321C40.5732 69.0277 41.3984 69.8495 42.3612 70.5343C42.3612 70.5343 43.4615 71.0822 43.599 69.8495L42.4987 61.4949V61.3579Z" fill="#DDA78F"/>
<path d="M103.565 62.0428C103.565 69.8495 102.189 77.6563 98.6134 84.3674C95.4501 90.2567 90.6363 94.9133 85.41 98.6113C81.2839 101.624 76.7452 105.185 71.3813 104.774C65.8799 104.364 61.4787 99.57 57.4902 96.009C51.8512 90.8045 47.3125 84.5043 44.5618 76.9715C42.9114 72.3148 42.0862 67.1103 42.0862 62.0428C42.0862 36.979 55.8398 21.2285 72.8942 21.2285C89.9487 21.2285 103.702 36.979 103.702 62.0428H103.565Z" fill="#FBBCA0"/>
<path d="M114.705 121.483L84.7222 112.581H60.6534L30.6706 121.483C30.6706 121.483 16.7795 127.373 15.2666 145.999H129.971C128.459 127.373 114.567 121.483 114.567 121.483H114.705Z" fill="#FBBCA0"/>
<path d="M114.705 121.483L98.2006 116.553L72.7565 141.753L47.3124 116.553L30.8081 121.483C30.8081 121.483 16.9169 127.373 15.4041 145.999H130.109C128.596 127.373 114.705 121.483 114.705 121.483Z" fill="#056F8C"/>
<path d="M51.8511 31.2269C51.8511 31.2269 66.7049 54.6472 103.427 58.6191C103.427 58.6191 110.441 32.0487 84.5846 19.0375C84.5846 19.0375 64.7794 10.9568 51.9886 31.2269H51.8511Z" fill="#6B1D24"/>
<path d="M55.7023 35.8836C55.7023 35.8836 46.0747 42.0468 41.9487 59.1669C41.9487 59.1669 37.5475 26.8442 60.516 22.7354L55.7023 35.8836Z" fill="#3C2415"/>
<path d="M93.2494 55.8802C93.2494 55.8802 103.152 118.334 87.4729 136.002C87.4729 136.002 107.416 133.126 108.378 105.734C108.378 105.734 111.954 49.9909 98.4758 30.8164L93.2494 55.8802Z" fill="#6B1D24"/>
<path d="M51.1635 136.002C51.1635 136.002 28.195 133.263 34.5216 63.1387C34.5216 63.1387 36.0345 24.105 59.003 23.2832L57.6276 38.0749C57.6276 38.0749 44.4242 42.0468 46.2122 72.8629C46.2122 72.8629 44.8368 122.58 51.1635 136.139V136.002Z" fill="#6B1D24"/>
</g>
</svg>
