<svg width="1080" height="1124" viewBox="0 0 1080 1124" fill="none" xmlns="http://www.w3.org/2000/svg">
<g style="mix-blend-mode:multiply" opacity="0.3">
<path d="M380.371 1024.69C382.803 1024.69 384.774 1024.25 384.774 1023.71C384.774 1023.17 382.803 1022.73 380.371 1022.73C377.94 1022.73 375.968 1023.17 375.968 1023.71C375.968 1024.25 377.94 1024.69 380.371 1024.69Z" fill="#5BBA47"/>
</g>
<g style="mix-blend-mode:multiply" opacity="0.3">
<path d="M387.957 1022.97C387.957 1023.46 389.424 1023.71 391.137 1023.71C392.849 1023.71 394.317 1023.46 394.317 1022.97C394.317 1022.48 392.849 1022.24 391.137 1022.24C389.424 1022.24 387.957 1022.48 387.957 1022.97Z" fill="#5BBA47"/>
</g>
<g style="mix-blend-mode:multiply" opacity="0.3">
<path d="M528.365 961.088C546.712 966.959 562.611 968.427 563.835 964.513C565.058 960.599 551.359 952.527 533.013 946.656" fill="#231F20"/>
</g>
<g style="mix-blend-mode:multiply" opacity="0.3">
<path d="M374.261 951.548C374.261 953.505 381.844 955.218 391.384 955.218C400.924 955.218 408.507 953.505 408.507 951.548C408.507 949.591 400.924 947.879 391.384 947.879C381.844 947.879 374.261 949.591 374.261 951.548Z" fill="#231F20"/>
</g>
<path d="M986.039 926.597C986.039 931.978 1001.94 936.137 1021.51 936.137C1041.08 936.137 1056.98 931.733 1056.98 926.597C1056.98 921.46 1041.08 917.057 1021.51 917.057C1001.94 917.057 986.039 921.46 986.039 926.597Z" fill="#5BBA47" fill-opacity="0.74"/>
<path d="M92.1172 949.925C92.1172 954.328 105.326 957.997 121.96 957.997C138.594 957.997 151.803 954.328 151.803 949.925C151.803 945.522 138.594 941.853 121.96 941.853C105.326 941.853 92.1172 945.522 92.1172 949.925Z" fill="#5BBA47" fill-opacity="0.8"/>
<path d="M810.411 926.598C810.411 928.311 815.792 929.778 822.152 929.778C828.512 929.778 834.138 928.311 834.138 926.598C834.138 924.886 828.757 923.418 822.152 923.418C815.548 923.418 810.411 924.886 810.411 926.598Z" fill="#5BBA47"/>
<path d="M951.55 805.026C985.324 805.026 1012.7 797.579 1012.7 788.392C1012.7 779.205 985.324 771.758 951.55 771.758C917.776 771.758 890.396 779.205 890.396 788.392C890.396 797.579 917.776 805.026 951.55 805.026Z" fill="#5BBA47"/>
<path d="M220.396 809.917C254.17 809.917 281.549 802.47 281.549 793.283C281.549 784.097 254.17 776.649 220.396 776.649C186.621 776.649 159.242 784.097 159.242 793.283C159.242 802.47 186.621 809.917 220.396 809.917Z" fill="#5BBA47"/>
<path d="M1030.8 641.623H989.951V550.626C983.102 549.892 976.253 549.158 969.404 548.669C962.554 548.18 955.705 547.935 948.856 547.935C942.007 547.935 936.136 548.18 930.021 548.669C923.906 549.158 917.79 549.892 911.186 550.626V641.623H829.974L946.899 404.102C936.381 395.785 925.129 389.67 913.142 385.756C901.156 381.842 888.926 379.152 875.961 377.439C877.673 379.886 878.652 382.576 879.386 385.512C880.853 392.361 878.652 399.21 874.004 404.102C879.63 406.793 884.278 411.93 885.746 418.535C887.947 429.298 881.587 439.816 871.069 442.751C871.069 443.485 871.558 443.974 871.558 444.708C874.004 455.716 866.91 466.724 855.658 469.17C851.989 469.904 848.32 469.659 844.895 468.436C844.406 477.487 838.046 485.559 828.751 487.516C826.304 488.005 824.103 488.005 821.657 487.76L715.494 702.531L720.631 710.604H911.43V790.103C918.279 790.837 925.129 791.571 931.978 792.06C938.827 792.549 945.676 792.794 952.525 792.794C959.375 792.794 965.245 792.549 971.361 792.06C977.476 791.571 983.591 790.837 990.196 790.103V710.604H1031.05C1032.27 705.222 1033 699.596 1033.49 693.481C1033.98 687.365 1034.23 681.495 1034.23 675.868C1034.23 664.127 1033 652.875 1030.8 641.867V641.623Z" fill="#5BBA47"/>
<path d="M302.098 645.535H261.248V554.538C254.399 553.804 247.549 553.071 240.7 552.581C233.851 552.092 227.002 551.848 220.153 551.848C213.303 551.848 207.433 552.092 201.317 552.581C195.202 553.071 189.087 553.804 182.482 554.538V645.535H101.27L218.196 408.015C207.677 399.698 196.425 393.582 184.439 389.668C172.453 385.755 160.222 383.064 147.258 381.352L0 679.536C1.7123 680.025 3.17998 680.759 4.89228 681.493C13.4538 686.141 18.5907 694.458 19.3245 703.508C27.1522 699.839 36.4475 699.839 44.5197 704.242C48.9228 706.688 52.3474 710.113 54.7935 714.271H182.482V793.771C189.331 794.505 196.18 795.238 203.03 795.728C209.879 796.217 216.728 796.462 223.577 796.462C230.426 796.462 236.297 796.217 242.412 795.728C248.528 795.238 254.643 794.505 261.248 793.771V714.271H302.098C303.321 708.89 304.055 703.264 304.544 697.148C305.034 691.033 305.278 685.162 305.278 679.536C305.278 667.795 304.055 656.542 301.854 645.535H302.098Z" fill="#5BBA47"/>
<path d="M1033.25 693.235C1033.74 687.119 1033.99 681.249 1033.99 675.623C1033.99 669.997 1033.74 663.392 1033.01 657.521C991.912 646.514 951.306 636.974 911.19 628.901V641.621H829.978L842.453 616.181C815.79 611.778 789.617 608.109 763.443 604.929L715.254 702.53L720.391 710.602H911.19V790.102C918.039 790.836 924.888 791.57 931.737 792.059C938.586 792.548 945.436 792.793 952.285 792.793C959.134 792.793 965.005 792.548 971.12 792.059C977.236 791.57 983.351 790.836 989.955 790.102V710.602H1030.81C1032.03 705.221 1032.76 699.595 1033.25 693.479V693.235Z" fill="#549344"/>
<path d="M203.274 795.73C210.123 796.219 216.972 796.463 223.821 796.463C230.67 796.463 236.541 796.219 242.656 795.73C248.772 795.24 254.887 794.507 261.492 793.773V714.273H302.342C303.565 708.892 304.299 703.266 304.788 697.15C305.278 691.035 305.522 685.164 305.522 679.538C305.522 667.796 304.299 656.544 302.098 645.537H261.247V603.708C233.85 606.888 207.677 610.557 182.971 614.226V645.537H101.759L111.054 626.457C75.3405 633.306 43.5406 640.155 16.3885 646.76L0.243958 679.538C1.95626 680.027 3.42394 680.761 5.13624 681.495C13.6977 686.143 18.8346 694.459 19.5685 703.51C27.3961 699.841 36.6914 699.841 44.7637 704.244C49.1668 706.69 52.5913 710.115 55.0375 714.273H182.726V793.773C189.575 794.507 196.424 795.24 203.274 795.73Z" fill="#549344"/>
<path d="M924.152 960.599C927.087 955.951 930.512 951.792 934.67 947.879C939.807 943.476 932.224 935.892 927.332 940.54C922.44 944.699 918.526 949.835 915.101 955.217C911.677 961.088 920.727 966.225 924.152 960.599Z" fill="#0C8040"/>
<path d="M909.964 959.13C911.676 948.611 907.028 938.093 896.999 933.445C890.884 930.51 885.502 939.56 891.617 942.496C896.754 944.942 900.668 950.323 899.69 956.439C898.711 963.043 908.74 965.979 909.964 959.13Z" fill="#0C8040"/>
<path d="M264.915 1009.03C267.851 1004.38 271.275 1000.23 275.434 996.313C280.57 991.91 272.987 984.327 268.095 988.974C263.203 993.133 259.289 998.27 255.864 1003.65C252.44 1009.52 261.491 1014.66 264.915 1009.03Z" fill="#009B48"/>
<path d="M250.727 1007.56C252.439 997.045 247.791 986.527 237.762 981.879C231.647 978.944 226.265 987.994 232.381 990.93C237.518 993.376 241.431 998.757 240.453 1004.87C239.474 1011.48 249.504 1014.41 250.727 1007.56Z" fill="#009B48"/>
<path d="M735.312 868.868C738.247 864.22 741.672 860.061 745.83 856.148C750.967 851.745 743.384 844.162 738.492 848.809C733.6 852.968 729.686 858.105 726.261 863.486C722.837 869.357 731.887 874.494 735.312 868.868Z" fill="#0C8040"/>
<path d="M720.876 867.647C722.588 857.129 717.941 846.611 707.912 841.963C701.796 839.027 696.415 848.078 702.53 851.014C707.667 853.46 711.581 858.841 710.602 864.957C709.624 871.561 719.653 874.497 720.876 867.647Z" fill="#0C8040"/>
<path d="M735.068 998.513C742.896 1004.38 746.81 1013.43 746.81 1022.97C746.81 1028.11 754.637 1028.11 754.637 1022.97C754.637 1010.25 749.011 999.247 738.982 991.664C734.824 988.484 730.91 995.578 735.068 998.513Z" fill="#0C8040"/>
<path d="M770.048 1022.24C769.559 1005.12 769.314 987.995 769.559 971.117C769.559 965.98 761.731 965.98 761.731 971.117C761.486 988.24 761.731 1005.36 762.22 1022.24C762.22 1027.38 770.292 1027.38 770.048 1022.24Z" fill="#0C8040"/>
<path d="M781.544 1024.69C782.522 1019.55 784.723 1015.15 788.637 1011.48C792.307 1007.81 786.68 1002.43 783.011 1005.85C778.364 1010.26 775.184 1016.13 773.96 1022.49C772.982 1027.38 780.565 1029.58 781.544 1024.69Z" fill="#0C8040"/>
<path d="M794.021 1028.11C796.467 1025.91 798.668 1023.95 801.115 1021.75C802.827 1020.28 802.582 1017.59 801.115 1016.12C799.402 1014.41 797.201 1014.66 795.488 1016.12C793.042 1018.33 790.841 1020.28 788.395 1022.48C786.682 1023.95 786.927 1026.64 788.395 1028.11C790.107 1029.82 792.308 1029.58 794.021 1028.11Z" fill="#0C8040"/>
<path d="M291.091 881.832C298.919 887.703 302.832 896.753 302.832 906.293C302.832 911.43 310.66 911.43 310.66 906.293C310.66 893.573 305.034 882.566 295.005 874.983C290.846 871.803 286.933 878.896 291.091 881.832Z" fill="#0C8040"/>
<path d="M326.07 905.561C325.581 888.438 325.336 871.315 325.581 854.437C325.581 849.3 317.753 849.3 317.753 854.437C317.509 871.56 317.753 888.683 318.243 905.561C318.243 910.698 326.315 910.698 326.07 905.561Z" fill="#0C8040"/>
<path d="M337.322 908.25C338.301 903.113 340.502 898.71 344.416 895.041C348.085 891.372 342.459 885.99 338.79 889.415C334.142 893.818 330.962 899.689 329.739 906.049C328.761 910.941 336.344 913.142 337.322 908.25Z" fill="#0C8040"/>
<path d="M349.796 911.431C352.242 909.229 354.444 907.272 356.89 905.071C358.602 903.603 358.358 900.912 356.89 899.445C355.178 897.732 352.976 897.977 351.264 899.445C348.818 901.646 346.616 903.603 344.17 905.805C342.458 907.272 342.702 909.963 344.17 911.431C345.882 913.143 348.084 912.898 349.796 911.431Z" fill="#0C8040"/>
<path d="M38.6487 811.384C42.8072 814.564 45.0087 819.456 45.0087 824.837C45.0087 827.528 49.4117 827.528 49.4117 824.837C49.4117 817.988 46.2318 811.873 40.8502 807.714C38.6487 806.002 36.4472 809.671 38.6487 811.384Z" fill="#0C8040"/>
<path d="M57.73 824.347C57.4853 815.052 57.4853 805.757 57.73 796.461C57.73 793.771 53.3269 793.771 53.3269 796.461C53.3269 805.757 53.3269 815.052 53.3269 824.347C53.3269 827.038 57.73 827.038 57.73 824.347Z" fill="#0C8040"/>
<path d="M64.0885 825.816C64.5777 823.125 65.8008 820.679 68.0023 818.722C69.9592 816.765 67.0239 813.83 64.8223 815.542C62.3762 817.988 60.4193 821.168 59.9301 824.593C59.4408 827.284 63.5993 828.507 64.0885 825.816Z" fill="#0C8040"/>
<path d="M70.6956 827.53C71.9186 826.307 73.3863 825.328 74.6094 824.105C75.5879 823.371 75.3432 821.904 74.6094 820.925C73.6309 819.947 72.4079 820.191 71.4294 820.925C70.2063 822.148 68.7387 823.127 67.5156 824.35C66.5371 825.084 66.7818 826.551 67.5156 827.53C68.4941 828.508 69.7171 828.264 70.6956 827.53Z" fill="#0C8040"/>
<path d="M14.9229 1070.19C24.9521 1077.77 30.3336 1089.51 30.3336 1101.99C30.3336 1108.59 40.6074 1108.59 40.6074 1101.99C40.6074 1085.6 33.269 1070.92 20.0598 1061.14C14.6783 1057.22 9.54143 1066.03 14.9229 1070.19Z" fill="#0C8040"/>
<path d="M60.6653 1101.01C59.9315 1078.75 59.6869 1056.49 60.1761 1034.23C60.1761 1027.62 49.9023 1027.62 49.9023 1034.23C49.6577 1056.49 49.9023 1078.75 50.3915 1101.01C50.3915 1107.61 60.9099 1107.61 60.6653 1101.01Z" fill="#0C8040"/>
<path d="M75.5858 1104.43C76.8089 1097.83 79.7442 1091.96 84.8811 1087.31C89.7734 1082.66 82.435 1075.33 77.5427 1079.97C71.4274 1085.84 67.2689 1093.43 65.8012 1101.74C64.5782 1108.35 74.6073 1111.04 75.8304 1104.43H75.5858Z" fill="#0C8040"/>
<path d="M91.729 1108.59C94.9089 1105.9 97.8443 1103.21 101.024 1100.52C103.226 1098.56 102.981 1095.14 101.024 1093.18C99.0674 1091.22 95.8874 1091.22 93.6859 1093.18C90.5059 1095.87 87.5705 1098.56 84.3905 1101.25C82.189 1103.21 82.4336 1106.64 84.3905 1108.59C86.5921 1110.79 89.5274 1110.55 91.729 1108.59Z" fill="#0C8040"/>
<path d="M991.42 1084.13C1001.45 1091.71 1006.83 1103.45 1006.83 1115.93C1006.83 1122.53 1017.1 1122.53 1017.1 1115.93C1017.1 1099.54 1009.77 1084.86 996.557 1075.08C991.176 1071.16 986.039 1079.97 991.42 1084.13Z" fill="#139E52" fill-opacity="0.96"/>
<path d="M1037.16 1114.95C1036.43 1092.69 1036.18 1070.43 1036.67 1048.17C1036.67 1041.57 1026.4 1041.57 1026.4 1048.17C1026.15 1070.43 1026.4 1092.69 1026.89 1114.95C1026.89 1121.56 1037.41 1121.56 1037.16 1114.95Z" fill="#139E52" fill-opacity="0.96"/>
<path d="M1052.09 1118.37C1053.31 1111.77 1056.24 1105.9 1061.38 1101.25C1066.27 1096.6 1058.94 1089.27 1054.04 1093.91C1047.93 1099.78 1043.77 1107.37 1042.3 1115.68C1041.08 1122.29 1051.11 1124.98 1052.33 1118.37H1052.09Z" fill="#139E52" fill-opacity="0.96"/>
<path d="M1068.23 1122.53C1071.41 1119.84 1074.35 1117.15 1077.53 1114.46C1079.73 1112.5 1079.49 1109.08 1077.53 1107.12C1075.33 1104.92 1072.39 1105.16 1070.19 1107.12C1067.01 1109.81 1064.07 1112.5 1060.89 1115.19C1058.69 1117.15 1058.94 1120.58 1060.89 1122.53C1062.85 1124.49 1066.03 1124.49 1068.23 1122.53Z" fill="#139E52" fill-opacity="0.96"/>
<path d="M531.198 814.9C563.132 814.9 589.019 807.884 589.019 799.229C589.019 790.574 563.132 783.558 531.198 783.558C499.264 783.558 473.377 790.574 473.377 799.229C473.377 807.884 499.264 814.9 531.198 814.9Z" fill="#626365" fill-opacity="0.55"/>
<path d="M512.627 756.804C486.911 756.804 464.206 751.433 444.512 740.691C424.98 729.786 409.844 714.487 399.102 694.793C388.359 674.936 382.988 651.987 382.988 625.945V525.359C382.988 499.317 388.359 476.45 399.102 456.756C409.844 436.899 424.98 421.599 444.512 410.857C464.206 399.952 486.911 394.5 512.627 394.5C538.343 394.5 560.967 399.952 580.498 410.857C600.192 421.599 615.41 436.899 626.152 456.756C636.895 476.45 642.266 499.317 642.266 525.359V625.945C642.266 651.987 636.895 674.936 626.152 694.793C615.41 714.487 600.192 729.786 580.498 740.691C560.967 751.433 538.343 756.804 512.627 756.804ZM512.627 689.91C524.671 689.91 535.251 687.387 544.365 682.342C553.48 677.133 560.479 669.809 565.361 660.369C570.407 650.929 572.93 640.024 572.93 627.654V523.65C572.93 511.28 570.407 500.375 565.361 490.935C560.479 481.495 553.48 474.252 544.365 469.207C535.251 463.998 524.671 461.394 512.627 461.394C500.583 461.394 490.003 463.998 480.889 469.207C471.774 474.252 464.694 481.495 459.648 490.935C454.766 500.375 452.324 511.28 452.324 523.65V627.654C452.324 640.024 454.766 650.929 459.648 660.369C464.694 669.809 471.774 677.133 480.889 682.342C490.003 687.387 500.583 689.91 512.627 689.91Z" fill="#3D4043"/>
<path d="M552.704 124.076C577.622 124.076 597.823 103.876 597.823 78.9577C597.823 54.0393 577.622 33.839 552.704 33.839C527.786 33.839 507.585 54.0393 507.585 78.9577C507.585 103.876 527.786 124.076 552.704 124.076Z" fill="#FFCD2D" fill-opacity="0.13"/>
<path d="M551.764 150.396C590.699 150.396 622.262 118.833 622.262 79.8977C622.262 40.9628 590.699 9.39978 551.764 9.39978C512.829 9.39978 481.266 40.9628 481.266 79.8977C481.266 118.833 512.829 150.396 551.764 150.396Z" fill="#FFCD2D" fill-opacity="0.13"/>
<path d="M551.014 101.897C563.578 101.897 573.763 91.7115 573.763 79.1475C573.763 66.5836 563.578 56.3984 551.014 56.3984C538.45 56.3984 528.265 66.5836 528.265 79.1475C528.265 91.7115 538.45 101.897 551.014 101.897Z" fill="#FFE900"/>
<path d="M714.762 170.986C709.625 170.986 705.222 173.432 702.287 177.101C698.618 169.029 690.79 163.647 681.25 163.647C671.71 163.647 658.256 173.921 658.256 186.641H730.173C730.173 178.079 723.079 170.986 714.518 170.986H714.762Z" fill="#49B1B6" fill-opacity="0.87"/>
<path d="M710.359 246.818C700.819 246.818 692.747 252.444 689.077 260.272C685.164 252.2 677.091 246.818 667.796 246.818C658.501 246.818 644.068 257.336 644.068 270.546H734.331C734.331 257.336 723.813 246.818 710.603 246.818H710.359Z" fill="#2BD6D5"/>
<path d="M750.969 262.961C746.811 262.961 743.386 266.386 743.386 270.544H758.797C758.797 266.386 755.372 262.961 751.214 262.961H750.969Z" fill="#2BD6D5"/>
<path d="M622.054 255.133C614.961 255.133 609.09 260.025 607.378 266.63C605.91 264.184 603.464 262.472 600.528 262.472C596.125 262.472 592.701 265.896 592.701 270.299H637.465C637.465 261.738 630.616 254.889 622.054 254.889V255.133Z" fill="#2BD6D5"/>
<path d="M468.437 238.743C465.013 238.743 461.588 240.211 459.142 242.412C454.984 231.649 444.71 224.311 432.724 224.311C420.738 224.311 413.889 229.448 408.752 237.275C402.392 220.642 386.492 208.656 367.656 208.656C348.821 208.656 323.626 228.469 323.626 252.686H482.136C482.136 245.103 476.02 238.743 468.193 238.743H468.437Z" fill="#358B8F" fill-opacity="0.65"/>
<path d="M986.781 226.266C982.378 226.266 978.22 228.468 975.773 231.648C972.593 224.554 965.5 219.662 957.183 219.662C948.866 219.662 936.635 228.712 936.635 240.209H1000.48C1000.48 232.626 994.364 226.266 986.536 226.266H986.781Z" fill="#2BD6D5" fill-opacity="0.57"/>
<path d="M141.394 88.7943C154.603 88.7943 166.1 96.622 171.481 107.874C176.863 96.622 188.36 88.7943 201.569 88.7943C214.778 88.7943 235.081 103.716 235.081 122.306H108.126C108.126 103.96 123.048 88.7943 141.638 88.7943H141.394Z" fill="#2BD6D5" fill-opacity="0.4"/>
<path d="M84.3966 111.543C90.2674 111.543 95.1596 116.435 95.1596 122.306H73.6336C73.6336 116.435 78.5259 111.543 84.3966 111.543Z" fill="#2BD6D5" fill-opacity="0.4"/>
<path d="M265.899 100.781C275.928 100.781 284.245 107.63 286.691 116.925C288.648 113.501 292.073 111.299 296.231 111.299C302.347 111.299 307.239 116.192 307.239 122.307H244.129C244.129 110.321 253.913 100.781 265.655 100.781H265.899Z" fill="#2BD6D5" fill-opacity="0.4"/>
<path d="M937.364 30.3321C933.694 30.3321 930.514 31.7998 928.068 34.0013C923.91 23.2383 913.636 15.6553 901.405 15.6553C889.175 15.6553 882.57 20.7922 877.433 28.6198C871.073 11.9861 855.173 0 836.093 0C817.013 0 792.063 19.8137 792.063 44.0305H951.062C951.062 36.4475 944.947 30.0875 937.119 30.0875L937.364 30.3321Z" fill="#2BD6D5"/>
<path d="M540.11 894.875C525.188 893.896 313.353 927.408 362.765 964.59C412.177 1001.53 659.237 995.411 671.957 974.374C684.676 953.093 644.071 901.968 540.11 894.875Z" fill="#DEDEDE"/>
<path d="M451.756 492.751C451.756 492.751 319.679 498.699 334.589 523.821C349.257 549.029 423.888 601.539 423.888 601.539C423.888 601.539 405.367 598.346 396.921 592.928C388.561 587.752 404.188 604.198 410.367 605.532C416.46 606.625 393.856 605.699 380.925 594.542C367.993 583.385 373.883 606.825 392.715 609.364C411.702 611.577 373.519 608.856 358.883 597.49C344.248 586.124 368.118 630.335 403.857 620.071C439.595 609.808 452.344 603.644 445.383 595.526C438.421 587.407 361.919 518.177 361.919 518.177C361.919 518.177 459.415 507.413 457.308 499.198C455.202 490.983 451.842 492.992 451.842 492.992L451.756 492.751Z" fill="#F27405"/>
<path d="M406.195 504.39C401.736 466.806 428.357 453.297 440.832 450.642C468.701 439.097 475.469 484.882 474.275 507.575C473.339 525.355 708.861 550.074 678.117 645.725C670.95 668.02 652.636 710.222 616.009 717.388C549.421 730.416 399.426 654.484 399.427 613.079C399.427 564.56 426.128 548.617 451.343 543.135C428.53 545.597 410.088 537.204 406.195 504.39Z" fill="#F39929"/>
<path d="M432.944 457.565C432.944 457.565 413.449 467.008 416.735 479.15C420.021 491.291 450.906 467.908 455.068 462.287C459.23 456.441 441.049 455.092 432.944 457.565Z" fill="#F27405"/>
<path d="M620.204 594.139C620.204 594.139 631.802 588.227 647.451 587.769C662.869 587.081 690.024 631.311 647.451 634.062C604.647 636.814 588.539 608.841 591.99 601.045C595.442 593.249 604.278 601.045 620.204 594.139Z" fill="#F27405"/>
<path d="M478.323 676.52C478.323 676.52 503.538 759.946 503.075 787.065C502.613 813.954 490.815 907.721 487.808 912.318C484.801 916.684 442.468 927.026 430.439 931.393C418.641 935.76 436.916 943.114 456.579 936.219C476.241 929.325 496.136 914.616 503.075 913.237C510.015 911.858 519.962 817.631 514.873 797.407C510.015 777.182 506.083 718.348 504.926 696.745C504.001 675.141 472.309 656.985 478.323 676.52Z" fill="#F27405"/>
<path d="M554.584 657.502C554.584 657.502 546.105 865.944 558.352 903.174C558.352 903.174 581.904 915.583 587.792 929.372C593.916 943.161 632.07 938.105 632.541 935.348C633.012 932.36 590.383 906.391 577.665 898.118C565.182 889.844 571.07 805.272 570.128 794.471C569.186 783.67 556.468 762.987 561.179 744.831C565.653 726.676 575.781 685.539 572.719 656.582C569.657 627.626 554.584 633.601 554.584 657.502Z" fill="#F27405"/>
<path d="M448.39 547.956C448.39 547.956 392.9 569.74 421.235 582.502C449.57 595.264 488.132 548.721 483.645 542.78C479.159 536.839 463.502 550.596 448.39 547.956Z" fill="#F27405"/>
<path d="M459.347 482.525C459.347 482.525 585.784 443.878 580.153 472.544C574.778 501.209 522.054 575.689 522.054 575.689C522.054 575.689 538.434 566.475 544.577 558.541C550.719 550.862 541.505 571.594 536.131 574.921C530.756 577.992 551.743 569.546 560.189 554.702C568.635 539.857 570.939 563.915 554.047 572.618C536.898 581.064 571.963 565.707 581.944 550.095C591.926 534.482 584.248 584.135 547.136 586.439C510.024 588.742 495.947 587.206 499.786 577.225C503.626 567.243 552.511 476.383 552.511 476.383C552.511 476.383 457.044 498.906 456.276 490.46C455.508 482.014 459.347 482.781 459.347 482.781V482.525Z" fill="#F27405"/>
<path d="M382.301 382.862L368.287 369.989C367.938 369.668 367.523 369.357 367.051 369.338C360.714 369.093 319.785 251.829 303.357 205.164C302.763 203.486 300.689 202.91 299.312 204.033L288.712 212.643C288.523 212.803 288.297 212.926 288.071 213.03C234.118 235.626 294.691 178.88 300.764 176.711C306.837 174.542 324.058 183.247 327.613 203.75C327.632 203.844 327.651 203.929 327.679 204.023L380.98 376.911C381.386 378.231 382.81 379.156 384.092 378.637C384.8 378.354 385.592 378.778 386.167 379.533C388.025 381.947 384.536 384.927 382.291 382.862H382.301Z" fill="#F39929"/>
<g filter="url(#filter0_dddd_1161_940)">
<path d="M472.653 436.201C435.346 486.986 368.936 490.249 326.027 458.722C283.118 427.194 282.76 366.713 320.067 315.928C357.374 265.142 392.315 239.65 435.224 271.169C478.132 302.696 509.961 385.406 472.653 436.191V436.201Z" fill="#F39929"/>
</g>
<path d="M338.755 294.26C338.755 294.26 319.036 309.944 310.143 340.472C301.26 371 362.162 359.343 399.441 343.018C436.937 326.693 484.552 348.412 484.552 348.412C484.552 348.412 482.911 342.697 474.961 322.11C472.358 318.083 355.221 280.057 338.538 294.26H338.755Z" fill="#F27405"/>
<path d="M404.505 341.061C404.505 341.061 400.959 383.152 430.42 387.603C459.881 392.055 465.502 337.751 448.546 321.851C431.59 305.95 407.891 320.709 404.505 341.061Z" fill="#191F1F"/>
<path d="M289.699 335.206C289.699 335.206 279.797 373.307 309.267 377.758C338.728 382.21 344.179 331.82 327.223 315.919C310.267 300.019 293.094 314.863 289.699 335.206Z" fill="#191F1F"/>
<path d="M308.356 321.152C308.356 321.152 302.868 329.026 306.527 332.855C310.186 336.684 321.635 332.403 322.087 324.528C322.549 316.653 311.789 315.078 308.356 321.152Z" fill="#58606F"/>
<path d="M297.486 335.202C297.486 335.202 294.818 339.144 296.6 341.058C298.373 342.973 303.927 340.832 304.154 336.89C304.38 332.948 299.156 332.165 297.486 335.202Z" fill="#58606F"/>
<path d="M422.601 343.61C422.601 343.61 419.932 347.552 421.715 349.466C423.488 351.381 429.042 349.24 429.269 345.298C429.495 341.356 424.27 340.573 422.601 343.61Z" fill="#58606F"/>
<path d="M433.522 329.567C433.522 329.567 428.033 337.442 431.692 341.271C435.351 345.1 446.8 340.818 447.253 332.943C447.715 325.068 436.955 323.494 433.522 329.567Z" fill="#58606F"/>
<path d="M427.647 296.542C424.611 302.725 451.976 232.392 467.178 185.601C467.89 183.418 466.216 181.197 463.918 181.262L451.44 181.643C451.124 181.655 450.789 181.617 450.486 181.531C394.083 166.812 476.566 158.407 482.708 160.368C488.85 162.329 497.25 179.661 487.692 198.108L487.54 198.443L448.333 304.384C447.858 305.68 447.118 256.91 427.655 296.525L427.647 296.542Z" fill="#F39929"/>
<path d="M383.956 447.157L410.23 432.841C415.52 437.245 416.246 445.176 411.842 450.467L377.43 491.794C373.026 497.084 362.813 498.933 357.522 494.529L366.793 476.714C366.18 476.204 373.403 478.175 376.129 473.224C380.08 466.057 373.592 465.887 374.186 465.17L384.852 460.577L386.436 459.879C390.84 454.589 379.052 452.325 383.956 447.157Z" fill="#F27405"/>
<path d="M331.168 442.234L318.409 420.618C312.703 421.514 308.771 426.918 309.666 432.624L316.673 477.194C317.569 482.9 324.133 488.625 329.838 487.729L330.829 470.904C331.489 470.8 325.444 469.112 325.604 464.378C325.84 457.521 330.583 460.181 330.47 459.417L324.765 451.523L323.925 450.344C323.029 444.639 332.488 448.081 331.187 442.253L331.168 442.234Z" fill="#F27405"/>
<path d="M309.227 277.479L480.977 334.429C480.977 334.429 504.225 278.381 498.278 244.679C492.511 210.978 391.047 180.882 391.047 180.882C391.047 180.882 349.597 263.963 345.632 272.613C341.847 281.264 308.867 277.479 308.867 277.479H309.227Z" fill="#FCBA5A"/>
<path d="M309.229 277.479C309.229 277.479 342.75 272.973 346.174 274.235C349.418 275.496 413.757 308.296 418.262 313.522C418.262 313.522 322.746 283.246 309.41 277.479H309.229Z" fill="#FFDC5F"/>
<path d="M391.223 180.882C391.223 180.882 416.094 204.491 420.599 206.113C425.104 207.735 493.047 234.407 479.531 221.251C466.014 208.095 402.036 184.126 391.223 180.882Z" fill="#FFDC5F"/>
<path d="M419.699 234.586C419.699 234.586 457.364 225.214 481.874 233.685C506.384 242.335 501.158 254.59 484.397 259.096C467.637 263.601 453.219 263.601 438.982 261.979C424.745 260.357 402.578 239.812 419.699 234.586Z" fill="#FFDC5F"/>
<path d="M413.936 207.916C413.936 207.916 376.27 287.393 377.892 289.735C379.514 292.258 397.175 300.729 397.175 300.729C397.175 300.729 411.953 231.885 418.802 218.909C425.83 205.753 417.18 200.887 413.936 207.916Z" fill="#F79D55"/>
<defs>
<filter id="filter0_dddd_1161_940" x="278.919" y="254.338" width="224.227" height="273.754" filterUnits="userSpaceOnUse" color-interpolation-filters="sRGB">
<feFlood flood-opacity="0" result="BackgroundImageFix"/>
<feColorMatrix in="SourceAlpha" type="matrix" values="0 0 0 0 0 0 0 0 0 0 0 0 0 0 0 0 0 0 127 0" result="hardAlpha"/>
<feOffset dy="2"/>
<feGaussianBlur stdDeviation="2.5"/>
<feColorMatrix type="matrix" values="0 0 0 0 0.639216 0 0 0 0 0.639216 0 0 0 0 0.639216 0 0 0 0.1 0"/>
<feBlend mode="normal" in2="BackgroundImageFix" result="effect1_dropShadow_1161_940"/>
<feColorMatrix in="SourceAlpha" type="matrix" values="0 0 0 0 0 0 0 0 0 0 0 0 0 0 0 0 0 0 127 0" result="hardAlpha"/>
<feOffset dy="9"/>
<feGaussianBlur stdDeviation="4.5"/>
<feColorMatrix type="matrix" values="0 0 0 0 0.639216 0 0 0 0 0.639216 0 0 0 0 0.639216 0 0 0 0.09 0"/>
<feBlend mode="normal" in2="effect1_dropShadow_1161_940" result="effect2_dropShadow_1161_940"/>
<feColorMatrix in="SourceAlpha" type="matrix" values="0 0 0 0 0 0 0 0 0 0 0 0 0 0 0 0 0 0 127 0" result="hardAlpha"/>
<feOffset dy="19"/>
<feGaussianBlur stdDeviation="6"/>
<feColorMatrix type="matrix" values="0 0 0 0 0.639216 0 0 0 0 0.639216 0 0 0 0 0.639216 0 0 0 0.05 0"/>
<feBlend mode="normal" in2="effect2_dropShadow_1161_940" result="effect3_dropShadow_1161_940"/>
<feColorMatrix in="SourceAlpha" type="matrix" values="0 0 0 0 0 0 0 0 0 0 0 0 0 0 0 0 0 0 127 0" result="hardAlpha"/>
<feOffset dy="35"/>
<feGaussianBlur stdDeviation="7"/>
<feColorMatrix type="matrix" values="0 0 0 0 0.639216 0 0 0 0 0.639216 0 0 0 0 0.639216 0 0 0 0.01 0"/>
<feBlend mode="normal" in2="effect3_dropShadow_1161_940" result="effect4_dropShadow_1161_940"/>
<feBlend mode="normal" in="SourceGraphic" in2="effect4_dropShadow_1161_940" result="shape"/>
</filter>
</defs>
</svg>
