<svg width="831" height="1082" viewBox="0 0 831 1082" fill="none" xmlns="http://www.w3.org/2000/svg">
<path d="M481.511 880.35C442.632 878.303 -109.322 948.426 19.4245 1026.23C148.171 1103.52 791.906 1090.72 825.048 1046.7C858.191 1002.17 752.389 895.194 481.511 880.35Z" fill="#3D4043" fill-opacity="0.13"/>
<path d="M406.781 457.262C400.898 407.679 436.019 389.856 452.477 386.354C489.244 371.122 498.173 431.525 496.597 461.464C495.363 484.921 806.083 517.533 765.522 643.723C756.068 673.136 731.907 728.812 683.584 738.267C595.736 755.454 397.851 655.278 397.852 600.653C397.853 536.643 433.078 515.611 466.345 508.377C436.247 511.626 411.917 500.554 406.781 457.262Z" fill="#F39929"/>
<path d="M439.97 396.537C439.97 396.537 414.25 408.996 418.585 425.014C422.92 441.032 463.667 410.182 469.158 402.766C474.649 395.054 450.663 393.274 439.97 396.537Z" fill="#F27405"/>
<path d="M689.118 575.666C689.118 575.666 704.42 567.867 725.065 567.262C745.406 566.355 781.231 624.707 725.065 628.337C668.595 631.967 647.343 595.062 651.897 584.777C656.451 574.492 668.109 584.777 689.118 575.666Z" fill="#F27405"/>
<path d="M501.938 684.35C501.938 684.35 535.204 794.412 534.593 830.189C533.983 865.664 518.418 989.369 514.451 995.433C510.484 1001.19 454.635 1014.84 438.765 1020.6C423.201 1026.36 447.31 1036.06 473.251 1026.97C499.192 1017.87 525.438 998.465 534.593 996.646C543.749 994.827 556.872 870.515 550.158 843.833C543.749 817.152 538.561 739.533 537.035 711.032C535.814 682.531 494.004 658.578 501.938 684.35Z" fill="#F27405"/>
<path d="M602.548 659.259C602.548 659.259 591.362 934.253 607.519 983.369C607.519 983.369 638.591 999.741 646.359 1017.93C654.437 1036.12 704.773 1029.45 705.394 1025.82C706.016 1021.87 649.776 987.614 632.998 976.699C616.53 965.784 624.298 854.21 623.055 839.96C621.812 825.71 605.034 798.423 611.248 774.471C617.151 750.519 630.512 696.248 626.473 658.046C622.434 619.845 602.548 627.728 602.548 659.259Z" fill="#F27405"/>
<path d="M462.448 514.738C462.448 514.738 389.242 543.476 426.624 560.313C464.006 577.15 514.879 515.748 508.96 507.91C503.041 500.072 482.385 518.221 462.448 514.738Z" fill="#F27405"/>
<path d="M375.258 296.933L356.77 279.95C356.309 279.527 355.762 279.116 355.14 279.091C346.779 278.768 292.783 124.063 271.11 62.4999C270.326 60.2852 267.589 59.5262 265.772 61.0068L251.788 72.3664C251.539 72.5779 251.241 72.7397 250.942 72.8765C179.764 102.688 259.676 27.8239 267.688 24.9622C275.701 22.1005 298.419 33.5846 303.109 60.6336C303.134 60.758 303.159 60.87 303.197 60.9944L373.516 289.082C374.051 290.824 375.93 292.043 377.622 291.359C378.555 290.986 379.6 291.546 380.359 292.541C382.81 295.726 378.206 299.658 375.245 296.933H375.258Z" fill="#F39929"/>
<g filter="url(#filter0_dddd_2364_2721)">
<path d="M494.458 367.301C445.24 434.302 357.627 438.607 301.018 397.013C244.409 355.419 243.936 275.628 293.155 208.628C342.373 141.627 388.469 107.997 445.078 149.578C501.687 191.172 543.677 300.288 494.458 367.289V367.301Z" fill="#F39929"/>
</g>
<path d="M317.809 180.042C317.809 180.042 291.794 200.733 280.062 241.008C268.342 281.283 348.689 265.904 397.871 244.367C447.338 222.83 510.155 251.484 510.155 251.484C510.155 251.484 507.991 243.944 497.502 216.783C494.069 211.47 339.532 161.304 317.523 180.042H317.809Z" fill="#F27405"/>
<path d="M404.552 241.786C404.552 241.786 399.874 297.315 438.741 303.188C477.609 309.06 485.024 237.419 462.654 216.442C440.284 195.464 409.019 214.936 404.552 241.786Z" fill="#191F1F"/>
<path d="M253.09 234.061C253.09 234.061 240.027 284.327 278.906 290.199C317.774 296.072 324.965 229.594 302.595 208.617C280.225 187.64 257.569 207.223 253.09 234.061Z" fill="#191F1F"/>
<path d="M277.705 215.519C277.705 215.519 270.464 225.908 275.291 230.96C280.119 236.011 295.223 230.363 295.82 219.974C296.429 209.584 282.234 207.507 277.705 215.519Z" fill="#58606F"/>
<path d="M263.364 234.055C263.364 234.055 259.843 239.256 262.195 241.782C264.534 244.308 271.862 241.483 272.16 236.282C272.459 231.082 265.566 230.049 263.364 234.055Z" fill="#58606F"/>
<path d="M428.426 245.148C428.426 245.148 424.905 250.349 427.256 252.874C429.595 255.4 436.923 252.576 437.222 247.375C437.52 242.174 430.628 241.142 428.426 245.148Z" fill="#58606F"/>
<path d="M442.833 226.622C442.833 226.622 435.592 237.011 440.42 242.062C445.247 247.114 460.351 241.465 460.948 231.076C461.558 220.687 447.362 218.609 442.833 226.622Z" fill="#58606F"/>
<path d="M449.549 193.654C449.276 202.737 443.776 103.325 436.511 38.8251C436.175 35.8142 432.952 34.0598 430.228 35.3911L415.447 42.6573C415.074 42.8439 414.651 42.9808 414.24 43.043C338.459 56.132 432.952 1.03863 441.4 0.0432685C449.848 -0.952095 469.393 15.2848 467.975 42.6573V43.1425L478.675 191.788C478.812 193.604 451.316 135.425 449.549 193.629V193.654Z" fill="#F39929"/>
<path d="M377.442 381.756L412.104 362.869C419.084 368.679 420.042 379.143 414.232 386.123L368.832 440.644C363.022 447.624 349.548 450.063 342.568 444.252L354.798 420.749C353.99 420.077 363.52 422.678 367.115 416.146C372.328 406.69 363.769 406.466 364.553 405.52L378.624 399.461L380.714 398.54C386.524 391.56 370.972 388.574 377.442 381.756Z" fill="#F27405"/>
<path d="M307.799 375.261L290.966 346.744C283.439 347.926 278.251 355.055 279.433 362.582L288.677 421.383C289.859 428.911 298.518 436.463 306.045 435.281L307.352 413.085C308.222 412.948 300.247 410.721 300.459 404.475C300.77 395.429 307.028 398.938 306.879 397.93L299.352 387.516L298.244 385.961C297.062 378.433 309.541 382.975 307.824 375.286L307.799 375.261Z" fill="#F27405"/>
<path d="M407.588 462.214C407.588 462.214 407.63 462.265 407.691 462.591L412.316 479.547L417.043 488.476C414.942 517.189 395.718 569.363 377.65 573.565C355.064 578.817 316.449 573.634 315.739 577.242C313.579 588.223 274.069 587.035 266.465 583.299C266.053 583.462 266.303 583.336 266.405 583.269C266.392 583.262 266.379 583.256 266.366 583.249C263.56 584.092 261.571 579.868 261.046 577.767C260.127 574.092 263.147 569.525 267.874 567.949L276.803 567.658L279.289 567.436C268.167 568.242 257.944 567.849 256.844 563.585C254.675 555.181 265.248 553.361 265.248 553.361C256.718 552.752 254.001 549.937 253.235 545.727C252.395 541.105 259.538 539.372 263.215 539.083C260.779 538.148 258.892 536.841 258.488 535.222C257.437 531.02 257.894 529.445 261.571 526.293C264.512 523.772 272.319 525.243 277.396 525.768C272.844 510.011 273.147 493.435 280.48 491.102C292.035 487.425 289.52 500.459 289.934 505.283C291.51 523.667 308.249 521.041 313.57 528.394C317.255 533.487 320.398 549.404 318.297 551.505C334.755 555.006 363.431 554.026 369.314 551.505C376.667 548.353 408.182 493.203 408.182 476.395C408.182 466.51 407.861 463.494 407.691 462.591L407.588 462.214Z" fill="#F27405"/>
<path d="M281.098 535.716C281.098 535.716 297.108 534.797 294.682 536.873C292.255 538.949 266.723 539.227 263.234 538.919C259.74 538.579 274.47 536.302 281.098 535.716Z" fill="#191F1F" fill-opacity="0.23"/>
<path d="M287.171 523.18C287.171 523.18 295.887 522.614 294.838 524.603C293.789 526.593 279.723 526.329 277.752 525.953C275.774 525.545 283.592 523.616 287.171 523.18Z" fill="#191F1F" fill-opacity="0.13"/>
<path d="M282.142 551.432C282.142 551.432 298.105 550.18 295.618 551.827C293.131 553.474 267.716 554.577 264.255 554.468C260.79 554.334 275.527 552.105 282.142 551.432Z" fill="#191F1F" fill-opacity="0.23"/>
<path d="M281.599 565.706C281.599 565.706 293.552 565.496 291.836 567.644C290.121 569.792 271.001 568.829 268.37 568.32C265.735 567.775 276.661 566.017 281.599 565.706Z" fill="#191F1F" fill-opacity="0.23"/>
<path d="M301.134 557.461C302.454 552.96 296.84 550.03 301.144 552.287C305.449 554.544 301.991 561.728 299.711 563.897C297.349 566.058 299.814 561.963 301.134 557.461Z" fill="black" fill-opacity="0.22"/>
<path d="M304.253 543.578C305.42 539.858 297.946 537.902 303.678 539.41C309.409 540.918 305.828 546.952 303.174 548.862C300.415 550.773 303.085 547.298 304.253 543.578Z" fill="black" fill-opacity="0.22"/>
<path d="M301.654 530.389C303.055 526.297 294.086 524.146 300.964 525.805C307.842 527.464 303.544 534.101 300.36 536.202C297.049 538.304 300.253 534.481 301.654 530.389Z" fill="black" fill-opacity="0.22"/>
<path d="M296.292 572.638C296.759 570.034 293.769 568.665 296.062 569.721C298.354 570.777 296.922 575 295.86 576.337C294.757 577.674 295.825 575.242 296.292 572.638Z" fill="black" fill-opacity="0.22"/>
<path d="M287.341 578.559C287.341 578.559 307.342 577.665 305.032 583.111C291.903 589.426 271.152 584.595 266.685 583.089C262.202 581.492 279.265 579.016 287.341 578.559Z" fill="#191F1F" fill-opacity="0.07"/>
<path d="M482.105 454.89C482.105 454.89 604.999 417.325 599.526 445.188C594.302 473.05 543.055 545.443 543.055 545.443C543.055 545.443 550.766 544.51 556.737 536.798C562.708 529.335 561.961 541.462 556.737 544.696C551.513 547.682 564.449 543.348 572.658 528.919C580.868 514.49 590.57 533.999 574.151 542.457C557.483 550.667 586.974 540.418 596.676 525.243C606.378 510.067 603.506 553.652 567.434 555.891C531.362 558.13 517.68 556.637 521.411 546.935C525.143 537.233 572.658 448.919 572.658 448.919C572.658 448.919 479.866 470.811 479.12 462.602C478.374 454.392 482.105 455.139 482.105 455.139V454.89Z" fill="#F27405"/>
<path d="M137.088 853.965L452.759 825.682L446.456 985.355L137.088 1030.53V853.965Z" fill="#B5864D"/>
<path d="M49.3726 816.227L328.276 795.217L452.759 825.682L137.088 853.965L49.3726 816.227Z" fill="#A67840"/>
<path d="M49.3726 967.497V816.227L137.088 853.965V1030.53L49.3726 967.497Z" fill="#8E6C41"/>
<path d="M164.926 851.943L278.904 840.913V932.306L164.926 948.063V851.943Z" fill="#D9D9D9"/>
<path d="M148.118 840.913L253.167 830.934L278.904 840.913L164.926 851.943L148.118 840.913Z" fill="#BBBBBB"/>
<path d="M291.167 972.096C294.321 971.66 296.593 971.918 297.985 972.872C299.375 973.811 300.211 975.294 300.491 977.323C300.684 978.718 300.603 979.94 300.248 980.991C299.89 982.026 299.132 982.906 297.973 983.632C296.811 984.342 295.144 984.847 292.973 985.148L288.028 985.832L288.607 990.016L282.759 990.826C282.46 987.733 282.126 984.848 281.755 982.17C281.384 979.491 280.923 976.623 280.37 973.566L286.218 972.757L286.222 972.781L291.167 972.096ZM290.674 980.79C291.989 980.608 292.965 980.424 293.602 980.239C294.252 980.036 294.686 979.782 294.902 979.478C295.134 979.171 295.214 978.756 295.142 978.233C295.069 977.71 294.889 977.339 294.6 977.121C294.325 976.884 293.848 976.765 293.169 976.762C292.506 976.756 291.501 976.847 290.154 977.034L286.873 977.488L287.393 981.244L290.674 980.79ZM316.281 986.186C315.855 985.324 315.294 984.247 314.598 982.954L307.014 984.004L306.296 987.568L300.329 988.394L304.597 970.213L313.345 969.002L322.438 985.333L316.281 986.186ZM312.73 979.433C311.897 977.852 311.049 976.273 310.184 974.697L309.4 973.231C309.045 974.75 308.53 977.042 307.856 980.107L312.73 979.433ZM332.778 984.144C329.197 984.64 326.452 984.245 324.546 982.958C322.64 981.671 321.491 979.617 321.101 976.796C320.708 973.959 321.245 971.599 322.713 969.716C324.181 967.833 326.705 966.644 330.287 966.148C335.296 965.455 338.886 966.71 341.058 969.915C339.699 970.604 338.129 971.572 336.347 972.82C335.765 971.996 334.945 971.439 333.887 971.15C332.845 970.858 331.809 970.783 330.779 970.926C329.258 971.136 328.18 971.697 327.547 972.609C326.912 973.504 326.676 974.538 326.838 975.711C327.013 976.979 327.553 977.962 328.458 978.661C329.376 979.342 330.659 979.568 332.307 979.34C333.623 979.158 334.639 978.799 335.356 978.263C336.072 977.712 336.546 976.936 336.778 975.934C338.175 976.452 339.947 977.006 342.097 977.597C341.57 979.624 340.432 981.147 338.683 982.164C336.934 983.182 334.966 983.842 332.778 984.144ZM356.884 980.565C355.953 979.321 354.431 977.432 352.32 974.898L349.92 978.04L350.394 981.464L344.474 982.283C344.175 979.191 343.841 976.306 343.47 973.627C343.099 970.949 342.638 968.081 342.085 965.024L348.005 964.204L348.969 971.17C351.486 967.882 353.241 965.273 354.233 963.342L361.936 962.276L355.474 970.73C356.798 972.13 358.276 973.645 359.907 975.277C361.554 976.907 363.035 978.325 364.349 979.532L356.884 980.565ZM381.014 977.225C380.588 976.364 380.027 975.286 379.331 973.994L371.748 975.043L371.029 978.607L365.062 979.433L369.33 961.253L378.078 960.042L387.172 976.373L381.014 977.225ZM377.463 970.473C376.63 968.892 375.782 967.313 374.917 965.737L374.133 964.271C373.778 965.79 373.263 968.082 372.589 971.147L377.463 970.473ZM396.61 957.501C399.764 957.064 402.037 957.323 403.429 958.277C404.818 959.216 405.654 960.699 405.934 962.728C406.127 964.122 406.046 965.345 405.691 966.396C405.334 967.43 404.575 968.311 403.416 969.037C402.254 969.747 400.588 970.252 398.416 970.552L393.471 971.237L394.051 975.421L388.202 976.23C387.904 973.138 387.569 970.253 387.198 967.574C386.827 964.896 386.366 962.028 385.813 958.971L391.662 958.162L391.665 958.185L396.61 957.501ZM396.117 966.194C397.433 966.012 398.409 965.829 399.045 965.644C399.695 965.441 400.129 965.187 400.345 964.882C400.577 964.576 400.657 964.161 400.585 963.638C400.512 963.115 400.332 962.744 400.043 962.526C399.768 962.289 399.291 962.169 398.612 962.166C397.949 962.161 396.944 962.252 395.597 962.438L392.316 962.892L392.836 966.649L396.117 966.194ZM417.499 954.609C420.653 954.173 422.926 954.432 424.318 955.386C425.707 956.324 426.543 957.808 426.823 959.836C427.016 961.231 426.935 962.454 426.58 963.504C426.223 964.539 425.464 965.419 424.305 966.145C423.143 966.855 421.477 967.36 419.305 967.661L414.36 968.345L414.94 972.53L409.091 973.339C408.792 970.247 408.458 967.361 408.087 964.683C407.716 962.005 407.255 959.137 406.702 956.08L412.551 955.27L412.554 955.294L417.499 954.609ZM417.006 963.303C418.321 963.121 419.298 962.937 419.934 962.752C420.584 962.549 421.018 962.295 421.234 961.991C421.466 961.684 421.546 961.269 421.474 960.746C421.401 960.223 421.221 959.853 420.932 959.634C420.657 959.398 420.18 959.278 419.501 959.275C418.838 959.27 417.833 959.36 416.486 959.547L413.205 960.001L413.725 963.757L417.006 963.303Z" fill="#191F1F" fill-opacity="0.8"/>
<path d="M333.339 118.227C333.503 118.254 333.98 119.522 335.602 119.795C340.359 120.585 374.244 117.478 379.9 118.227C373.072 124.429 353.498 136.069 332.29 135.647C325.161 135.51 316.792 135.824 311.994 129.99C319.109 126.074 326.22 122.153 333.326 118.227H333.339Z" fill="#6D7276"/>
<path d="M414.944 67.1816C429.256 77.8133 434.858 96.9775 433.576 114.124C415.53 114.547 397.456 114.452 379.41 114.383C379.369 111.153 377.992 107.786 377.488 104.542C375.716 93.0656 376.52 77.527 381.141 66.7455C382.081 64.551 384.889 59.4942 386.893 58.2947C387.083 58.1856 387.329 57.9403 387.506 57.7767C397.211 57.8858 407.134 61.3888 414.944 67.1816Z" fill="#6D7276"/>
<path d="M386.892 58.3082C384.889 59.4941 382.095 64.5509 381.14 66.759C376.506 77.5406 375.716 93.0791 377.487 104.556C377.992 107.8 379.355 111.167 379.409 114.397C365.425 114.342 351.413 114.342 337.428 113.961C337.292 105.837 339.268 97.0183 341.735 89.6988C343.821 83.5107 345.92 78.9718 347.215 77.0363C347.474 76.6546 349.068 74.2966 349.041 74.283C349.041 74.283 348.905 74.4465 348.918 74.4602C349 74.5419 353.553 70.153 354.929 69.1034C364.062 62.1929 375.443 58.2265 386.892 58.3082Z" fill="#F27405"/>
<path d="M200.643 888.711L217.451 905.518L243.713 874.004" stroke="#6D7276" stroke-opacity="0.9" stroke-width="11" stroke-linecap="round"/>
<path d="M529.791 546.248C526.973 546.178 526.615 542.124 529.376 541.561L533.927 540.632C534.431 540.529 534.899 540.294 535.282 539.95L536.805 538.583C539.969 535.743 544.643 539.605 542.451 543.249C541.866 544.22 540.869 544.871 539.744 545.013L530.148 546.23C530.029 546.245 529.91 546.251 529.791 546.248Z" fill="#E36E07"/>
<defs>
<filter id="filter0_dddd_2364_2721" x="243.339" y="128.332" width="286.879" height="344.555" filterUnits="userSpaceOnUse" color-interpolation-filters="sRGB">
<feFlood flood-opacity="0" result="BackgroundImageFix"/>
<feColorMatrix in="SourceAlpha" type="matrix" values="0 0 0 0 0 0 0 0 0 0 0 0 0 0 0 0 0 0 127 0" result="hardAlpha"/>
<feOffset dy="2"/>
<feGaussianBlur stdDeviation="2.5"/>
<feColorMatrix type="matrix" values="0 0 0 0 0.639216 0 0 0 0 0.639216 0 0 0 0 0.639216 0 0 0 0.1 0"/>
<feBlend mode="normal" in2="BackgroundImageFix" result="effect1_dropShadow_2364_2721"/>
<feColorMatrix in="SourceAlpha" type="matrix" values="0 0 0 0 0 0 0 0 0 0 0 0 0 0 0 0 0 0 127 0" result="hardAlpha"/>
<feOffset dy="9"/>
<feGaussianBlur stdDeviation="4.5"/>
<feColorMatrix type="matrix" values="0 0 0 0 0.639216 0 0 0 0 0.639216 0 0 0 0 0.639216 0 0 0 0.09 0"/>
<feBlend mode="normal" in2="effect1_dropShadow_2364_2721" result="effect2_dropShadow_2364_2721"/>
<feColorMatrix in="SourceAlpha" type="matrix" values="0 0 0 0 0 0 0 0 0 0 0 0 0 0 0 0 0 0 127 0" result="hardAlpha"/>
<feOffset dy="19"/>
<feGaussianBlur stdDeviation="6"/>
<feColorMatrix type="matrix" values="0 0 0 0 0.639216 0 0 0 0 0.639216 0 0 0 0 0.639216 0 0 0 0.05 0"/>
<feBlend mode="normal" in2="effect2_dropShadow_2364_2721" result="effect3_dropShadow_2364_2721"/>
<feColorMatrix in="SourceAlpha" type="matrix" values="0 0 0 0 0 0 0 0 0 0 0 0 0 0 0 0 0 0 127 0" result="hardAlpha"/>
<feOffset dy="35"/>
<feGaussianBlur stdDeviation="7"/>
<feColorMatrix type="matrix" values="0 0 0 0 0.639216 0 0 0 0 0.639216 0 0 0 0 0.639216 0 0 0 0.01 0"/>
<feBlend mode="normal" in2="effect3_dropShadow_2364_2721" result="effect4_dropShadow_2364_2721"/>
<feBlend mode="normal" in="SourceGraphic" in2="effect4_dropShadow_2364_2721" result="shape"/>
</filter>
</defs>
</svg>
