<svg width="89" height="132" viewBox="0 0 89 132" fill="none" xmlns="http://www.w3.org/2000/svg">
<path d="M44.3387 98.6101C67.656 98.6101 86.6774 79.7564 86.6774 56.2713C86.6774 32.949 67.6611 13.9326 44.3387 13.9326C20.8537 13.9326 2 32.9541 2 56.2713C2 79.7513 20.8588 98.6101 44.3387 98.6101ZM13.5635 56.2713C13.5635 39.4063 27.3286 25.4961 44.3387 25.4961C61.1975 25.4961 75.1139 39.4126 75.1139 56.2713C75.1139 73.2814 61.2038 87.0466 44.3387 87.0466C27.3224 87.0466 13.5635 73.2877 13.5635 56.2713Z" fill="#EC6B5E" stroke="#F0F2F2" stroke-width="4"/>
<path d="M44.739 57.4879L41.1596 54.1999C41.0705 54.118 40.9645 54.0385 40.844 54.0336C39.2254 53.971 28.7713 24.0192 24.5753 12.1002C24.4235 11.6714 23.8936 11.5245 23.5419 11.8111L20.8345 14.0104C20.7863 14.0514 20.7285 14.0827 20.6707 14.1092C6.89017 19.8808 22.3616 5.38669 23.9129 4.83266C25.4641 4.27862 29.8625 6.502 30.7706 11.7389C30.7754 11.763 30.7802 11.7846 30.7875 11.8087L44.4018 55.968C44.5054 56.3052 44.8691 56.5413 45.1967 56.4088C45.3773 56.3365 45.5797 56.4449 45.7266 56.6376C46.2011 57.2543 45.3099 58.0155 44.7366 57.4879H44.739Z" fill="#F39929"/>
<g filter="url(#filter0_dddd_0_1)">
<path d="M67.817 71.112C58.288 84.0837 41.3255 84.9172 30.3656 76.8644C19.4058 68.8115 19.3142 53.3635 28.8433 40.3918C38.3723 27.4201 47.2968 20.9089 58.2566 28.9593C69.2165 37.0122 77.3461 58.1379 67.817 71.1096V71.112Z" fill="#F39929"/>
</g>
<path d="M33.6164 34.8573C33.6164 34.8573 28.5796 38.8632 26.3082 46.6607C24.0391 54.4582 39.5949 51.4808 49.1167 47.3111C58.6939 43.1413 70.8558 48.6889 70.8558 48.6889C70.8558 48.6889 70.4367 47.2292 68.4061 41.9706C67.7413 40.942 37.822 31.2295 33.5609 34.8573H33.6164Z" fill="#F27405"/>
<path d="M50.4101 46.8114C50.4101 46.8114 49.5044 57.5622 57.0293 58.6991C64.5543 59.8361 65.9899 45.9659 61.659 41.9046C57.328 37.8432 51.2748 41.6131 50.4101 46.8114Z" fill="#191F1F"/>
<path d="M21.0863 45.3155C21.0863 45.3155 18.5571 55.0473 26.0845 56.1842C33.6094 57.3212 35.0017 44.4507 30.6707 40.3893C26.3398 36.328 21.9534 40.1196 21.0863 45.3155Z" fill="#191F1F"/>
<path d="M25.852 41.726C25.852 41.726 24.4501 43.7374 25.3847 44.7154C26.3193 45.6934 29.2436 44.5997 29.3592 42.5883C29.4772 40.5769 26.7288 40.1747 25.852 41.726Z" fill="#58606F"/>
<path d="M23.0755 45.3145C23.0755 45.3145 22.3938 46.3214 22.8491 46.8104C23.3019 47.2994 24.7207 46.7526 24.7785 45.7457C24.8363 44.7388 23.5018 44.5389 23.0755 45.3145Z" fill="#58606F"/>
<path d="M55.0325 47.462C55.0325 47.462 54.3508 48.4689 54.8061 48.9579C55.2589 49.4469 56.6777 48.9001 56.7355 47.8932C56.7933 46.8863 55.4589 46.6863 55.0325 47.462Z" fill="#58606F"/>
<path d="M57.8218 43.8754C57.8218 43.8754 56.4199 45.8868 57.3545 46.8648C58.2891 47.8428 61.2133 46.7492 61.3289 44.7378C61.447 42.7264 58.6986 42.3241 57.8218 43.8754Z" fill="#58606F"/>
<path d="M59.1224 37.4927C59.0694 39.2511 58.0048 20.0043 56.598 7.5168C56.533 6.93385 55.9091 6.5942 55.3816 6.85195L52.52 8.25873C52.4478 8.29486 52.3658 8.32136 52.2864 8.3334C37.6146 10.8675 55.9091 0.201086 57.5447 0.00837705C59.1802 -0.184332 62.9644 2.95923 62.6898 8.25873V8.35267L64.7613 37.1313C64.7878 37.483 59.4645 26.2192 59.1224 37.4878V37.4927Z" fill="#F39929"/>
<path d="M45.1619 73.9106L51.8727 70.2539C53.224 71.3788 53.4095 73.4047 52.2846 74.7561L43.4951 85.3117C42.3702 86.6631 39.7615 87.1352 38.4102 86.0103L40.778 81.4599C40.6214 81.3299 42.4665 81.8333 43.1626 80.5687C44.1719 78.7379 42.5147 78.6946 42.6664 78.5115L45.3907 77.3384L45.7954 77.1601C46.9203 75.8087 43.9094 75.2306 45.1619 73.9106Z" fill="#F27405"/>
<path d="M31.6788 72.6529L28.4197 67.1318C26.9624 67.3607 25.958 68.741 26.1868 70.1983L27.9765 81.5826C28.2053 83.04 29.8818 84.5021 31.3391 84.2733L31.5921 79.9759C31.7607 79.9494 30.2166 79.5182 30.2576 78.3089C30.3178 76.5577 31.5294 77.237 31.5005 77.0419L30.0432 75.0257L29.8288 74.7246C29.6 73.2672 32.016 74.1464 31.6836 72.6578L31.6788 72.6529Z" fill="#F27405"/>
<defs>
<filter id="filter0_dddd_0_1" x="7.90918" y="22.4268" width="78.1211" height="108.641" filterUnits="userSpaceOnUse" color-interpolation-filters="sRGB">
<feFlood flood-opacity="0" result="BackgroundImageFix"/>
<feColorMatrix in="SourceAlpha" type="matrix" values="0 0 0 0 0 0 0 0 0 0 0 0 0 0 0 0 0 0 127 0" result="hardAlpha"/>
<feOffset dy="2"/>
<feGaussianBlur stdDeviation="2.5"/>
<feColorMatrix type="matrix" values="0 0 0 0 0.639216 0 0 0 0 0.639216 0 0 0 0 0.639216 0 0 0 0.1 0"/>
<feBlend mode="normal" in2="BackgroundImageFix" result="effect1_dropShadow_0_1"/>
<feColorMatrix in="SourceAlpha" type="matrix" values="0 0 0 0 0 0 0 0 0 0 0 0 0 0 0 0 0 0 127 0" result="hardAlpha"/>
<feOffset dy="9"/>
<feGaussianBlur stdDeviation="4.5"/>
<feColorMatrix type="matrix" values="0 0 0 0 0.639216 0 0 0 0 0.639216 0 0 0 0 0.639216 0 0 0 0.09 0"/>
<feBlend mode="normal" in2="effect1_dropShadow_0_1" result="effect2_dropShadow_0_1"/>
<feColorMatrix in="SourceAlpha" type="matrix" values="0 0 0 0 0 0 0 0 0 0 0 0 0 0 0 0 0 0 127 0" result="hardAlpha"/>
<feOffset dy="19"/>
<feGaussianBlur stdDeviation="6"/>
<feColorMatrix type="matrix" values="0 0 0 0 0.639216 0 0 0 0 0.639216 0 0 0 0 0.639216 0 0 0 0.05 0"/>
<feBlend mode="normal" in2="effect2_dropShadow_0_1" result="effect3_dropShadow_0_1"/>
<feColorMatrix in="SourceAlpha" type="matrix" values="0 0 0 0 0 0 0 0 0 0 0 0 0 0 0 0 0 0 127 0" result="hardAlpha"/>
<feOffset dy="35"/>
<feGaussianBlur stdDeviation="7"/>
<feColorMatrix type="matrix" values="0 0 0 0 0.639216 0 0 0 0 0.639216 0 0 0 0 0.639216 0 0 0 0.01 0"/>
<feBlend mode="normal" in2="effect3_dropShadow_0_1" result="effect4_dropShadow_0_1"/>
<feBlend mode="normal" in="SourceGraphic" in2="effect4_dropShadow_0_1" result="shape"/>
</filter>
</defs>
</svg>
