<svg width="147" height="198" viewBox="0 0 147 198" fill="none" xmlns="http://www.w3.org/2000/svg">
<path d="M73.4682 168.936C112.829 168.936 144.936 137.111 144.936 97.4682C144.936 58.1019 112.835 26 73.4682 26C33.8254 26 2 58.107 2 97.4682C2 137.106 33.8305 168.936 73.4682 168.936ZM19.0253 97.4682C19.0253 67.6315 43.3726 43.0253 73.4682 43.0253C103.299 43.0253 127.911 67.6377 127.911 97.4682C127.911 127.564 103.305 151.911 73.4682 151.911C43.3664 151.911 19.0253 127.57 19.0253 97.4682Z" fill="#588E70" stroke="#F0F2F2" stroke-width="4"/>
<path d="M69.7514 103.905L63.2818 97.9624C63.1207 97.8144 62.9291 97.6707 62.7115 97.662C59.7858 97.5488 40.8908 43.4129 33.3067 21.87C33.0324 21.095 32.0746 20.8294 31.439 21.3475L26.5454 25.3226C26.4584 25.3966 26.3539 25.4532 26.2494 25.5011C1.34201 35.9329 29.3057 9.73575 32.1094 8.73436C34.9132 7.73297 42.863 11.7516 44.5044 21.2169C44.5131 21.2604 44.5218 21.2996 44.5348 21.3431L69.1418 101.158C69.329 101.768 69.9864 102.194 70.5785 101.955C70.9051 101.824 71.2708 102.02 71.5364 102.369C72.394 103.483 70.7832 104.859 69.747 103.905H69.7514Z" fill="#F39929"/>
<g filter="url(#filter0_dddd_2170_4452)">
<path d="M111.465 128.53C94.2416 151.976 63.583 153.482 43.7737 138.927C23.9645 124.372 23.799 96.4509 41.0222 73.0054C58.2453 49.5598 74.3757 37.7914 94.185 52.342C113.994 66.8969 128.688 105.08 111.465 128.526V128.53Z" fill="#F39929"/>
</g>
<path d="M49.6477 63.0024C49.6477 63.0024 40.5441 70.2429 36.4386 84.3363C32.3374 98.4298 60.4535 93.0484 77.6636 85.5119C94.9738 77.9753 116.956 88.0023 116.956 88.0023C116.956 88.0023 116.198 85.3638 112.528 75.8593C111.326 74.0002 57.2492 56.4455 49.5475 63.0024H49.6477Z" fill="#F27405"/>
<path d="M80.003 84.6076C80.003 84.6076 78.366 104.039 91.9669 106.094C105.568 108.149 108.163 83.0794 100.335 75.7388C92.5068 68.3982 81.566 75.212 80.003 84.6076Z" fill="#191F1F"/>
<path d="M27.0011 81.9058C27.0011 81.9058 22.4298 99.4955 36.035 101.55C49.6359 103.606 52.1523 80.3428 44.3244 73.0022C36.4965 65.6616 28.5685 72.5146 27.0011 81.9058Z" fill="#191F1F"/>
<path d="M35.6157 75.4181C35.6157 75.4181 33.0819 79.0536 34.7711 80.8212C36.4603 82.5889 41.7457 80.6122 41.9547 76.9768C42.168 73.3413 37.2005 72.6142 35.6157 75.4181Z" fill="#58606F"/>
<path d="M30.5948 81.9031C30.5948 81.9031 29.3627 83.723 30.1855 84.6068C31.004 85.4906 33.5683 84.5023 33.6728 82.6824C33.7773 80.8625 31.3654 80.5011 30.5948 81.9031Z" fill="#58606F"/>
<path d="M88.3555 85.7859C88.3555 85.7859 87.1234 87.6058 87.9463 88.4896C88.7648 89.3734 91.3291 88.3851 91.4336 86.5652C91.5381 84.7453 89.1261 84.3839 88.3555 85.7859Z" fill="#58606F"/>
<path d="M93.3979 79.3019C93.3979 79.3019 90.8641 82.9373 92.5533 84.705C94.2426 86.4727 99.5279 84.496 99.7369 80.8606C99.9502 77.2251 94.9827 76.498 93.3979 79.3019Z" fill="#58606F"/>
<path d="M95.7476 67.7656C95.6519 70.9439 93.7275 36.1565 91.185 13.5861C91.0675 12.5325 89.9399 11.9186 88.9864 12.3845L83.8142 14.9271C83.6836 14.9924 83.5356 15.0403 83.3919 15.0621C56.8737 19.6424 89.9398 0.36345 92.896 0.015141C95.8521 -0.333168 102.692 5.34862 102.195 14.9271V15.0969L105.94 67.1125C105.988 67.7482 96.3659 47.3895 95.7476 67.7569V67.7656Z" fill="#F39929"/>
<path d="M70.5178 133.59L82.6471 126.98C85.0896 129.014 85.4248 132.675 83.3916 135.118L67.5051 154.196C65.4719 156.639 60.7569 157.492 58.3145 155.459L62.5941 147.235C62.3111 147 65.6461 147.909 66.9043 145.624C68.7285 142.315 65.7331 142.236 66.0074 141.906L70.9314 139.785L71.6628 139.463C73.696 137.02 68.2539 135.976 70.5178 133.59Z" fill="#F27405"/>
<path d="M46.1472 131.316L40.2567 121.337C37.6227 121.751 35.8072 124.245 36.2208 126.879L39.4556 147.456C39.8692 150.09 42.8994 152.733 45.5334 152.319L45.9905 144.552C46.2953 144.504 43.5045 143.724 43.5786 141.539C43.6874 138.374 45.8773 139.601 45.8251 139.249L43.1911 135.605L42.8036 135.06C42.39 132.426 46.7567 134.015 46.1559 131.325L46.1472 131.316Z" fill="#F27405"/>
<path d="M56.7212 43.1343C56.7734 43.143 56.9258 43.5479 57.4439 43.635C58.9633 43.8875 69.7866 42.8948 71.5933 43.1343C69.4122 45.1153 63.1603 48.8335 56.386 48.6985C54.109 48.655 51.4358 48.7551 49.9033 46.8917C52.1759 45.6406 54.4471 44.3882 56.7168 43.1343H56.7212Z" fill="#6D7276"/>
<path d="M82.7845 26.8274C87.3558 30.2234 89.1452 36.345 88.7359 41.8221C82.9717 41.9571 77.1987 41.9266 71.4344 41.9048C71.4214 40.873 70.9816 39.7976 70.8205 38.7613C70.2546 35.0954 70.5114 30.132 71.9873 26.6881C72.2877 25.9871 73.1846 24.3718 73.8246 23.9887C73.8855 23.9539 73.9639 23.8755 74.0205 23.8232C77.1203 23.8581 80.2898 24.977 82.7845 26.8274Z" fill="#6D7276"/>
<path d="M73.8251 23.9926C73.1851 24.3714 72.2926 25.9867 71.9878 26.692C70.5075 30.1359 70.255 35.0993 70.821 38.7652C70.9821 39.8015 71.4175 40.8769 71.4349 41.9087C66.968 41.8913 62.4924 41.8913 58.0256 41.7694C57.982 39.1745 58.6133 36.3576 59.4013 34.0195C60.0674 32.0429 60.7379 30.593 61.1515 29.9748C61.2342 29.8529 61.7436 29.0997 61.7349 29.0953C61.7349 29.0953 61.6914 29.1476 61.6957 29.1519C61.7218 29.178 63.176 27.7761 63.6157 27.4408C66.5326 25.2334 70.168 23.9665 73.8251 23.9926Z" fill="#F27405"/>
<defs>
<filter id="filter0_dddd_2170_4452" x="14.4893" y="42.957" width="118.59" height="154.374" filterUnits="userSpaceOnUse" color-interpolation-filters="sRGB">
<feFlood flood-opacity="0" result="BackgroundImageFix"/>
<feColorMatrix in="SourceAlpha" type="matrix" values="0 0 0 0 0 0 0 0 0 0 0 0 0 0 0 0 0 0 127 0" result="hardAlpha"/>
<feOffset dy="2"/>
<feGaussianBlur stdDeviation="2.5"/>
<feColorMatrix type="matrix" values="0 0 0 0 0.639216 0 0 0 0 0.639216 0 0 0 0 0.639216 0 0 0 0.1 0"/>
<feBlend mode="normal" in2="BackgroundImageFix" result="effect1_dropShadow_2170_4452"/>
<feColorMatrix in="SourceAlpha" type="matrix" values="0 0 0 0 0 0 0 0 0 0 0 0 0 0 0 0 0 0 127 0" result="hardAlpha"/>
<feOffset dy="9"/>
<feGaussianBlur stdDeviation="4.5"/>
<feColorMatrix type="matrix" values="0 0 0 0 0.639216 0 0 0 0 0.639216 0 0 0 0 0.639216 0 0 0 0.09 0"/>
<feBlend mode="normal" in2="effect1_dropShadow_2170_4452" result="effect2_dropShadow_2170_4452"/>
<feColorMatrix in="SourceAlpha" type="matrix" values="0 0 0 0 0 0 0 0 0 0 0 0 0 0 0 0 0 0 127 0" result="hardAlpha"/>
<feOffset dy="19"/>
<feGaussianBlur stdDeviation="6"/>
<feColorMatrix type="matrix" values="0 0 0 0 0.639216 0 0 0 0 0.639216 0 0 0 0 0.639216 0 0 0 0.05 0"/>
<feBlend mode="normal" in2="effect2_dropShadow_2170_4452" result="effect3_dropShadow_2170_4452"/>
<feColorMatrix in="SourceAlpha" type="matrix" values="0 0 0 0 0 0 0 0 0 0 0 0 0 0 0 0 0 0 127 0" result="hardAlpha"/>
<feOffset dy="35"/>
<feGaussianBlur stdDeviation="7"/>
<feColorMatrix type="matrix" values="0 0 0 0 0.639216 0 0 0 0 0.639216 0 0 0 0 0.639216 0 0 0 0.01 0"/>
<feBlend mode="normal" in2="effect3_dropShadow_2170_4452" result="effect4_dropShadow_2170_4452"/>
<feBlend mode="normal" in="SourceGraphic" in2="effect4_dropShadow_2170_4452" result="shape"/>
</filter>
</defs>
</svg>
