<svg width="526" height="529" viewBox="0 0 526 529" fill="none" xmlns="http://www.w3.org/2000/svg">
<path d="M290.583 468.558L309.601 454.711L336.906 432.18C336.906 432.18 320.383 407.039 314.793 409.536C309.202 412.033 289.135 438.537 289.135 438.537L290.533 468.502L290.583 468.558Z" fill="#000002"/>
<path d="M41.3458 307.042L60.3643 293.195L87.669 270.664C87.669 270.664 71.1464 245.523 65.5557 248.02C59.965 250.517 39.8982 277.02 39.8982 277.02L41.2959 306.985L41.3458 307.042Z" fill="#000002"/>
<path d="M108.185 264.024C100.747 259.143 94.0087 258.235 88.8173 260.732C82.5776 263.684 53.4758 280.085 53.4758 280.085L94.7075 362.375C94.7075 362.375 123.31 347.109 128.651 343.988C134.292 340.639 137.836 333.034 137.836 322.081C137.836 300.743 124.608 274.75 108.235 264.024H108.185Z" fill="#040406"/>
<path d="M45.7386 301.026C45.7386 322.365 58.9667 348.358 75.3395 359.084C91.7124 369.81 104.94 361.24 104.94 339.902C104.94 318.563 91.6625 292.57 75.3395 281.844C58.9667 271.118 45.7386 279.688 45.7386 301.026Z" fill="#414143"/>
<path d="M46.7371 303.126C46.7371 322.933 59.0167 347.052 74.1916 356.984C89.3664 366.915 101.646 358.97 101.646 339.164C101.646 319.357 89.3664 295.238 74.1916 285.306C59.0167 275.374 46.7371 283.32 46.7371 303.126Z" fill="#2B2B2D"/>
<path d="M54.3244 307.099C54.3244 321.854 63.5092 339.788 74.7905 347.222C86.0718 354.657 95.2566 348.698 95.2566 333.943C95.2566 319.187 86.0718 301.253 74.7905 293.819C63.5092 286.384 54.3244 292.343 54.3244 307.099Z" fill="#161618"/>
<path d="M56.97 308.404C56.97 321.627 65.2064 337.745 75.3396 344.385C85.4728 351.025 93.7091 345.69 93.7091 332.467C93.7091 319.244 85.4728 303.126 75.3396 296.486C65.2064 289.846 56.97 295.181 56.97 308.404Z" fill="#D5D6D5"/>
<path d="M58.5175 309.426C58.5175 321.514 66.055 336.269 75.3396 342.399C84.6242 348.471 92.1617 343.59 92.1617 331.502C92.1617 319.414 84.6242 304.658 75.3396 298.529C66.055 292.457 58.5175 297.338 58.5175 309.426Z" fill="#ADAFAE"/>
<path d="M63.6089 312.774C63.6089 321.23 68.8503 331.502 75.3395 335.759C81.8288 340.015 87.0701 336.61 87.0701 328.154C87.0701 319.698 81.8288 309.426 75.3395 305.169C68.8503 300.913 63.6089 304.318 63.6089 312.774Z" fill="#7E8180"/>
<path d="M77.6856 341.491C68.401 335.418 60.8635 320.663 60.8635 308.518C60.8635 302.275 62.9101 297.962 66.1048 296.089C61.5124 296.997 58.4675 301.764 58.4675 309.426C58.4675 321.514 66.005 336.269 75.2896 342.399C79.7822 345.35 83.8254 345.69 86.8205 343.931C84.1749 344.442 81.0301 343.704 77.6357 341.491H77.6856Z" fill="#7E8180"/>
<path d="M75.3396 298.529C69.9985 295.011 65.2563 295.181 62.1615 298.189C65.1565 296.543 69.1498 296.94 73.5925 299.835C82.8771 305.907 90.4146 320.663 90.4146 332.808C90.4146 337.972 89.0669 341.774 86.7707 343.988C90.0652 342.172 92.1617 337.802 92.1617 331.445C92.1617 319.357 84.6242 304.602 75.3396 298.473V298.529Z" fill="#7E8180"/>
<path d="M83.6758 313.058C83.6758 314.42 84.5244 316.009 85.5228 316.69C86.5711 317.371 87.3697 316.803 87.3697 315.498C87.3697 314.193 86.5211 312.547 85.5228 311.866C84.5244 311.185 83.6758 311.753 83.6758 313.058Z" fill="#656566"/>
<path d="M63.709 326.508C63.709 327.87 64.5576 329.459 65.5559 330.14C66.5543 330.821 67.4028 330.254 67.4028 328.948C67.4028 327.643 66.5543 325.997 65.5559 325.316C64.5076 324.635 63.709 325.203 63.709 326.508Z" fill="#656566"/>
<path d="M59.9651 315.668C59.9651 317.03 60.8137 318.619 61.8121 319.3C62.8104 319.982 63.659 319.414 63.659 318.109C63.659 316.803 62.9102 315.158 61.862 314.477C60.8137 313.796 59.9152 314.363 59.9152 315.668H59.9651Z" fill="#656566"/>
<path d="M60.015 305.453C60.015 306.815 60.8636 308.404 61.8619 309.085C62.9102 309.766 63.7089 309.199 63.7089 307.893C63.7089 306.588 62.8603 304.942 61.8619 304.261C60.8137 303.58 60.015 304.148 60.015 305.453Z" fill="#656566"/>
<path d="M66.1049 299.04C66.1049 300.402 66.9535 301.991 67.9518 302.672C68.9502 303.353 69.7988 302.786 69.7988 301.48C69.7988 300.175 68.9502 298.529 67.9518 297.848C66.9035 297.167 66.1049 297.735 66.1049 299.04Z" fill="#656566"/>
<path d="M76.288 302.899C76.288 304.261 77.1366 305.85 78.1349 306.531C79.1832 307.212 79.9819 306.645 79.9819 305.34C79.9819 304.034 79.1333 302.388 78.1349 301.707C77.1366 301.026 76.288 301.594 76.288 302.899Z" fill="#656566"/>
<path d="M87.22 324.635C87.22 325.997 88.0686 327.586 89.0669 328.267C90.0653 328.948 90.9138 328.381 90.9138 327.075C90.9138 325.77 90.0653 324.124 89.0669 323.443C88.0187 322.762 87.22 323.33 87.22 324.635Z" fill="#656566"/>
<path d="M86.2216 335.361C86.2216 336.723 87.0701 338.312 88.0685 338.993C89.0668 339.674 89.9154 339.107 89.9154 337.802C89.9154 336.496 89.0668 334.851 88.0685 334.169C87.0202 333.488 86.2216 334.056 86.2216 335.361Z" fill="#656566"/>
<path d="M79.0335 339.731C79.0335 341.093 79.8821 342.682 80.8804 343.363C81.9287 344.044 82.7273 343.477 82.7273 342.172C82.7273 340.866 81.8788 339.22 80.8804 338.539C79.8821 337.858 79.0335 338.426 79.0335 339.731Z" fill="#656566"/>
<path d="M70.4477 335.361C70.4477 336.723 71.2963 338.312 72.2947 338.993C73.3429 339.674 74.1416 339.107 74.1416 337.802C74.1416 336.496 73.293 334.851 72.2947 334.169C71.2963 333.488 70.4477 334.056 70.4477 335.361Z" fill="#656566"/>
<path d="M62.3611 313.455C62.3611 321.911 67.6024 332.183 74.0917 336.44C80.5809 340.696 85.8222 337.291 85.8222 328.835C85.8222 320.379 80.5809 310.107 74.0917 305.85C67.6024 301.594 62.3611 304.999 62.3611 313.455Z" fill="#D5D6D5"/>
<path d="M64.208 314.647C64.208 321.798 68.6507 330.481 74.1416 334.113C79.6325 337.688 84.0751 334.85 84.0751 327.7C84.0751 320.549 79.6325 311.866 74.1416 308.234C68.6507 304.658 64.208 307.496 64.208 314.647Z" fill="#2B2B2D"/>
<path d="M65.0566 316.179C65.0566 322.308 68.8503 329.8 73.5925 332.864C78.2847 335.929 82.1284 333.488 82.1284 327.359C82.1284 321.23 78.3346 313.739 73.5925 310.674C68.9003 307.61 65.0566 310.05 65.0566 316.179Z" fill="#59595B"/>
<path style="mix-blend-mode:screen" d="M74.0918 311.582C74.0918 311.582 68.8505 307.326 66.3546 311.979C65.1566 314.25 65.5559 316.86 65.5559 316.86C65.5559 316.86 67.952 321.287 72.6941 324.976C76.8872 328.211 80.8805 330.367 80.8805 330.367C80.8805 330.367 82.6775 326.565 80.2316 320.435C77.3364 313.058 74.0918 311.525 74.0918 311.525V311.582Z" fill="url(#paint0_linear_2_725)"/>
<path d="M359.319 428.662C351.881 423.781 345.142 422.93 339.901 425.37C333.661 428.321 304.559 444.722 304.559 444.722L345.791 527.013C345.791 527.013 374.394 511.747 379.735 508.625C385.375 505.277 388.92 497.672 388.92 486.719C388.92 465.38 375.692 439.388 359.319 428.662Z" fill="#040406"/>
<path d="M296.822 465.664C296.822 487.003 310.05 512.995 326.423 523.721C342.796 534.447 356.024 525.878 356.024 504.539C356.024 483.2 342.746 457.208 326.423 446.482C310.05 435.756 296.822 444.325 296.822 465.664Z" fill="#414143"/>
<path d="M297.821 467.764C297.821 487.57 310.1 511.69 325.275 521.621C340.45 531.553 352.73 523.608 352.73 503.801C352.73 483.995 340.45 459.875 325.275 449.944C310.1 440.012 297.821 447.957 297.821 467.764Z" fill="#2B2B2D"/>
<path d="M305.408 471.736C305.408 486.492 314.593 504.426 325.874 511.86C337.155 519.295 346.34 513.336 346.34 498.58C346.34 483.825 337.155 465.891 325.874 458.456C314.593 451.022 305.408 456.981 305.408 471.736Z" fill="#161618"/>
<path d="M308.054 473.042C308.054 486.265 316.29 502.383 326.423 509.022C336.556 515.662 344.793 510.328 344.793 497.105C344.793 483.881 336.556 467.764 326.423 461.124C316.29 454.484 308.054 459.818 308.054 473.042Z" fill="#D5D6D5"/>
<path d="M309.601 474.063C309.601 486.151 317.139 500.907 326.423 507.036C335.708 513.109 343.245 508.228 343.245 496.14C343.245 484.052 335.708 469.296 326.423 463.167C317.139 457.094 309.601 461.975 309.601 474.063Z" fill="#ADAFAE"/>
<path d="M314.693 477.412C314.693 485.868 319.934 496.14 326.423 500.396C332.913 504.653 338.154 501.247 338.154 492.791C338.154 484.335 332.913 474.063 326.423 469.807C319.934 465.55 314.693 468.956 314.693 477.412Z" fill="#7E8180"/>
<path d="M328.769 506.128C319.485 500.056 311.947 485.3 311.947 473.155C311.947 466.912 313.994 462.599 317.189 460.727C312.596 461.635 309.551 466.402 309.551 474.063C309.551 486.151 317.089 500.907 326.373 507.036C330.866 509.987 334.909 510.328 337.904 508.568C335.259 509.079 332.114 508.341 328.72 506.128H328.769Z" fill="#7E8180"/>
<path d="M326.423 463.167C321.082 459.648 316.34 459.819 313.245 462.826C316.24 461.181 320.233 461.578 324.676 464.472C333.961 470.545 341.498 485.3 341.498 497.445C341.498 502.61 340.15 506.412 337.854 508.625C341.149 506.809 343.245 502.439 343.245 496.083C343.245 483.995 335.708 469.239 326.423 463.11V463.167Z" fill="#7E8180"/>
<path d="M334.759 477.695C334.759 479.057 335.608 480.647 336.606 481.328C337.605 482.009 338.453 481.441 338.453 480.136C338.453 478.83 337.605 477.185 336.606 476.504C335.558 475.823 334.759 476.39 334.759 477.695Z" fill="#656566"/>
<path d="M314.793 491.089C314.793 492.451 315.641 494.04 316.639 494.721C317.688 495.402 318.486 494.834 318.486 493.529C318.486 492.224 317.638 490.578 316.639 489.897C315.641 489.216 314.793 489.784 314.793 491.089Z" fill="#656566"/>
<path d="M311.049 480.306C311.049 481.668 311.897 483.257 312.896 483.938C313.894 484.619 314.743 484.052 314.743 482.746C314.743 481.441 313.994 479.795 312.946 479.114C311.897 478.433 310.999 479.001 310.999 480.306H311.049Z" fill="#656566"/>
<path d="M311.099 470.091C311.099 471.453 311.947 473.042 312.946 473.723C313.944 474.404 314.793 473.836 314.793 472.531C314.793 471.226 313.944 469.58 312.946 468.899C311.897 468.218 311.099 468.785 311.099 470.091Z" fill="#656566"/>
<path d="M317.189 463.678C317.189 465.04 318.037 466.629 319.035 467.31C320.084 467.991 320.882 467.423 320.882 466.118C320.882 464.813 320.034 463.167 319.035 462.486C318.037 461.805 317.189 462.372 317.189 463.678Z" fill="#656566"/>
<path d="M327.372 467.537C327.372 468.899 328.22 470.488 329.219 471.169C330.217 471.85 331.065 471.282 331.065 469.977C331.065 468.672 330.217 467.026 329.219 466.345C328.17 465.664 327.372 466.231 327.372 467.537Z" fill="#656566"/>
<path d="M338.304 489.273C338.304 490.635 339.152 492.224 340.151 492.905C341.149 493.586 341.997 493.018 341.997 491.713C341.997 490.408 341.149 488.762 340.151 488.081C339.152 487.4 338.304 487.968 338.304 489.273Z" fill="#656566"/>
<path d="M337.305 499.999C337.305 501.361 338.154 502.95 339.152 503.631C340.2 504.312 340.999 503.745 340.999 502.439C340.999 501.134 340.15 499.488 339.152 498.807C338.154 498.126 337.305 498.694 337.305 499.999Z" fill="#656566"/>
<path d="M330.117 504.369C330.117 505.731 330.966 507.32 331.964 508.001C332.962 508.682 333.811 508.114 333.811 506.809C333.811 505.504 332.962 503.858 331.964 503.177C330.966 502.496 330.117 503.064 330.117 504.369Z" fill="#656566"/>
<path d="M321.581 499.999C321.581 501.361 322.43 502.95 323.428 503.631C324.477 504.312 325.275 503.745 325.275 502.439C325.275 501.134 324.427 499.488 323.428 498.807C322.38 498.126 321.581 498.694 321.581 499.999Z" fill="#656566"/>
<path d="M313.445 478.093C313.445 486.549 318.686 496.821 325.175 501.077C331.665 505.334 336.906 501.928 336.906 493.472C336.906 485.016 331.665 474.744 325.175 470.488C318.686 466.231 313.445 469.637 313.445 478.093Z" fill="#D5D6D5"/>
<path d="M315.292 479.284C315.292 486.435 319.734 495.118 325.225 498.75C330.716 502.326 335.159 499.488 335.159 492.337C335.159 485.187 330.716 476.504 325.225 472.871C319.734 469.296 315.292 472.134 315.292 479.284Z" fill="#2B2B2D"/>
<path d="M316.14 480.817C316.14 486.946 319.934 494.437 324.676 497.502C329.368 500.566 333.212 498.126 333.212 491.997C333.212 485.868 329.418 478.376 324.676 475.312C319.984 472.247 316.14 474.687 316.14 480.817Z" fill="#59595B"/>
<path style="mix-blend-mode:screen" d="M325.175 476.22C325.175 476.22 319.934 471.963 317.438 476.617C316.24 478.887 316.639 481.498 316.639 481.498C316.639 481.498 319.035 485.925 323.777 489.613C327.971 492.848 331.964 495.005 331.964 495.005C331.964 495.005 333.711 491.202 331.315 485.073C328.42 477.695 325.175 476.163 325.175 476.163V476.22Z" fill="url(#paint1_linear_2_725)"/>
<path d="M503.979 382.011C504.678 383.09 505.277 384.225 505.876 385.36C507.573 388.538 508.721 391.659 509.57 394.667C511.167 391.432 512.814 388.254 514.112 384.849C515.21 382.068 516.109 379.287 517.107 376.507L515.959 336.723L490.052 297.451L487.456 295.692C484.91 293.932 479.819 290.698 479.819 290.698C479.819 290.698 444.128 215.274 437.639 203.356C431.15 191.438 424.61 174.867 406.89 160.792C389.169 146.774 371.349 134.005 371.349 134.005C359.069 125.549 249.251 53.6443 190.898 15.4502L170.282 1.88649C167.936 0.354182 165.69 -0.213337 163.793 0.0704232C163.693 0.0704232 163.593 0.0704232 163.493 0.0704232C162.046 0.354183 160.848 1.14873 159.899 2.39728C159.101 3.47556 158.502 4.8376 158.202 6.59691L149.267 20.7282L146.222 94.1085L146.771 146.888L142.478 147.909C142.478 147.909 143.926 169.532 144.924 174.81C145.074 175.548 145.224 176.229 145.373 176.966C146.472 181.507 148.468 185.763 153.46 190.133C159.25 195.241 182.861 213.799 182.861 213.799C182.861 213.799 183.011 209.656 184.159 204.378C186.805 192.233 194.742 174.413 218.652 190.076C234.376 200.405 242.762 216.579 247.205 230.994C249.651 238.94 250.898 246.374 251.547 252.049C252.296 258.406 252.246 262.435 252.246 262.435L263.727 268.167C263.727 268.167 415.426 367.71 425.06 374.066C434.694 380.366 445.825 390.354 445.825 390.354L448.621 369.242C448.92 367.142 449.319 365.213 449.918 363.454C455.11 348.244 471.533 349.606 493.197 368.902C497.589 372.818 501.084 377.244 503.929 381.898L503.979 382.011Z" fill="#F6B100"/>
<path d="M478.272 284.001C472.082 289.676 462.498 298.416 452.914 306.985C441.333 317.371 429.602 327.416 423.712 331.616C421.466 333.205 418.57 335.078 415.226 337.121C408.587 341.263 400.101 346.144 391.066 351.252C377.938 358.63 363.662 366.405 352.53 372.364C348.187 374.69 344.294 376.79 341.149 378.436L338.104 376.336L294.077 279.347L340.5 248.644L378.637 223.446L402.647 207.556L430.101 189.395L444.178 217.033L478.321 283.944L478.272 284.001Z" fill="#D3CABB"/>
<path d="M460.501 291.605L466.541 285.363C466.541 285.363 460.301 269.018 452.963 253.298C443.279 232.583 433.895 212.663 429.852 203.81C428.055 199.894 426.158 196.432 424.261 193.368L379.835 222.482C380.983 224.298 382.38 225.943 383.878 227.022C389.618 231.108 399.502 238.259 405.792 243.593C416.274 252.503 430.6 270.494 430.6 270.494L460.551 291.662L460.501 291.605Z" fill="white"/>
<path d="M328.27 356.416L333.362 340.639L383.479 314.25L401.05 320.606L460.351 270.21L478.272 284.001L423.313 336.723L341.149 378.493L338.054 376.45L328.27 356.416Z" fill="#9E9382"/>
<g style="mix-blend-mode:screen">
<path d="M391.066 351.309C377.938 358.686 363.661 366.461 352.53 372.42L340.5 248.701L378.637 223.503L391.116 351.309H391.066ZM444.128 217.147L430.051 189.509L402.597 207.669L415.226 337.177C418.57 335.078 421.466 333.262 423.712 331.672C429.602 327.53 441.333 317.428 452.913 307.042L444.128 217.147Z" fill="#616060"/>
</g>
<path d="M428.304 191.325L425.809 192.233L472.331 283.433C458.704 295.975 428.554 323.443 417.772 331.048C402.797 341.604 359.319 365.099 338.054 376.393L341.149 378.436C360.916 367.937 408.038 342.626 423.712 331.559C434.494 323.954 462.048 298.87 475.676 286.328L428.354 191.268L428.304 191.325Z" fill="#6A6455"/>
<path d="M433.645 345.35L481.965 291.208L478.321 284.057C464.694 296.6 434.544 324.068 423.762 331.672C408.088 342.739 360.966 368.05 341.199 378.55L348.487 382.863L433.645 345.406V345.35Z" fill="#363638"/>
<path d="M428.304 191.324C428.304 191.324 417.223 204.604 377.938 229.292C325.874 262.038 294.576 277.134 294.576 277.134L251.547 252.106L184.159 204.377L145.373 176.966L27.3192 93.0868L24.6237 91.214L159.849 2.45384C160.748 1.20529 161.996 0.410743 163.443 0.126983C163.543 0.126983 163.643 0.126983 163.743 0.126983C164.941 -0.0432735 166.339 0.126974 167.786 0.694494C168.585 1.03501 169.384 1.43229 170.232 1.99981L190.848 15.5635C249.201 53.7576 359.019 125.662 371.299 134.119C371.299 134.119 389.119 146.888 406.84 160.905C424.561 174.98 421.765 179.577 428.254 191.495L428.304 191.324Z" fill="#FFD15A"/>
<path d="M406.94 160.792L259.035 257.838L291.182 280.596C291.182 280.596 322.53 265.5 374.543 232.754C413.828 208.067 430.101 189.509 430.101 189.509C424.311 178.953 420.218 172.029 406.99 160.792H406.94Z" fill="#FFAD2E"/>
<path d="M167.836 0.637773C154.858 9.66134 135.54 22.6575 109.982 38.7184C72.3944 62.384 44.6903 80.9986 27.369 93.0868L24.6735 91.214L159.899 2.45384C160.798 1.20529 162.046 0.410743 163.493 0.126983C163.593 0.126983 163.693 0.126983 163.793 0.126983C164.991 -0.0432735 166.389 0.126974 167.836 0.694494V0.637773Z" fill="#FFAD2E"/>
<path d="M391.216 473.609L389.868 436.437L358.42 392.681L355.824 390.922C353.279 389.105 348.187 385.927 348.187 385.927C348.187 385.927 310.4 301.14 303.91 289.222C297.421 277.304 292.979 270.04 275.258 255.965C257.537 241.891 232.429 225.092 232.429 225.092C217.853 215.047 71.7953 119.477 31.3125 92.9734C25.5221 89.1711 20.5303 91.1574 19.2325 97.6839L15.8381 115.39L7.30225 185.195L7.85134 237.975L7.30225 239.791C7.30225 239.791 4.95617 260.619 6.00443 265.897C7.00277 271.175 8.74987 276.112 14.5403 281.22C16.9363 283.32 22.3274 287.69 27.8682 292.116C30.7134 289.165 34.0579 286.611 37.5022 284.852C39.0995 284.058 40.7468 283.32 42.3442 282.412C42.444 282.412 43.0929 281.901 43.642 281.56C47.3858 276.68 52.8767 274.58 58.3177 275.828C63.4092 274.012 70.3477 274.977 79.7322 281.163C95.4561 291.492 103.842 307.666 108.285 322.081C108.784 323.614 109.183 325.203 109.583 326.678C113.526 341.547 113.327 353.579 113.327 353.579L124.807 359.311C124.807 359.311 276.805 458.343 286.14 465.21C288.636 467.026 290.533 468.672 290.533 468.672V468.445C290.682 467.65 290.133 462.089 294.077 447.106C294.626 445.063 297.272 441.715 297.871 440.012C303.062 424.746 332.663 440.693 354.327 460.045C358.52 463.734 361.864 467.991 364.66 472.417C366.207 473.098 367.755 473.836 369.252 474.688C369.452 474.688 369.652 474.688 369.851 474.688C372.796 474.688 375.691 474.688 378.637 474.688C381.881 474.688 387.921 475.596 391.366 473.666H391.316L391.216 473.609Z" fill="#E18802"/>
<path style="mix-blend-mode:screen" d="M279.002 353.919C286.49 362.886 294.776 369.412 294.776 369.412L351.831 403.804L382.181 430.307L355.076 392.624L344.893 385.814C344.893 385.814 320.683 311.242 291.431 278.723C262.18 246.204 176.971 190.587 176.971 190.587L28.018 92.9734C28.018 92.9734 22.8266 88.5468 19.4821 97.0028C19.3324 97.6839 15.938 115.39 15.938 115.39L7.40218 185.195L188.901 301.651C188.901 301.651 271.614 344.952 279.102 353.919H279.002Z" fill="url(#paint2_linear_2_725)"/>
<path style="mix-blend-mode:multiply" d="M387.871 473.666L386.524 436.437L348.836 405.62L290.233 370.775C290.233 370.775 286.19 365.326 278.702 356.36C271.215 347.393 207.171 316.009 207.171 316.009L7.35233 185.195L7.85149 237.975L37.8518 284.511C37.8518 284.511 44.0914 263.456 70.9968 273.785C97.9022 284.114 105.739 314.931 105.739 314.931L309.102 452.043L316.49 440.58L339.552 444.382L388.171 483.541L396.258 479.171L387.821 473.666H387.871Z" fill="url(#paint3_linear_2_725)"/>
<path style="mix-blend-mode:multiply" d="M295.475 439.955C293.628 448.071 290.533 468.502 290.533 468.502V468.729C290.533 468.729 288.037 466.629 286.09 465.267C276.706 458.4 124.758 359.367 124.758 359.367L113.277 353.635C113.277 353.635 113.426 341.604 109.533 326.735L295.475 439.955Z" fill="url(#paint4_linear_2_725)"/>
<path style="mix-blend-mode:multiply" d="M286.14 465.267C288.087 466.686 290.533 468.729 290.533 468.729V468.502C290.533 468.502 291.232 464.075 292.13 458.57L112.778 344.158C113.377 349.947 113.327 353.579 113.327 353.579L124.808 359.311C124.808 359.311 276.756 458.343 286.14 465.21V465.267Z" fill="url(#paint5_linear_2_725)"/>
<g style="mix-blend-mode:multiply">
<path d="M290.633 461.578L236.622 426.108V383.714L235.175 377.528L226.639 371.91V313.682L231.231 243.877C231.381 241.38 232.679 239.223 234.625 238.088C236.572 236.953 238.868 237.067 240.715 238.372C243.461 240.302 247.205 242.969 252.346 246.658C266.123 256.589 281.248 268.507 288.935 281.39C293.777 289.506 303.262 309.993 310.899 326.451C314.393 333.943 317.488 340.696 319.734 345.293C326.823 359.935 335.508 383.203 335.608 383.43L335.708 383.771L338.703 409.763L326.723 426.505L318.986 423.157C310.2 419.411 304.01 420.092 299.967 425.313C294.426 432.464 290.982 459.308 290.932 459.591L290.683 461.521L290.633 461.578ZM238.968 424.632L288.885 457.378C289.784 450.908 293.079 430.307 298.22 423.667C302.912 417.595 310.2 416.63 319.784 420.773L325.974 423.44L336.257 409.025L333.412 384.338C332.613 382.238 324.427 360.502 317.738 346.598C315.491 342.001 312.396 335.248 308.902 327.7C301.315 311.298 291.831 290.868 287.088 282.866C279.651 270.38 264.726 258.633 251.148 248.871C246.007 245.182 242.263 242.515 239.517 240.585C238.369 239.791 236.922 239.677 235.674 240.415C234.426 241.153 233.627 242.515 233.527 244.047L228.935 313.796V370.434L237.121 375.826L238.918 383.544V424.575L238.968 424.632Z" fill="#E0C700"/>
</g>
<path d="M293.628 439.161C295.025 440.069 294.526 441.374 296.822 442.566C301.964 427.356 320.833 428.378 342.547 447.73C346.939 451.646 349.834 457.832 352.68 462.486C353.329 463.621 354.577 462.94 355.176 464.075L358.82 461.237C358.82 461.237 353.379 445.744 335.708 434.167C318.037 422.589 315.292 422.873 309.202 422.759C303.112 422.646 295.475 430.251 293.578 439.218L293.628 439.161Z" fill="#909092"/>
<path d="M7.30234 185.252C7.30234 185.252 14.3906 188.203 15.2392 195.184C16.0878 202.164 16.6868 243.991 16.6868 243.991L7.80154 238.032L7.30234 185.252Z" fill="#F63D00"/>
<path d="M12.6435 193.822C13.4422 200.405 13.9913 237.861 14.0911 242.231L16.7368 243.991C16.7368 243.991 16.1378 202.164 15.2892 195.184C14.4406 188.203 7.35233 185.252 7.35233 185.252V185.422C9.44885 186.955 12.1444 189.679 12.6435 193.822Z" fill="#B02300"/>
<path d="M525.743 394.497C525.743 394.497 525.044 414.076 522.748 421.908C520.502 429.74 518.904 431.215 518.904 431.215C518.904 431.215 491.25 461.634 477.523 471.453C456.907 486.151 384.976 516.003 383.878 516.457L384.277 510.101L386.474 474.744C387.422 474.631 388.371 474.404 389.369 474.177C391.515 473.666 393.861 472.871 396.557 471.85C396.557 471.85 450.068 452.895 465.043 442.906C481.965 431.556 520.751 386.495 520.751 386.495L524.645 381.387L525.793 394.497H525.743Z" fill="#363638"/>
<path d="M387.921 505.674C387.522 507.093 387.073 508.398 386.723 509.533C385.176 514.13 384.028 516.173 383.878 516.457C383.878 516.457 381.781 519.068 378.786 517.535C375.841 516.003 363.811 511.236 363.811 511.236C363.811 511.236 364.909 488.194 354.127 467.877C353.528 466.742 352.879 465.607 352.23 464.529L355.126 459.535L361.016 464.132L378.387 473.496L389.269 472.815V474.233L389.868 486.095C389.868 486.095 390.168 497.785 387.971 505.674H387.921Z" fill="#2B2B2D"/>
<path d="M525.743 394.497C525.743 394.497 525.044 414.076 522.748 421.908C520.501 429.74 518.904 431.215 518.904 431.215C518.904 431.215 491.25 461.634 477.523 471.453C456.907 486.151 384.976 516.003 383.878 516.457C383.878 516.457 381.781 519.068 378.786 517.535C375.841 516.003 363.811 511.236 363.811 511.236C363.811 511.236 364.909 488.194 354.127 467.877C354.127 467.877 363.711 477.185 365.558 492.337C367.405 507.49 367.705 508.682 367.705 508.682C367.705 508.682 376.141 511.69 384.227 510.101C385.076 509.987 385.875 509.76 386.723 509.476C387.422 509.249 388.171 508.966 388.87 508.625C398.004 504.369 458.554 480.022 466.042 473.439C473.529 466.799 498.688 448.865 514.062 432.067C522.798 422.532 524.595 401.25 524.595 401.25V381.387L525.743 394.497Z" fill="#171719"/>
<path d="M292.579 442.906C293.977 443.814 298.819 437.969 301.115 439.161C304.759 433.713 319.834 432.18 341.548 451.476C345.941 455.392 349.435 459.819 352.28 464.472C352.929 465.607 353.578 466.685 354.177 467.821L357.821 464.983C357.821 464.983 352.38 449.49 334.709 437.912C317.039 426.335 314.293 426.619 308.203 426.505C302.113 426.392 294.476 433.996 292.579 442.963V442.906Z" fill="#2B2B2D"/>
<path d="M109.383 309.482C109.383 309.482 108.435 307.156 105.839 302.502C103.293 297.848 97.353 285.476 77.5358 272.48C57.7686 259.484 50.7802 268.337 50.7802 268.337L16.6368 243.991L7.75155 238.032V233.548L0.862946 241.153C0.862946 241.153 4.90625 260.619 5.9046 265.954C6.90294 271.232 8.65004 276.169 14.4404 281.277C17.5353 284.057 25.8216 290.641 32.81 296.202C36.9032 288.711 42.8933 282.582 49.083 277.247C52.3276 274.466 56.321 274.183 60.0149 275.374C64.9068 274.353 71.2962 275.772 79.5825 281.22C95.3064 291.549 103.692 307.723 108.135 322.138L294.826 435.812C295.325 434.961 295.874 434.167 296.473 433.372C296.523 433.202 296.623 433.032 296.673 432.861L109.233 309.482H109.383Z" fill="#909092"/>
<path d="M296.323 443.758C297.571 441.885 299.118 440.239 301.065 439.161L106.787 311.582C106.787 311.582 105.839 309.255 103.293 304.602C100.697 299.948 94.7573 287.576 74.99 274.58C55.1729 261.584 48.2344 270.437 48.2344 270.437L14.091 246.09L5.20572 240.131L0.912834 241.153C0.912834 241.153 2.36042 262.775 3.35877 268.053C4.40703 273.331 6.10425 278.269 11.8947 283.376C17.6851 288.484 41.2959 307.042 41.2959 307.042C41.2959 307.042 41.4457 302.502 42.7435 296.94C45.5389 284.795 53.6754 267.94 77.0866 283.32C92.8105 293.649 101.197 309.823 105.639 324.238L293.877 447.844C293.877 447.844 295.974 444.155 296.273 443.758H296.323Z" fill="#2B2B2D"/>
<path d="M42.7435 296.94C41.4956 302.502 41.2959 307.042 41.2959 307.042C41.2959 307.042 17.685 288.484 11.8946 283.376C6.10425 278.212 4.35711 273.331 3.35877 268.053C2.36042 262.775 0.912834 241.153 0.912834 241.153C0.912834 241.153 4.00772 266.408 10.9961 274.92C14.1409 278.723 28.1677 287.917 42.6936 296.997L42.7435 296.94Z" fill="#1D1D1F"/>
<path d="M7.70161 192.8L10.6468 194.73L11.0461 214.593L7.80147 212.493L7.70161 192.8Z" fill="#FEF7E5"/>
<path d="M7.70161 216.863L10.6468 218.793L11.0461 238.599L7.80147 236.499L7.70161 216.863Z" fill="#FE9529"/>
<path d="M227.837 329.8L239.368 337.404C239.368 337.404 241.314 338.993 241.314 342.172V353.238C241.314 353.238 241.414 355.792 239.168 354.316C236.922 352.841 227.837 346.882 227.837 346.882V329.856V329.8Z" fill="#2B2B2D"/>
<path d="M236.922 350.741L232.18 347.62V335.021L236.922 338.142V350.741Z" fill="#0C0C0E"/>
<path d="M322.081 368.05L316.041 374.293L287.887 358.459C287.887 358.459 284.543 354.316 279.95 348.982C275.009 343.25 268.519 336.213 263.128 331.616C258.785 327.927 252.745 323.33 247.504 319.528C245.158 317.825 242.962 316.236 241.215 314.987C237.471 312.32 234.476 306.588 234.076 301.48L236.223 249.269C235.923 245.069 238.269 243.139 241.364 245.126C246.406 248.361 247.704 249.325 258.486 257.611C260.083 258.86 262.23 260.335 264.726 262.322C271.265 267.543 280.05 276.056 287.238 291.776C288.686 294.897 290.733 299.381 293.278 304.829C297.921 314.817 304.06 327.87 310.35 341.264C317.688 356.984 322.13 367.937 322.13 367.937L322.081 368.05Z" fill="#7A6457"/>
<g style="mix-blend-mode:screen">
<path d="M293.278 304.886L280 348.982C275.058 343.25 268.569 336.213 263.178 331.616C258.835 327.927 252.795 323.33 247.554 319.528L264.725 262.378C271.265 267.599 280.05 276.112 287.238 291.833C288.686 294.954 290.732 299.437 293.278 304.886Z" fill="#2F2E2E"/>
</g>
<path d="M317.388 371.683L289.235 355.905C289.235 355.905 274.909 337.915 264.426 329.005C258.137 323.67 248.303 316.52 242.513 312.433C238.769 309.766 235.774 304.034 235.374 298.926L237.521 246.715C237.471 246.034 237.521 245.466 237.571 244.899C236.572 245.636 236.023 247.169 236.173 249.325L234.027 301.537C234.426 306.645 237.471 312.377 241.165 315.044C246.905 319.13 256.789 326.281 263.078 331.616C273.561 340.526 287.887 358.516 287.887 358.516L316.041 374.293L322.081 368.05C322.081 368.05 321.981 367.71 321.731 367.199L317.338 371.739L317.388 371.683Z" fill="#6A6455"/>
<path d="M515.959 336.723C515.959 336.723 476.524 381.274 460.751 392.057C441.582 405.166 377.039 427.81 377.039 427.81L345.591 384.055C345.591 384.055 409.136 350.684 428.903 336.723C443.03 326.792 481.965 291.152 481.965 291.152L515.959 336.723Z" fill="#FFC03B"/>
<path d="M378.387 473.496C378.387 473.496 447.273 447.276 466.341 434.28C482.265 423.44 518.255 381.501 518.255 381.501L515.959 336.78C515.959 336.78 476.524 381.33 460.75 392.113C441.582 405.223 377.039 427.867 377.039 427.867L378.387 473.496Z" fill="#363638"/>
<path d="M396.557 471.907C396.557 471.907 450.068 452.952 465.043 442.963C481.965 431.67 521.45 388.084 521.45 388.084L524.644 381.501L518.055 377.131L518.305 381.501C518.305 381.501 480.817 424.349 464.794 434.961C448.321 445.914 389.818 466.515 389.818 466.515C382.48 469.296 374.493 468.502 367.705 464.302L355.126 453.916V459.535L355.675 460.443L372.097 471.736C381.582 476.447 386.723 475.652 396.557 471.907Z" fill="#909092"/>
<path d="M417.772 414.474L420.317 452.214C420.317 452.214 459.752 436.437 465.543 431.84C473.729 425.37 495.493 402.839 495.493 402.839L493.047 363.51C493.047 363.51 472.082 388.878 457.855 396.88C447.472 402.726 431.249 409.65 417.772 414.474Z" fill="#7F7F81"/>
<path d="M491.15 383.033C491.15 383.033 490.851 383.374 490.252 384.055C490.102 384.225 489.952 384.395 489.802 384.565C489.303 385.133 488.654 385.871 487.856 386.722C487.456 387.176 487.007 387.63 486.558 388.141C486.458 388.197 486.358 388.311 486.258 388.481C485.959 388.822 485.659 389.162 485.36 389.503C481.217 393.986 475.376 400.115 469.835 405.28C469.137 405.961 468.488 406.528 467.789 407.153C467.14 407.72 466.491 408.288 465.892 408.855C465.293 409.423 464.644 409.933 464.045 410.388C463.596 410.728 463.147 411.068 462.747 411.409C462.597 411.523 462.448 411.693 462.248 411.75C461.649 412.204 461.1 412.601 460.551 412.941C459.602 413.622 457.805 414.53 455.559 415.665C455.359 415.779 455.11 415.892 454.91 416.006C453.712 416.574 452.414 417.198 450.967 417.822C450.867 417.822 450.767 417.936 450.667 417.936C449.669 418.39 448.571 418.9 447.522 419.354C446.973 419.581 446.424 419.808 445.875 420.035C445.875 420.035 445.775 420.092 445.725 420.092C444.328 420.716 442.93 421.341 441.532 421.908C439.685 422.703 437.789 423.497 435.992 424.292C435.692 424.462 435.343 424.576 435.043 424.689C433.995 425.143 432.897 425.54 431.948 425.994C431.599 426.165 431.249 426.335 430.9 426.448C427.655 427.81 424.96 428.889 423.412 429.57C423.163 429.626 422.963 429.74 422.813 429.797C422.264 430.024 421.965 430.137 421.965 430.137L421.715 427.697L420.717 416.687C431.948 412.714 445.226 407.096 454.76 402.045C455.809 401.477 456.807 400.967 457.805 400.399C460.651 398.81 463.795 396.426 466.99 393.702C475.476 386.438 484.212 376.677 488.155 372.137C489.004 371.115 489.653 370.377 490.002 369.98C490.052 369.923 490.152 369.81 490.202 369.753C490.301 369.64 490.351 369.583 490.351 369.583L491.25 383.033H491.15Z" fill="#373739"/>
<path d="M493.746 401.023C493.746 401.023 474.278 423.327 463.147 430.875C462.448 431.329 461.349 431.953 460.002 432.634C459.552 432.861 459.103 433.088 458.604 433.315C447.822 438.593 424.511 448.071 424.511 448.071L423.312 434.621C433.995 430.818 446.524 425.597 455.958 420.716C457.506 419.922 459.003 419.127 460.401 418.333C462.847 416.971 465.543 414.984 468.288 412.771C480.168 403.01 492.947 387.46 492.947 387.46L493.846 400.91L493.746 401.023Z" fill="#373739"/>
<path d="M491.15 383.033C491.15 383.033 478.521 397.505 467.839 407.039C465.243 409.366 462.747 411.409 460.601 412.885C459.652 413.566 457.855 414.474 455.609 415.609C444.627 420.943 421.965 430.137 421.965 430.137L421.715 427.697C428.254 425.03 447.523 417.027 455.459 412.941C456.657 412.317 457.556 411.806 458.155 411.352C460.95 409.479 464.245 406.642 467.589 403.52C477.722 394.1 488.704 381.501 488.704 381.501L488.105 372.137C489.453 370.548 490.252 369.583 490.252 369.583L491.15 383.033Z" fill="#131315"/>
<path d="M467.839 407.039C467.19 407.607 466.541 408.174 465.942 408.742C465.343 409.309 464.694 409.82 464.095 410.274C463.646 410.614 463.196 410.955 462.797 411.296C462.647 411.409 462.498 411.579 462.298 411.636C461.699 412.09 461.15 412.487 460.601 412.828C459.652 413.509 457.855 414.417 455.609 415.552L455.459 412.941L454.76 402.045C455.809 401.477 456.807 400.967 457.805 400.399C460.651 398.81 463.795 396.426 466.99 393.702L467.639 403.464L467.889 406.982L467.839 407.039Z" fill="#131315"/>
<path d="M468.937 423.497L460.002 432.634L459.053 433.656L458.604 433.372L456.657 432.124L455.958 420.83C457.506 420.035 459.003 419.241 460.401 418.446C462.847 417.084 465.543 415.098 468.288 412.885L468.987 423.497H468.937Z" fill="#131315"/>
<path d="M492.897 387.63C492.897 387.63 492.098 388.595 490.701 390.184L491.3 399.548C491.3 399.548 471.832 421.851 460.701 429.399C455.958 432.634 431.749 442.679 424.261 445.744L424.461 448.128C424.461 448.128 457.506 434.677 463.097 430.875C474.178 423.327 493.696 401.023 493.696 401.023L492.847 387.63H492.897Z" fill="#131315"/>
<path d="M394.111 439.672C401.1 437.458 409.585 433.769 416.424 430.591L415.725 415.949C415.725 415.949 409.086 419.525 397.356 423.667C386.623 427.47 379.136 429.683 379.136 429.683L379.735 443.871C382.231 443.247 386.773 441.998 394.111 439.672Z" fill="#BEBB7F"/>
<path d="M394.111 443.417C386.574 445.801 382.281 446.936 379.885 447.56L380.434 460.726C380.434 460.726 387.323 460.727 402.597 454.37C417.373 448.241 417.323 448.014 417.323 448.014L416.674 434.223C409.785 437.458 401.2 441.204 394.161 443.417H394.111Z" fill="#BEBB7F"/>
<path d="M406.341 426.505L406.041 420.376C403.545 421.397 400.65 422.532 397.356 423.724C386.623 427.527 379.136 429.74 379.136 429.74L379.435 437.061C380.833 436.664 382.331 436.153 384.028 435.642C391.016 433.429 399.502 429.74 406.341 426.562V426.505Z" fill="#FCFCF9"/>
<path d="M407.19 443.985L406.94 438.593C402.547 440.466 398.105 442.169 394.111 443.417C386.574 445.801 382.281 446.936 379.885 447.56L380.184 454.711C383.429 453.746 387.522 452.384 392.464 450.284C407.24 444.155 407.19 443.928 407.19 443.928V443.985Z" fill="#FCFCF9"/>
<path d="M501.733 370.604C506.225 366.348 511.067 360.446 515.41 355.225L515.011 340.072C515.011 340.072 510.818 345.633 503.28 353.295C496.392 360.332 494.345 362.886 494.345 362.886L495.243 377.188C496.841 375.826 496.991 375.088 501.733 370.548V370.604Z" fill="#BEBB7F"/>
<path d="M501.882 374.463C497.04 379.06 497.04 379.628 495.493 380.99L496.342 394.27C496.342 394.27 498.089 394.156 507.823 383.203C517.257 372.647 516.608 372.818 516.608 372.818L516.259 358.516C511.866 363.794 506.375 370.094 501.882 374.407V374.463Z" fill="#BEBB7F"/>
<path d="M511.117 351.649L510.917 345.066C508.971 347.279 506.425 350.117 503.28 353.352C496.392 360.389 494.345 362.943 494.345 362.943L494.794 369.696C495.493 369.015 496.342 368.164 497.44 367.086C501.932 362.829 506.774 356.927 511.117 351.706V351.649Z" fill="#FCFCF9"/>
<path d="M512.315 369.299L512.165 363.454C508.721 367.426 505.077 371.456 501.882 374.463C497.04 379.06 497.04 379.628 495.493 380.99L495.892 387.63C497.59 385.984 500.036 383.487 503.48 379.628C512.914 369.072 512.265 369.242 512.265 369.242L512.315 369.299Z" fill="#FCFCF9"/>
<path d="M454.511 469.183V482.633C454.511 484.676 456.408 485.981 457.955 485.073L483.014 470.658C485.46 469.239 487.007 466.402 487.007 463.28V449.49C487.007 447.447 485.11 446.141 483.513 447.106L458.454 461.862C456.058 463.28 454.511 466.118 454.511 469.183Z" fill="#FAEABD"/>
<path d="M457.456 484.335C456.308 484.335 455.36 483.257 455.36 481.952V469.069C455.36 466.175 456.757 463.564 459.003 462.259L483.064 448.071C483.363 447.901 483.663 447.787 484.012 447.787C485.16 447.787 486.109 448.865 486.109 450.171V463.394C486.109 466.288 484.711 468.956 482.415 470.261L458.355 484.108C458.055 484.279 457.756 484.392 457.406 484.392L457.456 484.335Z" fill="#F4CC5E"/>
<path d="M348.437 382.806L345.592 384.055L335.408 377.244L291.132 280.596L294.027 279.404L338.054 376.45L348.437 382.806Z" fill="#F0960A"/>
<path d="M430.051 189.509L428.304 191.325L475.676 286.441L480.318 292.684L481.965 291.208L478.272 284.001L430.051 189.509Z" fill="#F0960A"/>
<path d="M373.246 369.583L392.713 390.922L412.88 407.89L417.772 409.593L393.512 387.63L376.041 367.142L373.246 369.583Z" fill="#E18802"/>
<path d="M376.041 367.142L393.512 387.63L417.772 409.593L461.3 388.368L491.15 359.481L473.829 330.878L459.053 311.355L376.041 367.142Z" fill="#FFD54D"/>
<path d="M461.25 397.335L456.957 400.059L459.053 433.656L462.997 432.124L471.333 425.03L469.087 391.546L461.25 397.335Z" fill="#7F7F81"/>
<path d="M451.915 319.13L453.213 318.392L458.354 323.103L457.206 324.068L451.915 319.13Z" fill="#FFD54D"/>
<path d="M448.371 321.457L449.669 320.719L454.81 325.43L453.662 326.394L448.371 321.457Z" fill="#FFD54D"/>
<path d="M444.827 323.841L446.125 323.103L451.266 327.813L450.118 328.778L444.827 323.841Z" fill="#FFD54D"/>
<path d="M441.283 326.167L442.581 325.43L447.722 330.14L446.574 331.105L441.283 326.167Z" fill="#FFD54D"/>
<path d="M437.888 328.665L439.236 327.927L444.328 332.637L443.18 333.602L437.888 328.665Z" fill="#FFD54D"/>
<path d="M434.893 331.502L436.191 330.821L441.333 335.475L440.185 336.496L434.893 331.502Z" fill="#FFD54D"/>
<path d="M401.399 352.5L402.597 351.99L407.439 357.608L406.391 358.403L401.399 352.5Z" fill="#FFD54D"/>
<path d="M398.104 354.146L399.352 353.692L404.144 359.424L403.046 360.275L398.104 354.146Z" fill="#FFD54D"/>
<path d="M394.71 355.906L396.008 355.395L400.75 361.354L399.602 362.262L394.71 355.906Z" fill="#FFD54D"/>
<path d="M391.166 357.722L392.514 357.211L397.156 363.397L395.958 364.305L391.166 357.722Z" fill="#FFD54D"/>
<path d="M387.672 359.821L389.02 359.254L393.612 365.667L392.364 366.632L387.672 359.821Z" fill="#FFD54D"/>
<path d="M384.277 362.489L385.675 361.921L390.267 368.618L388.92 369.639L384.277 362.489Z" fill="#FFD54D"/>
<path d="M149.117 266.805L197.088 298.302C201.63 301.31 207.82 297.054 208.669 290.357L215.058 240.018C216.206 231.051 213.011 222.765 206.922 218.736L158.951 187.239C154.409 184.231 148.219 188.487 147.37 195.184L140.981 245.523C139.833 254.49 143.027 262.775 149.117 266.805Z" fill="#E18802"/>
<path d="M198.835 296.486L150.864 264.989C144.774 260.959 141.58 252.674 142.728 243.707L149.117 193.368C149.367 191.381 150.116 189.565 151.114 188.147C149.217 189.736 147.77 192.233 147.42 195.241L141.031 245.58C139.883 254.546 143.077 262.832 149.167 266.862L197.138 298.359C200.332 300.459 204.326 298.983 206.722 295.635C204.376 297.621 201.381 298.132 198.835 296.486Z" fill="#FFC54D"/>
<path d="M140.981 250.631L147.37 200.292C148.219 193.595 154.409 189.339 158.951 192.347L206.922 223.844C211.564 226.909 214.509 232.413 215.158 238.883C215.907 230.37 212.762 222.595 206.922 218.793L158.951 187.296C154.409 184.288 148.219 188.544 147.37 195.241L140.981 245.58C140.731 247.737 140.681 249.836 140.881 251.823C140.881 251.425 140.881 251.028 140.981 250.631Z" fill="#C47000"/>
<path d="M141.38 242.572L152.062 246.317L153.46 238.032L143.327 235.421L144.026 231.335L153.061 233.208L154.508 224.979L145.473 223.049L146.172 219.02L156.106 221.517L157.503 213.288L145.673 208.748L141.38 242.572Z" fill="#FFCF6D"/>
<path d="M152.761 261.527L195.49 289.562C199.534 292.23 205.075 288.484 205.823 282.525L211.514 237.691C212.512 229.746 209.717 222.311 204.276 218.793L161.547 190.757C157.503 188.09 151.963 191.835 151.214 197.794L145.523 242.628C144.525 250.631 147.32 258.008 152.761 261.527Z" fill="#FFC54D"/>
<path d="M150.765 263.059L193.494 291.095C197.537 293.762 203.078 290.016 203.827 284.057L209.517 239.223C210.516 231.221 207.72 223.844 202.279 220.325L159.55 192.289C155.507 189.622 149.966 193.368 149.217 199.327L143.527 244.161C142.528 252.163 145.324 259.541 150.765 263.059Z" fill="#F0E8DC"/>
<path d="M49.3329 201.029L97.3033 232.527C101.846 235.535 108.036 231.278 108.884 224.581L115.274 174.242C116.422 165.276 113.227 156.99 107.137 152.96L59.1666 121.463C54.6241 118.455 48.4344 122.712 47.5858 129.408L41.1964 179.747C40.0483 188.714 43.243 197 49.3329 201.029Z" fill="#E18802"/>
<path d="M109.283 221.517L113.576 187.693L112.728 186.047L107.886 219.02L109.283 221.517Z" fill="#FFCF6D"/>
<path d="M99.0003 230.654L51.0298 199.156C44.9399 195.127 41.7452 186.841 42.8933 177.874L49.2827 127.535C49.5323 125.549 50.2811 123.733 51.2794 122.314C49.3826 123.903 47.935 126.4 47.5855 129.408L41.1961 179.747C40.048 188.714 43.2428 197 49.3327 201.029L97.3031 232.527C100.498 234.627 104.491 233.151 106.887 229.803C104.541 231.789 101.546 232.3 99.0003 230.654Z" fill="#FFC54D"/>
<path d="M41.1461 184.855L47.5356 134.516C48.3842 127.819 54.5739 123.563 59.1164 126.571L107.087 158.068C111.729 161.133 114.674 166.638 115.323 173.108C116.072 164.595 112.927 156.82 107.087 153.017L59.1164 121.52C54.5739 118.512 48.3842 122.769 47.5356 129.465L41.1461 179.804C40.8966 181.961 40.8467 184.061 41.0463 186.047C41.0463 185.65 41.0463 185.252 41.1461 184.855Z" fill="#C47000"/>
<path d="M52.9267 195.751L95.6559 223.787C99.6992 226.454 105.24 222.709 105.989 216.75L111.679 171.915C112.678 163.913 109.882 156.536 104.441 153.017L61.7121 124.982C57.6688 122.314 52.128 126.06 51.3793 132.019L45.6887 176.853C44.6904 184.855 47.4857 192.233 52.9267 195.751Z" fill="#FFC54D"/>
<path d="M50.9299 197.284L93.6591 225.319C97.7024 227.986 103.243 224.241 103.992 218.282L109.683 173.448C110.681 165.446 107.885 158.068 102.445 154.549L59.7153 126.514C55.672 123.847 50.1312 127.592 49.3825 133.551L43.6919 178.385C42.6936 186.33 45.489 193.765 50.9299 197.284Z" fill="#F0E8DC"/>
<path d="M30.1145 105.062L29.7152 107.616L28.8166 113.12L28.2676 116.639L27.3191 122.201L26.7201 126.06L25.8216 131.678L25.3224 134.573L24.5238 139.624L24.1743 142.007L24.0246 143.54L23.4755 149.328L23.0762 153.358L22.577 159.09L22.1776 163.176L21.6286 168.908L21.1294 174.186L20.5803 179.918L19.8815 187.636L11.9945 182.812L13.0428 175.661L13.8914 170.043L14.6401 164.935L15.4887 159.26L16.0877 155.344L16.8864 149.725L17.4355 145.866L17.4854 145.696L18.4838 140.305L19.1826 136.502L20.0811 131.508L20.6302 128.614L21.6286 123.109L22.3773 119.25L23.3257 113.801L23.9747 110.34L24.973 104.835L25.5221 101.997L30.1145 105.062Z" fill="#2B2B2D"/>
<path d="M390.118 163.573C392.314 162.097 392.065 159.6 389.519 157.898L167.587 11.818C165.041 10.1722 161.197 9.94519 159.001 11.4207C156.805 12.8963 157.054 15.3934 159.6 17.0959L381.532 163.176C384.078 164.821 387.921 165.048 390.118 163.573Z" fill="#E18802"/>
<path d="M371.548 175.775C373.745 174.299 373.495 171.802 370.949 170.099L149.017 24.0197C146.471 22.3739 142.628 22.1469 140.431 23.6225C138.235 25.098 138.485 27.5951 141.03 29.2977L362.963 175.377C365.508 177.023 369.352 177.25 371.548 175.775Z" fill="#E18802"/>
<path d="M353.029 187.92C355.226 186.444 354.976 183.947 352.43 182.244L130.498 36.1647C127.952 34.5188 124.109 34.2918 121.912 35.7674C119.716 37.2429 119.966 39.74 122.511 41.4426L344.443 187.522C346.989 189.168 350.833 189.395 353.029 187.92Z" fill="#E18802"/>
<path d="M334.46 200.121C336.656 198.646 336.407 196.149 333.861 194.446L111.929 48.3663C109.383 46.7205 105.539 46.4935 103.343 47.9691C101.147 49.4446 101.396 51.9417 103.942 53.6443L325.874 199.724C328.42 201.37 332.264 201.597 334.46 200.121Z" fill="#E18802"/>
<path d="M315.941 212.266C318.137 210.791 317.887 208.293 315.342 206.591L93.4095 60.5112C90.8637 58.8654 87.02 58.6384 84.8237 60.114C82.6273 61.5895 82.8769 64.0866 85.4227 65.7892L307.355 211.869C309.901 213.515 313.744 213.742 315.941 212.266Z" fill="#E18802"/>
<path d="M297.371 224.468C299.568 222.992 299.318 220.495 296.772 218.793L74.8402 72.7129C72.2945 71.0671 68.4509 70.8401 66.2545 72.3157C64.0581 73.7912 64.3077 76.2883 66.8535 77.9909L288.786 224.071C291.331 225.716 295.175 225.943 297.371 224.468Z" fill="#E18802"/>
<path d="M278.852 236.613C281.048 235.137 280.799 232.64 278.253 230.938L56.321 84.8579C53.7752 83.2121 49.9316 82.985 47.7352 84.4606C45.5389 85.9362 45.7884 88.4332 48.3342 90.1358L270.266 236.215C272.812 237.861 276.656 238.088 278.852 236.613Z" fill="#E18802"/>
<path d="M390.118 161.757C392.314 160.281 392.065 157.784 389.519 156.082L167.587 10.002C165.041 8.35622 161.197 8.12921 159.001 9.60476C156.805 11.0803 157.054 13.5774 159.6 15.28L381.532 161.36C384.078 163.005 387.921 163.232 390.118 161.757Z" fill="#FFD54D"/>
<path d="M371.548 173.902C373.745 172.426 373.495 169.929 370.949 168.227L149.017 22.147C146.471 20.5011 142.628 20.2741 140.431 21.7497C138.235 23.2252 138.485 25.7223 141.03 27.4249L362.963 173.505C365.508 175.15 369.352 175.377 371.548 173.902Z" fill="#FFD54D"/>
<path d="M353.029 186.047C355.226 184.571 354.976 182.074 352.43 180.372L130.498 34.2919C127.952 32.646 124.109 32.419 121.912 33.8946C119.716 35.3701 119.966 37.8672 122.511 39.5698L344.443 185.649C346.989 187.295 350.833 187.522 353.029 186.047Z" fill="#FFD54D"/>
<path d="M334.46 198.248C336.656 196.773 336.407 194.276 333.861 192.573L111.929 46.4936C109.383 44.8478 105.539 44.6208 103.343 46.0963C101.147 47.5719 101.396 50.069 103.942 51.7715L325.874 197.851C328.42 199.497 332.264 199.724 334.46 198.248Z" fill="#FFD54D"/>
<path d="M315.941 210.393C318.137 208.918 317.887 206.421 315.342 204.718L93.4095 58.6385C90.8637 56.9927 87.02 56.7657 84.8237 58.2412C82.6273 59.7168 82.8769 62.2138 85.4227 63.9164L307.355 209.996C309.901 211.642 313.744 211.869 315.941 210.393Z" fill="#FFD54D"/>
<path d="M297.371 222.595C299.568 221.12 299.318 218.622 296.772 216.92L74.8402 70.8402C72.2945 69.1944 68.4509 68.9674 66.2545 70.4429C64.0581 71.9185 64.3077 74.4156 66.8535 76.1181L288.786 222.198C291.331 223.844 295.175 224.071 297.371 222.595Z" fill="#FFD54D"/>
<path d="M278.852 234.74C281.048 233.264 280.799 230.767 278.253 229.065L56.321 82.9851C53.7752 81.3393 49.9316 81.1123 47.7352 82.5878C45.5389 84.0634 45.7884 86.5605 48.3342 88.263L270.266 234.343C272.812 235.988 276.656 236.216 278.852 234.74Z" fill="#FFD54D"/>
<path d="M523.447 385.7C523.447 385.7 524.894 404.201 521.699 413.112C518.505 422.078 488.954 446.595 488.954 446.595V445.347C488.954 442.963 486.708 441.488 484.911 442.623L455.709 460.783C453.612 462.089 452.315 464.529 452.315 467.253V468.956C452.315 468.956 437.19 476.163 419.868 481.554C402.547 486.946 389.818 488.876 389.818 488.876L389.369 475.482C389.369 475.482 453.063 453.746 469.586 440.75C488.155 426.165 523.397 385.644 523.397 385.644L523.447 385.7Z" fill="#414143"/>
<path d="M389.419 475.539L389.868 488.932C389.868 488.932 381.033 489.159 376.54 488.762C371.998 488.365 364.26 482.917 364.26 482.917C364.26 482.917 361.016 474.177 358.42 471.112C356.973 469.41 354.127 466.005 354.127 466.005L350.783 457.208L344.493 447.106C348.586 448.582 356.024 462.089 356.024 462.089C356.024 462.089 373.295 474.177 377.588 474.915C383.379 475.936 386.024 476.447 389.419 475.425V475.539Z" fill="#414143"/>
<path d="M29.7152 107.615L28.8167 113.12L23.9747 110.34L24.9731 104.835L29.7152 107.615Z" fill="#5E5E5F"/>
<path d="M28.2677 116.639L27.3192 122.201L22.3774 119.25L23.3258 113.801L28.2677 116.639Z" fill="#5E5E5F"/>
<path d="M26.7201 126.06L25.8216 131.678L20.6303 128.614L21.6286 123.109L26.7201 126.06Z" fill="#5E5E5F"/>
<path d="M25.3224 134.573L24.5237 139.624L19.1826 136.502L20.0811 131.508L25.3224 134.573Z" fill="#5E5E5F"/>
<path d="M24.0247 143.539L23.4756 149.328L17.4356 145.866L17.4855 145.696L18.4839 140.305L24.0247 143.539Z" fill="#5E5E5F"/>
<path d="M23.0761 153.358L22.577 159.09L16.0877 155.344L16.8864 149.725L23.0761 153.358Z" fill="#5E5E5F"/>
<path d="M22.1778 163.176L21.6287 168.908L14.6403 164.935L15.4888 159.26L22.1778 163.176Z" fill="#5E5E5F"/>
<path d="M21.2293 174.242L20.6802 180.031L20.5804 179.918L13.0429 175.661L13.8915 170.043L21.1295 174.186L21.2293 174.242Z" fill="#5E5E5F"/>
<defs>
<linearGradient id="paint0_linear_2_725" x1="78.6842" y1="304.375" x2="57.0378" y2="359.347" gradientUnits="userSpaceOnUse">
<stop offset="0.12"/>
<stop offset="0.21" stop-color="#171C24"/>
<stop offset="0.35" stop-color="#364053"/>
<stop offset="0.48" stop-color="#4F5E7A"/>
<stop offset="0.61" stop-color="#627598"/>
<stop offset="0.74" stop-color="#7086AD"/>
<stop offset="0.87" stop-color="#7990BA"/>
<stop offset="0.98" stop-color="#7C94BF"/>
</linearGradient>
<linearGradient id="paint1_linear_2_725" x1="329.817" y1="469.012" x2="308.112" y2="523.976" gradientUnits="userSpaceOnUse">
<stop offset="0.12"/>
<stop offset="0.21" stop-color="#171C24"/>
<stop offset="0.35" stop-color="#364053"/>
<stop offset="0.48" stop-color="#4F5E7A"/>
<stop offset="0.61" stop-color="#627598"/>
<stop offset="0.74" stop-color="#7086AD"/>
<stop offset="0.87" stop-color="#7990BA"/>
<stop offset="0.98" stop-color="#7C94BF"/>
</linearGradient>
<linearGradient id="paint2_linear_2_725" x1="260.732" y1="116.866" x2="122.221" y2="379.411" gradientUnits="userSpaceOnUse">
<stop offset="0.12"/>
<stop offset="0.38" stop-color="#512C1F"/>
<stop offset="0.68" stop-color="#A65941"/>
<stop offset="0.88" stop-color="#DB7655"/>
<stop offset="0.98" stop-color="#F0825E"/>
</linearGradient>
<linearGradient id="paint3_linear_2_725" x1="166.538" y1="420.433" x2="331.706" y2="100.696" gradientUnits="userSpaceOnUse">
<stop stop-color="white"/>
<stop offset="0.98" stop-color="#C28A4E"/>
</linearGradient>
<linearGradient id="paint4_linear_2_725" x1="188.502" y1="420.66" x2="211.194" y2="385.718" gradientUnits="userSpaceOnUse">
<stop stop-color="white"/>
<stop offset="0.98" stop-color="#C28A4E"/>
</linearGradient>
<linearGradient id="paint5_linear_2_725" x1="197.487" y1="414.701" x2="205.432" y2="402.472" gradientUnits="userSpaceOnUse">
<stop stop-color="white"/>
<stop offset="0.98" stop-color="#C28A4E"/>
</linearGradient>
</defs>
</svg>
