<svg width="214" height="92" viewBox="0 0 214 92" fill="none" xmlns="http://www.w3.org/2000/svg">
<path d="M76.9237 20.6C80.1077 20.6 82.3237 21.168 83.5717 22.304C84.8197 23.424 85.4437 25.008 85.4437 27.056C85.4437 28.464 85.1957 29.664 84.6997 30.656C84.2037 31.632 83.3317 32.4 82.0837 32.96C80.8357 33.504 79.1157 33.776 76.9237 33.776H71.9317V38H66.0277C66.1557 34.896 66.2197 31.992 66.2197 29.288C66.2197 26.584 66.1557 23.68 66.0277 20.576H71.9317V20.6H76.9237ZM75.2437 29.144C76.5717 29.144 77.5637 29.096 78.2197 29C78.8917 28.888 79.3557 28.696 79.6117 28.424C79.8837 28.152 80.0197 27.752 80.0197 27.224C80.0197 26.696 79.8917 26.304 79.6357 26.048C79.3957 25.776 78.9397 25.592 78.2677 25.496C77.6117 25.4 76.6037 25.352 75.2437 25.352H71.9317V29.144H75.2437ZM99.8692 38C99.5652 37.088 99.1572 35.944 98.6452 34.568H90.9892L89.7892 38H83.7652L90.4852 20.576H99.3172L106.085 38H99.8692ZM97.2772 30.824C96.6692 29.144 96.0452 27.464 95.4052 25.784L94.8292 24.224C94.2692 25.68 93.4452 27.88 92.3572 30.824H97.2772ZM116.49 38.24C112.874 38.24 110.21 37.472 108.498 35.936C106.786 34.4 105.93 32.208 105.93 29.36C105.93 26.496 106.786 24.232 108.498 22.568C110.21 20.904 112.874 20.072 116.49 20.072C121.546 20.072 124.93 21.808 126.642 25.28C125.202 25.776 123.514 26.52 121.578 27.512C121.114 26.616 120.378 25.952 119.37 25.52C118.378 25.088 117.362 24.872 116.322 24.872C114.786 24.872 113.642 25.28 112.89 26.096C112.138 26.896 111.762 27.888 111.762 29.072C111.762 30.352 112.162 31.4 112.962 32.216C113.778 33.016 115.018 33.416 116.682 33.416C118.01 33.416 119.066 33.2 119.85 32.768C120.634 32.32 121.21 31.616 121.578 30.656C122.89 31.36 124.57 32.152 126.618 33.032C125.818 34.968 124.482 36.32 122.61 37.088C120.738 37.856 118.698 38.24 116.49 38.24ZM140.859 38C140.107 36.64 138.859 34.56 137.115 31.76L134.307 34.544V38H128.331C128.459 34.896 128.523 31.992 128.523 29.288C128.523 26.584 128.459 23.68 128.331 20.576H134.307V27.608C137.251 24.696 139.347 22.352 140.595 20.576H148.371L140.811 28.064C141.931 29.632 143.187 31.336 144.579 33.176C145.987 35.016 147.259 36.624 148.395 38H140.859ZM165.219 38C164.915 37.088 164.507 35.944 163.995 34.568H156.339L155.139 38H149.115L155.835 20.576H164.667L171.435 38H165.219ZM162.627 30.824C162.019 29.144 161.395 27.464 160.755 25.784L160.179 24.224C159.619 25.68 158.795 27.88 157.707 30.824H162.627ZM183.372 20.6C186.556 20.6 188.772 21.168 190.02 22.304C191.268 23.424 191.892 25.008 191.892 27.056C191.892 28.464 191.644 29.664 191.148 30.656C190.652 31.632 189.78 32.4 188.532 32.96C187.284 33.504 185.564 33.776 183.372 33.776H178.38V38H172.476C172.604 34.896 172.668 31.992 172.668 29.288C172.668 26.584 172.604 23.68 172.476 20.576H178.38V20.6H183.372ZM181.692 29.144C183.02 29.144 184.012 29.096 184.668 29C185.34 28.888 185.804 28.696 186.06 28.424C186.332 28.152 186.468 27.752 186.468 27.224C186.468 26.696 186.34 26.304 186.084 26.048C185.844 25.776 185.388 25.592 184.716 25.496C184.06 25.4 183.052 25.352 181.692 25.352H178.38V29.144H181.692ZM204.46 20.6C207.644 20.6 209.86 21.168 211.108 22.304C212.356 23.424 212.98 25.008 212.98 27.056C212.98 28.464 212.732 29.664 212.236 30.656C211.74 31.632 210.868 32.4 209.62 32.96C208.372 33.504 206.652 33.776 204.46 33.776H199.468V38H193.564C193.692 34.896 193.756 31.992 193.756 29.288C193.756 26.584 193.692 23.68 193.564 20.576H199.468V20.6H204.46ZM202.78 29.144C204.108 29.144 205.1 29.096 205.756 29C206.428 28.888 206.892 28.696 207.148 28.424C207.42 28.152 207.556 27.752 207.556 27.224C207.556 26.696 207.428 26.304 207.172 26.048C206.932 25.776 206.476 25.592 205.804 25.496C205.148 25.4 204.14 25.352 202.78 25.352H199.468V29.144H202.78Z" fill="#E8E6E4"/>
<path d="M27.1262 53L6 40.4696V15.3952L27.1262 2.85352L48.2424 15.3952V40.4684L27.1262 52.9987V53Z" fill="#F0F2F2"/>
<path d="M26.5897 29.9728L24.7234 28.2585C24.677 28.2158 24.6217 28.1744 24.5589 28.1719C23.715 28.1392 18.2645 12.5231 16.0768 6.30877C15.9977 6.08522 15.7214 6.00861 15.538 6.15806L14.1264 7.30472C14.1013 7.32607 14.0712 7.3424 14.041 7.35621C6.85621 10.3654 14.9226 2.80852 15.7314 2.51966C16.5402 2.2308 18.8334 3.39001 19.3069 6.12039C19.3094 6.13294 19.3119 6.14425 19.3157 6.15681L26.4138 29.1804C26.4678 29.3562 26.6575 29.4793 26.8283 29.4102C26.9225 29.3725 27.028 29.429 27.1046 29.5295C27.352 29.851 26.8873 30.2479 26.5884 29.9728H26.5897Z" fill="#F39929"/>
<g filter="url(#filter0_dddd_2170_1554)">
<path d="M38.6222 37.076C33.654 43.8392 24.8102 44.2737 19.096 40.0752C13.3818 35.8766 13.3341 27.8224 18.3023 21.0592C23.2705 14.2961 27.9235 10.9014 33.6377 15.0986C39.3519 19.2972 43.5905 30.3116 38.6222 37.0748V37.076Z" fill="#F39929"/>
</g>
<path d="M20.7905 18.1739C20.7905 18.1739 18.1644 20.2625 16.9801 24.3279C15.7971 28.3934 23.9075 26.841 28.872 24.667C33.8653 22.493 40.2062 25.3854 40.2062 25.3854C40.2062 25.3854 39.9877 24.6243 38.929 21.8827C38.5823 21.3464 22.9832 16.2825 20.7616 18.1739H20.7905Z" fill="#F27405"/>
<path d="M29.5471 24.4061C29.5471 24.4061 29.0749 30.0113 32.9982 30.6041C36.9215 31.1969 37.67 23.9653 35.412 21.8478C33.1539 19.7303 29.9979 21.6958 29.5471 24.4061Z" fill="#191F1F"/>
<path d="M14.2579 23.6267C14.2579 23.6267 12.9393 28.7007 16.8639 29.2934C20.7872 29.8862 21.5131 23.1758 19.255 21.0584C16.997 18.9409 14.71 20.9177 14.2579 23.6267Z" fill="#191F1F"/>
<path d="M16.7427 21.7553C16.7427 21.7553 16.0118 22.804 16.499 23.3139C16.9863 23.8238 18.5109 23.2536 18.5712 22.2049C18.6328 21.1562 17.1998 20.9465 16.7427 21.7553Z" fill="#58606F"/>
<path d="M15.2945 23.6259C15.2945 23.6259 14.9391 24.1509 15.1764 24.4058C15.4125 24.6608 16.1522 24.3757 16.1824 23.8507C16.2125 23.3257 15.5168 23.2215 15.2945 23.6259Z" fill="#58606F"/>
<path d="M31.9561 24.746C31.9561 24.746 31.6007 25.271 31.838 25.5259C32.0741 25.7809 32.8138 25.4958 32.844 24.9708C32.8741 24.4458 32.1784 24.3416 31.9561 24.746Z" fill="#58606F"/>
<path d="M33.4107 22.8754C33.4107 22.8754 32.6797 23.9241 33.167 24.434C33.6543 24.9439 35.1789 24.3737 35.2392 23.325C35.3007 22.2763 33.8678 22.0666 33.4107 22.8754Z" fill="#58606F"/>
<path d="M34.0886 19.5478C34.061 20.4646 33.5059 10.4298 32.7724 3.91908C32.7385 3.61514 32.4133 3.43806 32.1382 3.57244L30.6463 4.3059C30.6086 4.32474 30.5659 4.33855 30.5244 4.34483C22.8749 5.66606 32.4133 0.104841 33.266 0.00436759C34.1187 -0.0961061 36.0917 1.54287 35.9485 4.3059V4.35488L37.0286 19.3594C37.0424 19.5427 34.2669 13.67 34.0886 19.5452V19.5478Z" fill="#F39929"/>
<path d="M26.8107 38.5354L30.3096 36.6289C31.0141 37.2154 31.1108 38.2717 30.5243 38.9762L25.9417 44.4797C25.3552 45.1842 23.9951 45.4304 23.2905 44.8439L24.525 42.4715C24.4434 42.4036 25.4054 42.6661 25.7684 42.0068C26.2946 41.0523 25.4305 41.0297 25.5096 40.9342L26.93 40.3226L27.141 40.2296C27.7275 39.5251 26.1577 39.2236 26.8107 38.5354Z" fill="#F27405"/>
<path d="M19.7807 37.8796L18.0815 35.001C17.3217 35.1203 16.798 35.8399 16.9173 36.5998L17.8504 42.5353C17.9698 43.2951 18.8438 44.0574 19.6036 43.9381L19.7355 41.6976C19.8234 41.6837 19.0184 41.4589 19.0398 40.8285C19.0711 39.9154 19.7028 40.2696 19.6878 40.1678L18.928 39.1166L18.8162 38.9596C18.6969 38.1998 19.9565 38.6582 19.7832 37.8821L19.7807 37.8796Z" fill="#F27405"/>
<path d="M22.8309 12.4425C22.846 12.445 22.89 12.5618 23.0394 12.5869C23.4777 12.6598 26.5998 12.3734 27.121 12.4425C26.4918 13.0139 24.6884 14.0865 22.7342 14.0476C22.0774 14.035 21.3063 14.0639 20.8643 13.5263C21.5198 13.1655 22.175 12.8042 22.8297 12.4425H22.8309Z" fill="#6D7276"/>
<path d="M30.3491 7.73866C31.6677 8.71827 32.1839 10.4841 32.0658 12.0641C30.4031 12.103 28.7378 12.0942 27.075 12.0879C27.0713 11.7903 26.9444 11.48 26.8979 11.1811C26.7347 10.1237 26.8088 8.6919 27.2345 7.69847C27.3212 7.49626 27.5799 7.03032 27.7645 6.9198C27.7821 6.90975 27.8047 6.88714 27.821 6.87207C28.7152 6.88212 29.6295 7.20489 30.3491 7.73866Z" fill="#6D7276"/>
<path d="M27.7647 6.92101C27.5801 7.03028 27.3226 7.49622 27.2347 7.69968C26.8077 8.69312 26.7349 10.1249 26.8982 11.1824C26.9446 11.4813 27.0702 11.7915 27.0752 12.0891C25.7867 12.0841 24.4957 12.0841 23.2072 12.0489C23.1946 11.3004 23.3767 10.4878 23.604 9.8134C23.7962 9.24321 23.9896 8.82499 24.1089 8.64665C24.1327 8.61148 24.2797 8.39421 24.2772 8.39295C24.2772 8.39295 24.2646 8.40802 24.2659 8.40928C24.2734 8.41682 24.6928 8.01241 24.8197 7.9157C25.6611 7.27895 26.7098 6.91348 27.7647 6.92101Z" fill="#F27405"/>
<defs>
<filter id="filter0_dddd_2170_1554" x="0.687012" y="10.2568" width="54.1318" height="81.5312" filterUnits="userSpaceOnUse" color-interpolation-filters="sRGB">
<feFlood flood-opacity="0" result="BackgroundImageFix"/>
<feColorMatrix in="SourceAlpha" type="matrix" values="0 0 0 0 0 0 0 0 0 0 0 0 0 0 0 0 0 0 127 0" result="hardAlpha"/>
<feOffset dy="2"/>
<feGaussianBlur stdDeviation="2.5"/>
<feColorMatrix type="matrix" values="0 0 0 0 0.639216 0 0 0 0 0.639216 0 0 0 0 0.639216 0 0 0 0.1 0"/>
<feBlend mode="normal" in2="BackgroundImageFix" result="effect1_dropShadow_2170_1554"/>
<feColorMatrix in="SourceAlpha" type="matrix" values="0 0 0 0 0 0 0 0 0 0 0 0 0 0 0 0 0 0 127 0" result="hardAlpha"/>
<feOffset dy="9"/>
<feGaussianBlur stdDeviation="4.5"/>
<feColorMatrix type="matrix" values="0 0 0 0 0.639216 0 0 0 0 0.639216 0 0 0 0 0.639216 0 0 0 0.09 0"/>
<feBlend mode="normal" in2="effect1_dropShadow_2170_1554" result="effect2_dropShadow_2170_1554"/>
<feColorMatrix in="SourceAlpha" type="matrix" values="0 0 0 0 0 0 0 0 0 0 0 0 0 0 0 0 0 0 127 0" result="hardAlpha"/>
<feOffset dy="19"/>
<feGaussianBlur stdDeviation="6"/>
<feColorMatrix type="matrix" values="0 0 0 0 0.639216 0 0 0 0 0.639216 0 0 0 0 0.639216 0 0 0 0.05 0"/>
<feBlend mode="normal" in2="effect2_dropShadow_2170_1554" result="effect3_dropShadow_2170_1554"/>
<feColorMatrix in="SourceAlpha" type="matrix" values="0 0 0 0 0 0 0 0 0 0 0 0 0 0 0 0 0 0 127 0" result="hardAlpha"/>
<feOffset dy="35"/>
<feGaussianBlur stdDeviation="7"/>
<feColorMatrix type="matrix" values="0 0 0 0 0.639216 0 0 0 0 0.639216 0 0 0 0 0.639216 0 0 0 0.01 0"/>
<feBlend mode="normal" in2="effect3_dropShadow_2170_1554" result="effect4_dropShadow_2170_1554"/>
<feBlend mode="normal" in="SourceGraphic" in2="effect4_dropShadow_2170_1554" result="shape"/>
</filter>
</defs>
</svg>
